M48
; DRILL file {KiCad 5.1.6-c6e7f7d~87~ubuntu18.04.1} date Fri Jun 17 15:59:22 2022
; FORMAT={-:-/ absolute / inch / decimal}
; #@! TF.CreationDate,2022-06-17T15:59:22+03:00
; #@! TF.GenerationSoftware,Kicad,Pcbnew,5.1.6-c6e7f7d~87~ubuntu18.04.1
; #@! TF.FileFunction,Plated,1,2,PTH
FMAT,2
INCH
T1C0.0236
T2C0.0315
T3C0.0394
T4C0.0433
T5C0.0512
T6C0.1299
%
G90
G05
T1
X3.05Y-2.9
X3.05Y-3.0
X3.05Y-3.1
X3.2Y-2.6
X3.2Y-2.7
X3.21Y-2.95
X3.21Y-3.03
X3.275Y-2.6
X3.275Y-2.7
X3.3Y-2.34
X3.3Y-2.5
X3.35Y-2.4
X3.385Y-2.915
X3.385Y-3.05
X3.385Y-3.1187
X3.4Y-2.34
X3.4Y-2.45
X3.415Y-3.32
X3.425Y-3.05
X3.45Y-2.4
X3.5Y-2.34
X3.5Y-2.45
X3.51Y-2.815
X3.51Y-3.255
X3.585Y-3.295
X3.6Y-2.34
X3.635Y-3.465
X3.635Y-3.51
X3.635Y-3.555
X3.635Y-3.6
X3.635Y-2.785
X3.635Y-3.365
X3.635Y-3.415
X3.65Y-2.965
X3.65Y-3.07
X3.685Y-3.465
X3.685Y-3.6
X3.685Y-3.365
X3.685Y-3.415
X3.695Y-2.34
X3.72Y-3.03
X3.725Y-2.395
X3.735Y-3.465
X3.735Y-3.6
X3.735Y-3.365
X3.735Y-3.415
X3.77Y-2.965
X3.785Y-3.465
X3.785Y-3.6
X3.785Y-3.365
X3.785Y-3.415
X3.8Y-2.34
X3.8237Y-3.2287
X3.825Y-3.125
X3.835Y-3.465
X3.835Y-3.51
X3.835Y-3.555
X3.835Y-3.6
X3.835Y-3.365
X3.835Y-3.415
X3.895Y-2.82
X3.895Y-3.055
X3.9Y-2.34
X3.95Y-3.07
X3.98Y-3.125
X4.0Y-2.34
X4.03Y-3.15
X4.03Y-3.2337
X4.04Y-3.295
X4.1Y-2.34
X4.15Y-3.42
X4.2Y-2.34
X4.26Y-3.135
X4.27Y-2.395
X4.295Y-3.33
X4.3Y-2.34
X4.305Y-3.59
X4.3208Y-3.4328
X4.3269Y-3.4881
X4.35Y-3.135
X4.3873Y-3.5239
X4.4Y-2.34
X4.4274Y-3.5526
X4.445Y-3.085
X4.4515Y-3.4065
X4.485Y-3.635
X4.4946Y-3.3846
X4.5Y-2.34
X4.51Y-3.075
X4.5288Y-3.4188
X4.555Y-2.875
X4.5739Y-3.4784
X4.582Y-3.5261
X4.585Y-3.235
X4.6Y-2.34
X4.62Y-2.8
X4.62Y-3.095
X4.65Y-3.36
X4.6706Y-3.0982
X4.675Y-3.635
X4.695Y-3.36
X4.7Y-2.34
X4.8Y-2.34
X4.835Y-3.43
X4.835Y-3.48
X4.853Y-3.2025
X4.87Y-3.52
X4.9Y-2.34
X4.9012Y-3.1988
X4.925Y-3.55
X4.929Y-3.1307
X4.93Y-2.485
X4.975Y-3.55
X4.98Y-2.395
X4.98Y-2.935
X4.9932Y-3.3105
X5.0Y-2.34
X5.01Y-3.03
X5.0392Y-3.2742
X5.0873Y-3.2698
X5.1Y-2.34
X5.16Y-2.465
X5.2Y-2.34
X5.2203Y-2.9093
X5.2205Y-2.7803
X5.225Y-2.445
X5.2713Y-2.9067
X5.2719Y-2.7697
X5.29Y-3.0847
X5.3Y-2.34
X5.341Y-3.0813
X5.4Y-2.34
X5.485Y-3.265
X5.5Y-2.34
X5.5522Y-2.9816
X5.555Y-3.04
X5.565Y-3.095
X5.6Y-2.34
X5.6Y-3.31
X5.61Y-2.935
X5.61Y-2.395
X5.665Y-3.03
X5.7Y-2.34
X5.71Y-3.31
X5.775Y-2.89
X5.775Y-3.045
X5.8Y-2.34
X5.9Y-2.34
X5.925Y-2.86
X5.925Y-3.01
X5.965Y-2.4513
X6.0Y-2.34
X6.025Y-2.905
X6.065Y-3.245
X6.075Y-2.905
X6.1Y-2.34
X6.18Y-3.31
X6.2Y-2.34
X6.21Y-3.095
X6.21Y-3.225
X6.215Y-3.275
X6.265Y-3.03
X6.27Y-2.395
X6.27Y-2.935
X6.3Y-2.34
X6.335Y-3.31
X6.345Y-3.03
X6.4Y-2.34
X6.425Y-3.03
X6.5Y-2.34
X6.52Y-3.095
X6.5537Y-3.5575
X6.6Y-2.34
X6.602Y-3.5546
X6.6721Y-2.8868
X6.675Y-3.115
X6.675Y-3.25
X6.7Y-2.34
X6.725Y-2.885
X6.725Y-3.115
X6.7593Y-3.0734
X6.7664Y-3.0187
X6.8Y-2.34
X6.84Y-3.46
X6.86Y-2.975
X6.86Y-3.03
X6.86Y-3.25
X6.885Y-3.4407
X6.9Y-2.34
X6.905Y-2.9
X6.935Y-2.395
X6.935Y-3.46
X6.95Y-3.03
X7.0Y-2.34
X7.1Y-2.34
X7.175Y-3.015
X7.1773Y-3.6073
X7.2Y-2.34
X7.225Y-3.015
X7.225Y-3.46
X7.23Y-3.65
X7.275Y-3.015
X7.275Y-3.4027
X7.3Y-2.34
X7.325Y-3.015
X7.325Y-3.43
X7.4Y-2.34
X7.44Y-3.265
X7.465Y-3.03
X7.485Y-3.31
X7.5Y-2.34
X7.505Y-2.9
X7.545Y-3.03
X7.6Y-2.34
X7.665Y-2.395
X7.7Y-2.34
X7.73Y-3.6
X7.775Y-3.02
X7.775Y-3.47
X7.8Y-2.34
X7.825Y-3.02
X7.825Y-3.415
X7.8651Y-3.4451
X7.8729Y-3.3587
X7.875Y-3.02
X7.9Y-2.34
X7.9212Y-3.3639
X7.925Y-3.02
X7.97Y-3.225
X8.0Y-2.34
X8.02Y-3.01
X8.04Y-3.315
X8.05Y-3.385
X8.07Y-2.935
X8.07Y-3.265
X8.1Y-2.34
X8.175Y-3.07
X8.19Y-3.385
X8.2Y-2.34
X8.225Y-3.07
X8.275Y-2.805
X8.275Y-2.945
X8.295Y-2.395
X8.3Y-2.34
X8.31Y-3.415
X8.34Y-2.93
X8.39Y-3.07
X8.4Y-2.34
X8.45Y-3.015
X8.45Y-3.3
X8.5Y-2.34
X8.5Y-2.4
X8.51Y-3.07
X8.55Y-2.45
X8.55Y-3.3
X8.6Y-2.34
X8.6Y-2.4
X8.6Y-2.5
X8.65Y-2.6
X8.65Y-3.3
X8.7Y-2.65
X8.75Y-3.3
X8.775Y-2.65
X8.85Y-2.65
X8.85Y-2.75
X8.85Y-2.85
X8.85Y-2.95
X8.85Y-3.05
X8.85Y-3.15
X8.85Y-3.25
X8.85Y-3.35
T3
X5.05Y-3.55
X5.15Y-3.55
X5.25Y-3.55
X4.05Y-3.65
X7.975Y-3.55
X7.975Y-3.65
X8.075Y-3.55
X8.075Y-3.65
X8.175Y-3.55
X8.175Y-3.65
X4.15Y-3.65
X4.25Y-3.65
X5.875Y-2.8
X7.45Y-3.55
X7.55Y-3.55
X7.65Y-3.55
X6.25Y-3.55
X6.35Y-3.55
X6.45Y-3.55
X3.35Y-3.65
X4.05Y-3.55
X3.35Y-3.55
X6.75Y-3.55
X6.85Y-3.55
X6.95Y-3.55
X7.05Y-3.55
X6.125Y-2.8
X5.45Y-3.55
X5.55Y-3.55
X5.65Y-3.55
X8.35Y-3.55
X8.45Y-3.55
X8.55Y-3.55
X5.85Y-3.55
X5.95Y-3.55
X6.05Y-3.55
X4.35Y-3.65
X3.45Y-3.65
T4
X7.759Y-2.65
X7.813Y-2.55
X7.867Y-2.65
X7.921Y-2.55
X7.975Y-2.65
X8.029Y-2.55
X8.083Y-2.65
X8.137Y-2.55
X8.191Y-2.65
X3.709Y-2.65
X3.763Y-2.55
X3.817Y-2.65
X3.871Y-2.55
X3.925Y-2.65
X3.979Y-2.55
X4.033Y-2.65
X4.087Y-2.55
X4.141Y-2.65
X5.059Y-2.65
X5.113Y-2.55
X5.167Y-2.65
X5.221Y-2.55
X5.275Y-2.65
X5.329Y-2.55
X5.383Y-2.65
X5.437Y-2.55
X5.491Y-2.65
X6.409Y-2.65
X6.463Y-2.55
X6.517Y-2.65
X6.571Y-2.55
X6.625Y-2.65
X6.679Y-2.55
X6.733Y-2.65
X6.787Y-2.55
X6.841Y-2.65
T5
X8.775Y-2.8031
X8.775Y-3.0
X8.775Y-3.1969
T6
X7.482Y-2.6
X8.468Y-2.6
X3.432Y-2.6
X4.418Y-2.6
X4.782Y-2.6
X5.768Y-2.6
X6.132Y-2.6
X7.118Y-2.6
T2
G00X3.1165Y-2.8299
M15
G01X3.0929Y-2.8299
M16
G05
G00X3.1165Y-3.1701
M15
G01X3.0929Y-3.1701
M16
G05
G00X3.287Y-2.8299
M15
G01X3.2516Y-2.8299
M16
G05
G00X3.287Y-3.1701
M15
G01X3.2516Y-3.1701
M16
G05
T0
M30
