%TF.GenerationSoftware,KiCad,Pcbnew,5.1.6-c6e7f7d~87~ubuntu18.04.1*%
%TF.CreationDate,2022-06-17T15:59:17+03:00*%
%TF.ProjectId,USB-4SERIAL_Rev_B,5553422d-3453-4455-9249-414c5f526576,B*%
%TF.SameCoordinates,Original*%
%TF.FileFunction,Legend,Bot*%
%TF.FilePolarity,Positive*%
%FSLAX46Y46*%
G04 Gerber Fmt 4.6, Leading zero omitted, Abs format (unit mm)*
G04 Created by KiCad (PCBNEW 5.1.6-c6e7f7d~87~ubuntu18.04.1) date 2022-06-17 15:59:17*
%MOMM*%
%LPD*%
G01*
G04 APERTURE LIST*
%ADD10C,0.254000*%
%ADD11C,0.177800*%
%ADD12C,0.304800*%
%ADD13C,0.381000*%
%ADD14C,0.203200*%
%ADD15C,0.285750*%
%ADD16C,0.444500*%
%ADD17C,0.241300*%
%ADD18C,0.317500*%
%ADD19C,0.508000*%
%ADD20C,0.889000*%
%ADD21C,0.127000*%
%ADD22C,0.150000*%
%ADD23C,0.200000*%
%ADD24C,1.000000*%
%ADD25C,0.370000*%
%ADD26C,0.380000*%
%ADD27C,0.400000*%
%ADD28C,0.420000*%
%ADD29C,0.100000*%
%ADD30C,0.700000*%
%ADD31C,0.500000*%
%ADD32C,0.300000*%
%ADD33C,0.350000*%
%ADD34C,0.180000*%
G04 APERTURE END LIST*
D10*
X211727142Y-88204523D02*
X212452857Y-88204523D01*
X212090000Y-88204523D02*
X212090000Y-86934523D01*
X212210952Y-87115952D01*
X212331904Y-87236904D01*
X212452857Y-87297380D01*
X214992857Y-87055476D02*
X214932380Y-86995000D01*
X214811428Y-86934523D01*
X214509047Y-86934523D01*
X214388095Y-86995000D01*
X214327619Y-87055476D01*
X214267142Y-87176428D01*
X214267142Y-87297380D01*
X214327619Y-87478809D01*
X215053333Y-88204523D01*
X214267142Y-88204523D01*
X217593333Y-86934523D02*
X216807142Y-86934523D01*
X217230476Y-87418333D01*
X217049047Y-87418333D01*
X216928095Y-87478809D01*
X216867619Y-87539285D01*
X216807142Y-87660238D01*
X216807142Y-87962619D01*
X216867619Y-88083571D01*
X216928095Y-88144047D01*
X217049047Y-88204523D01*
X217411904Y-88204523D01*
X217532857Y-88144047D01*
X217593333Y-88083571D01*
D11*
X217525600Y-93031733D02*
X217762666Y-92693066D01*
X217932000Y-93031733D02*
X217932000Y-92320533D01*
X217661066Y-92320533D01*
X217593333Y-92354400D01*
X217559466Y-92388266D01*
X217525600Y-92456000D01*
X217525600Y-92557600D01*
X217559466Y-92625333D01*
X217593333Y-92659200D01*
X217661066Y-92693066D01*
X217932000Y-92693066D01*
X217322400Y-92320533D02*
X216916000Y-92320533D01*
X217119200Y-93031733D02*
X217119200Y-92320533D01*
X216712800Y-92997866D02*
X216611200Y-93031733D01*
X216441866Y-93031733D01*
X216374133Y-92997866D01*
X216340266Y-92964000D01*
X216306400Y-92896266D01*
X216306400Y-92828533D01*
X216340266Y-92760800D01*
X216374133Y-92726933D01*
X216441866Y-92693066D01*
X216577333Y-92659200D01*
X216645066Y-92625333D01*
X216678933Y-92591466D01*
X216712800Y-92523733D01*
X216712800Y-92456000D01*
X216678933Y-92388266D01*
X216645066Y-92354400D01*
X216577333Y-92320533D01*
X216408000Y-92320533D01*
X216306400Y-92354400D01*
X216069333Y-92320533D02*
X215629066Y-92320533D01*
X215866133Y-92591466D01*
X215764533Y-92591466D01*
X215696800Y-92625333D01*
X215662933Y-92659200D01*
X215629066Y-92726933D01*
X215629066Y-92896266D01*
X215662933Y-92964000D01*
X215696800Y-92997866D01*
X215764533Y-93031733D01*
X215967733Y-93031733D01*
X216035466Y-92997866D01*
X216069333Y-92964000D01*
X215561333Y-92252800D02*
X214951733Y-93167200D01*
X214477600Y-92354400D02*
X214545333Y-92320533D01*
X214646933Y-92320533D01*
X214748533Y-92354400D01*
X214816266Y-92422133D01*
X214850133Y-92489866D01*
X214884000Y-92625333D01*
X214884000Y-92726933D01*
X214850133Y-92862400D01*
X214816266Y-92930133D01*
X214748533Y-92997866D01*
X214646933Y-93031733D01*
X214579200Y-93031733D01*
X214477600Y-92997866D01*
X214443733Y-92964000D01*
X214443733Y-92726933D01*
X214579200Y-92726933D01*
X214138933Y-93031733D02*
X214138933Y-92320533D01*
X213868000Y-92320533D01*
X213800266Y-92354400D01*
X213766400Y-92388266D01*
X213732533Y-92456000D01*
X213732533Y-92557600D01*
X213766400Y-92625333D01*
X213800266Y-92659200D01*
X213868000Y-92693066D01*
X214138933Y-92693066D01*
X213427733Y-93031733D02*
X213427733Y-92320533D01*
X212953600Y-92320533D02*
X212818133Y-92320533D01*
X212750400Y-92354400D01*
X212682666Y-92422133D01*
X212648800Y-92557600D01*
X212648800Y-92794666D01*
X212682666Y-92930133D01*
X212750400Y-92997866D01*
X212818133Y-93031733D01*
X212953600Y-93031733D01*
X213021333Y-92997866D01*
X213089066Y-92930133D01*
X213122933Y-92794666D01*
X213122933Y-92557600D01*
X213089066Y-92422133D01*
X213021333Y-92354400D01*
X212953600Y-92320533D01*
X211971466Y-93031733D02*
X212377866Y-93031733D01*
X212174666Y-93031733D02*
X212174666Y-92320533D01*
X212242400Y-92422133D01*
X212310133Y-92489866D01*
X212377866Y-92523733D01*
X211294133Y-93031733D02*
X211700533Y-93031733D01*
X211497333Y-93031733D02*
X211497333Y-92320533D01*
X211565066Y-92422133D01*
X211632800Y-92489866D01*
X211700533Y-92523733D01*
D10*
X210820000Y-86360000D02*
X218440000Y-86360000D01*
X218440000Y-86360000D02*
X218440000Y-93980000D01*
X210820000Y-86360000D02*
X210820000Y-93980000D01*
X193850380Y-87980761D02*
X194334190Y-88319428D01*
X193850380Y-88561333D02*
X194866380Y-88561333D01*
X194866380Y-88174285D01*
X194818000Y-88077523D01*
X194769619Y-88029142D01*
X194672857Y-87980761D01*
X194527714Y-87980761D01*
X194430952Y-88029142D01*
X194382571Y-88077523D01*
X194334190Y-88174285D01*
X194334190Y-88561333D01*
X193898761Y-87593714D02*
X193850380Y-87448571D01*
X193850380Y-87206666D01*
X193898761Y-87109904D01*
X193947142Y-87061523D01*
X194043904Y-87013142D01*
X194140666Y-87013142D01*
X194237428Y-87061523D01*
X194285809Y-87109904D01*
X194334190Y-87206666D01*
X194382571Y-87400190D01*
X194430952Y-87496952D01*
X194479333Y-87545333D01*
X194576095Y-87593714D01*
X194672857Y-87593714D01*
X194769619Y-87545333D01*
X194818000Y-87496952D01*
X194866380Y-87400190D01*
X194866380Y-87158285D01*
X194818000Y-87013142D01*
X194527714Y-86142285D02*
X193850380Y-86142285D01*
X194914761Y-86384190D02*
X194189047Y-86626095D01*
X194189047Y-85997142D01*
X194430952Y-85464952D02*
X194479333Y-85561714D01*
X194527714Y-85610095D01*
X194624476Y-85658476D01*
X194672857Y-85658476D01*
X194769619Y-85610095D01*
X194818000Y-85561714D01*
X194866380Y-85464952D01*
X194866380Y-85271428D01*
X194818000Y-85174666D01*
X194769619Y-85126285D01*
X194672857Y-85077904D01*
X194624476Y-85077904D01*
X194527714Y-85126285D01*
X194479333Y-85174666D01*
X194430952Y-85271428D01*
X194430952Y-85464952D01*
X194382571Y-85561714D01*
X194334190Y-85610095D01*
X194237428Y-85658476D01*
X194043904Y-85658476D01*
X193947142Y-85610095D01*
X193898761Y-85561714D01*
X193850380Y-85464952D01*
X193850380Y-85271428D01*
X193898761Y-85174666D01*
X193947142Y-85126285D01*
X194043904Y-85077904D01*
X194237428Y-85077904D01*
X194334190Y-85126285D01*
X194382571Y-85174666D01*
X194430952Y-85271428D01*
X194866380Y-84158666D02*
X194866380Y-84642476D01*
X194382571Y-84690857D01*
X194430952Y-84642476D01*
X194479333Y-84545714D01*
X194479333Y-84303809D01*
X194430952Y-84207047D01*
X194382571Y-84158666D01*
X194285809Y-84110285D01*
X194043904Y-84110285D01*
X193947142Y-84158666D01*
X193898761Y-84207047D01*
X193850380Y-84303809D01*
X193850380Y-84545714D01*
X193898761Y-84642476D01*
X193947142Y-84690857D01*
X169545000Y-93980000D02*
X169545000Y-82550000D01*
X169545000Y-82550000D02*
X180975000Y-82550000D01*
X180975000Y-82550000D02*
X180975000Y-93980000D01*
D12*
X174625000Y-87853761D02*
X174685476Y-87974714D01*
X174685476Y-88156142D01*
X174625000Y-88337571D01*
X174504047Y-88458523D01*
X174383095Y-88519000D01*
X174141190Y-88579476D01*
X173959761Y-88579476D01*
X173717857Y-88519000D01*
X173596904Y-88458523D01*
X173475952Y-88337571D01*
X173415476Y-88156142D01*
X173415476Y-88035190D01*
X173475952Y-87853761D01*
X173536428Y-87793285D01*
X173959761Y-87793285D01*
X173959761Y-88035190D01*
X173415476Y-87249000D02*
X174685476Y-87249000D01*
X174685476Y-86765190D01*
X174625000Y-86644238D01*
X174564523Y-86583761D01*
X174443571Y-86523285D01*
X174262142Y-86523285D01*
X174141190Y-86583761D01*
X174080714Y-86644238D01*
X174020238Y-86765190D01*
X174020238Y-87249000D01*
X173415476Y-85979000D02*
X174685476Y-85979000D01*
X174685476Y-85132333D02*
X174685476Y-84890428D01*
X174625000Y-84769476D01*
X174504047Y-84648523D01*
X174262142Y-84588047D01*
X173838809Y-84588047D01*
X173596904Y-84648523D01*
X173475952Y-84769476D01*
X173415476Y-84890428D01*
X173415476Y-85132333D01*
X173475952Y-85253285D01*
X173596904Y-85374238D01*
X173838809Y-85434714D01*
X174262142Y-85434714D01*
X174504047Y-85374238D01*
X174625000Y-85253285D01*
X174685476Y-85132333D01*
X174685476Y-83439000D02*
X174685476Y-84043761D01*
X174080714Y-84104238D01*
X174141190Y-84043761D01*
X174201666Y-83922809D01*
X174201666Y-83620428D01*
X174141190Y-83499476D01*
X174080714Y-83439000D01*
X173959761Y-83378523D01*
X173657380Y-83378523D01*
X173536428Y-83439000D01*
X173475952Y-83499476D01*
X173415476Y-83620428D01*
X173415476Y-83922809D01*
X173475952Y-84043761D01*
X173536428Y-84104238D01*
X179281666Y-92075000D02*
X179402619Y-92014523D01*
X179584047Y-92014523D01*
X179765476Y-92075000D01*
X179886428Y-92195952D01*
X179946904Y-92316904D01*
X180007380Y-92558809D01*
X180007380Y-92740238D01*
X179946904Y-92982142D01*
X179886428Y-93103095D01*
X179765476Y-93224047D01*
X179584047Y-93284523D01*
X179463095Y-93284523D01*
X179281666Y-93224047D01*
X179221190Y-93163571D01*
X179221190Y-92740238D01*
X179463095Y-92740238D01*
X178676904Y-93284523D02*
X178676904Y-92014523D01*
X178193095Y-92014523D01*
X178072142Y-92075000D01*
X178011666Y-92135476D01*
X177951190Y-92256428D01*
X177951190Y-92437857D01*
X178011666Y-92558809D01*
X178072142Y-92619285D01*
X178193095Y-92679761D01*
X178676904Y-92679761D01*
X177406904Y-93284523D02*
X177406904Y-92014523D01*
X176560238Y-92014523D02*
X176318333Y-92014523D01*
X176197380Y-92075000D01*
X176076428Y-92195952D01*
X176015952Y-92437857D01*
X176015952Y-92861190D01*
X176076428Y-93103095D01*
X176197380Y-93224047D01*
X176318333Y-93284523D01*
X176560238Y-93284523D01*
X176681190Y-93224047D01*
X176802142Y-93103095D01*
X176862619Y-92861190D01*
X176862619Y-92437857D01*
X176802142Y-92195952D01*
X176681190Y-92075000D01*
X176560238Y-92014523D01*
X175774047Y-93405476D02*
X174806428Y-93405476D01*
X174504047Y-92619285D02*
X174080714Y-92619285D01*
X173899285Y-93284523D02*
X174504047Y-93284523D01*
X174504047Y-92014523D01*
X173899285Y-92014523D01*
X173475952Y-92014523D02*
X172629285Y-93284523D01*
X172629285Y-92014523D02*
X173475952Y-93284523D01*
X172326904Y-92014523D02*
X171601190Y-92014523D01*
X171964047Y-93284523D02*
X171964047Y-92014523D01*
X170512619Y-93284523D02*
X171238333Y-93284523D01*
X170875476Y-93284523D02*
X170875476Y-92014523D01*
X170996428Y-92195952D01*
X171117380Y-92316904D01*
X171238333Y-92377380D01*
D10*
X179641500Y-87956571D02*
X179695928Y-88065428D01*
X179695928Y-88228714D01*
X179641500Y-88392000D01*
X179532642Y-88500857D01*
X179423785Y-88555285D01*
X179206071Y-88609714D01*
X179042785Y-88609714D01*
X178825071Y-88555285D01*
X178716214Y-88500857D01*
X178607357Y-88392000D01*
X178552928Y-88228714D01*
X178552928Y-88119857D01*
X178607357Y-87956571D01*
X178661785Y-87902142D01*
X179042785Y-87902142D01*
X179042785Y-88119857D01*
X178552928Y-87412285D02*
X179695928Y-87412285D01*
X179695928Y-86976857D01*
X179641500Y-86868000D01*
X179587071Y-86813571D01*
X179478214Y-86759142D01*
X179314928Y-86759142D01*
X179206071Y-86813571D01*
X179151642Y-86868000D01*
X179097214Y-86976857D01*
X179097214Y-87412285D01*
X178552928Y-86269285D02*
X179695928Y-86269285D01*
X179695928Y-85507285D02*
X179695928Y-85289571D01*
X179641500Y-85180714D01*
X179532642Y-85071857D01*
X179314928Y-85017428D01*
X178933928Y-85017428D01*
X178716214Y-85071857D01*
X178607357Y-85180714D01*
X178552928Y-85289571D01*
X178552928Y-85507285D01*
X178607357Y-85616142D01*
X178716214Y-85725000D01*
X178933928Y-85779428D01*
X179314928Y-85779428D01*
X179532642Y-85725000D01*
X179641500Y-85616142D01*
X179695928Y-85507285D01*
X178552928Y-83928857D02*
X178552928Y-84582000D01*
X178552928Y-84255428D02*
X179695928Y-84255428D01*
X179532642Y-84364285D01*
X179423785Y-84473142D01*
X179369357Y-84582000D01*
X178552928Y-82840285D02*
X178552928Y-83493428D01*
X178552928Y-83166857D02*
X179695928Y-83166857D01*
X179532642Y-83275714D01*
X179423785Y-83384571D01*
X179369357Y-83493428D01*
D12*
X172085000Y-87853761D02*
X172145476Y-87974714D01*
X172145476Y-88156142D01*
X172085000Y-88337571D01*
X171964047Y-88458523D01*
X171843095Y-88519000D01*
X171601190Y-88579476D01*
X171419761Y-88579476D01*
X171177857Y-88519000D01*
X171056904Y-88458523D01*
X170935952Y-88337571D01*
X170875476Y-88156142D01*
X170875476Y-88035190D01*
X170935952Y-87853761D01*
X170996428Y-87793285D01*
X171419761Y-87793285D01*
X171419761Y-88035190D01*
X170875476Y-87249000D02*
X172145476Y-87249000D01*
X172145476Y-86765190D01*
X172085000Y-86644238D01*
X172024523Y-86583761D01*
X171903571Y-86523285D01*
X171722142Y-86523285D01*
X171601190Y-86583761D01*
X171540714Y-86644238D01*
X171480238Y-86765190D01*
X171480238Y-87249000D01*
X170875476Y-85979000D02*
X172145476Y-85979000D01*
X172145476Y-85132333D02*
X172145476Y-84890428D01*
X172085000Y-84769476D01*
X171964047Y-84648523D01*
X171722142Y-84588047D01*
X171298809Y-84588047D01*
X171056904Y-84648523D01*
X170935952Y-84769476D01*
X170875476Y-84890428D01*
X170875476Y-85132333D01*
X170935952Y-85253285D01*
X171056904Y-85374238D01*
X171298809Y-85434714D01*
X171722142Y-85434714D01*
X171964047Y-85374238D01*
X172085000Y-85253285D01*
X172145476Y-85132333D01*
X172024523Y-84104238D02*
X172085000Y-84043761D01*
X172145476Y-83922809D01*
X172145476Y-83620428D01*
X172085000Y-83499476D01*
X172024523Y-83439000D01*
X171903571Y-83378523D01*
X171782619Y-83378523D01*
X171601190Y-83439000D01*
X170875476Y-84164714D01*
X170875476Y-83378523D01*
X177165000Y-87853761D02*
X177225476Y-87974714D01*
X177225476Y-88156142D01*
X177165000Y-88337571D01*
X177044047Y-88458523D01*
X176923095Y-88519000D01*
X176681190Y-88579476D01*
X176499761Y-88579476D01*
X176257857Y-88519000D01*
X176136904Y-88458523D01*
X176015952Y-88337571D01*
X175955476Y-88156142D01*
X175955476Y-88035190D01*
X176015952Y-87853761D01*
X176076428Y-87793285D01*
X176499761Y-87793285D01*
X176499761Y-88035190D01*
X175955476Y-87249000D02*
X177225476Y-87249000D01*
X177225476Y-86765190D01*
X177165000Y-86644238D01*
X177104523Y-86583761D01*
X176983571Y-86523285D01*
X176802142Y-86523285D01*
X176681190Y-86583761D01*
X176620714Y-86644238D01*
X176560238Y-86765190D01*
X176560238Y-87249000D01*
X175955476Y-85979000D02*
X177225476Y-85979000D01*
X177225476Y-85132333D02*
X177225476Y-84890428D01*
X177165000Y-84769476D01*
X177044047Y-84648523D01*
X176802142Y-84588047D01*
X176378809Y-84588047D01*
X176136904Y-84648523D01*
X176015952Y-84769476D01*
X175955476Y-84890428D01*
X175955476Y-85132333D01*
X176015952Y-85253285D01*
X176136904Y-85374238D01*
X176378809Y-85434714D01*
X176802142Y-85434714D01*
X177044047Y-85374238D01*
X177165000Y-85253285D01*
X177225476Y-85132333D01*
X176681190Y-83862333D02*
X176741666Y-83983285D01*
X176802142Y-84043761D01*
X176923095Y-84104238D01*
X176983571Y-84104238D01*
X177104523Y-84043761D01*
X177165000Y-83983285D01*
X177225476Y-83862333D01*
X177225476Y-83620428D01*
X177165000Y-83499476D01*
X177104523Y-83439000D01*
X176983571Y-83378523D01*
X176923095Y-83378523D01*
X176802142Y-83439000D01*
X176741666Y-83499476D01*
X176681190Y-83620428D01*
X176681190Y-83862333D01*
X176620714Y-83983285D01*
X176560238Y-84043761D01*
X176439285Y-84104238D01*
X176197380Y-84104238D01*
X176076428Y-84043761D01*
X176015952Y-83983285D01*
X175955476Y-83862333D01*
X175955476Y-83620428D01*
X176015952Y-83499476D01*
X176076428Y-83439000D01*
X176197380Y-83378523D01*
X176439285Y-83378523D01*
X176560238Y-83439000D01*
X176620714Y-83499476D01*
X176681190Y-83620428D01*
D13*
X216426142Y-60833000D02*
X216571285Y-60760428D01*
X216789000Y-60760428D01*
X217006714Y-60833000D01*
X217151857Y-60978142D01*
X217224428Y-61123285D01*
X217297000Y-61413571D01*
X217297000Y-61631285D01*
X217224428Y-61921571D01*
X217151857Y-62066714D01*
X217006714Y-62211857D01*
X216789000Y-62284428D01*
X216643857Y-62284428D01*
X216426142Y-62211857D01*
X216353571Y-62139285D01*
X216353571Y-61631285D01*
X216643857Y-61631285D01*
X215700428Y-62284428D02*
X215700428Y-60760428D01*
X214829571Y-62284428D01*
X214829571Y-60760428D01*
X214103857Y-62284428D02*
X214103857Y-60760428D01*
X213741000Y-60760428D01*
X213523285Y-60833000D01*
X213378142Y-60978142D01*
X213305571Y-61123285D01*
X213233000Y-61413571D01*
X213233000Y-61631285D01*
X213305571Y-61921571D01*
X213378142Y-62066714D01*
X213523285Y-62211857D01*
X213741000Y-62284428D01*
X214103857Y-62284428D01*
X191026142Y-60833000D02*
X191171285Y-60760428D01*
X191389000Y-60760428D01*
X191606714Y-60833000D01*
X191751857Y-60978142D01*
X191824428Y-61123285D01*
X191897000Y-61413571D01*
X191897000Y-61631285D01*
X191824428Y-61921571D01*
X191751857Y-62066714D01*
X191606714Y-62211857D01*
X191389000Y-62284428D01*
X191243857Y-62284428D01*
X191026142Y-62211857D01*
X190953571Y-62139285D01*
X190953571Y-61631285D01*
X191243857Y-61631285D01*
X190300428Y-62284428D02*
X190300428Y-60760428D01*
X189429571Y-62284428D01*
X189429571Y-60760428D01*
X188703857Y-62284428D02*
X188703857Y-60760428D01*
X188341000Y-60760428D01*
X188123285Y-60833000D01*
X187978142Y-60978142D01*
X187905571Y-61123285D01*
X187833000Y-61413571D01*
X187833000Y-61631285D01*
X187905571Y-61921571D01*
X187978142Y-62066714D01*
X188123285Y-62211857D01*
X188341000Y-62284428D01*
X188703857Y-62284428D01*
X182136142Y-60833000D02*
X182281285Y-60760428D01*
X182499000Y-60760428D01*
X182716714Y-60833000D01*
X182861857Y-60978142D01*
X182934428Y-61123285D01*
X183007000Y-61413571D01*
X183007000Y-61631285D01*
X182934428Y-61921571D01*
X182861857Y-62066714D01*
X182716714Y-62211857D01*
X182499000Y-62284428D01*
X182353857Y-62284428D01*
X182136142Y-62211857D01*
X182063571Y-62139285D01*
X182063571Y-61631285D01*
X182353857Y-61631285D01*
X181410428Y-62284428D02*
X181410428Y-60760428D01*
X180539571Y-62284428D01*
X180539571Y-60760428D01*
X179813857Y-62284428D02*
X179813857Y-60760428D01*
X179451000Y-60760428D01*
X179233285Y-60833000D01*
X179088142Y-60978142D01*
X179015571Y-61123285D01*
X178943000Y-61413571D01*
X178943000Y-61631285D01*
X179015571Y-61921571D01*
X179088142Y-62066714D01*
X179233285Y-62211857D01*
X179451000Y-62284428D01*
X179813857Y-62284428D01*
X156736142Y-60833000D02*
X156881285Y-60760428D01*
X157099000Y-60760428D01*
X157316714Y-60833000D01*
X157461857Y-60978142D01*
X157534428Y-61123285D01*
X157607000Y-61413571D01*
X157607000Y-61631285D01*
X157534428Y-61921571D01*
X157461857Y-62066714D01*
X157316714Y-62211857D01*
X157099000Y-62284428D01*
X156953857Y-62284428D01*
X156736142Y-62211857D01*
X156663571Y-62139285D01*
X156663571Y-61631285D01*
X156953857Y-61631285D01*
X156010428Y-62284428D02*
X156010428Y-60760428D01*
X155139571Y-62284428D01*
X155139571Y-60760428D01*
X154413857Y-62284428D02*
X154413857Y-60760428D01*
X154051000Y-60760428D01*
X153833285Y-60833000D01*
X153688142Y-60978142D01*
X153615571Y-61123285D01*
X153543000Y-61413571D01*
X153543000Y-61631285D01*
X153615571Y-61921571D01*
X153688142Y-62066714D01*
X153833285Y-62211857D01*
X154051000Y-62284428D01*
X154413857Y-62284428D01*
X147846142Y-60833000D02*
X147991285Y-60760428D01*
X148209000Y-60760428D01*
X148426714Y-60833000D01*
X148571857Y-60978142D01*
X148644428Y-61123285D01*
X148717000Y-61413571D01*
X148717000Y-61631285D01*
X148644428Y-61921571D01*
X148571857Y-62066714D01*
X148426714Y-62211857D01*
X148209000Y-62284428D01*
X148063857Y-62284428D01*
X147846142Y-62211857D01*
X147773571Y-62139285D01*
X147773571Y-61631285D01*
X148063857Y-61631285D01*
X147120428Y-62284428D02*
X147120428Y-60760428D01*
X146249571Y-62284428D01*
X146249571Y-60760428D01*
X145523857Y-62284428D02*
X145523857Y-60760428D01*
X145161000Y-60760428D01*
X144943285Y-60833000D01*
X144798142Y-60978142D01*
X144725571Y-61123285D01*
X144653000Y-61413571D01*
X144653000Y-61631285D01*
X144725571Y-61921571D01*
X144798142Y-62066714D01*
X144943285Y-62211857D01*
X145161000Y-62284428D01*
X145523857Y-62284428D01*
X122446142Y-60833000D02*
X122591285Y-60760428D01*
X122809000Y-60760428D01*
X123026714Y-60833000D01*
X123171857Y-60978142D01*
X123244428Y-61123285D01*
X123317000Y-61413571D01*
X123317000Y-61631285D01*
X123244428Y-61921571D01*
X123171857Y-62066714D01*
X123026714Y-62211857D01*
X122809000Y-62284428D01*
X122663857Y-62284428D01*
X122446142Y-62211857D01*
X122373571Y-62139285D01*
X122373571Y-61631285D01*
X122663857Y-61631285D01*
X121720428Y-62284428D02*
X121720428Y-60760428D01*
X120849571Y-62284428D01*
X120849571Y-60760428D01*
X120123857Y-62284428D02*
X120123857Y-60760428D01*
X119761000Y-60760428D01*
X119543285Y-60833000D01*
X119398142Y-60978142D01*
X119325571Y-61123285D01*
X119253000Y-61413571D01*
X119253000Y-61631285D01*
X119325571Y-61921571D01*
X119398142Y-62066714D01*
X119543285Y-62211857D01*
X119761000Y-62284428D01*
X120123857Y-62284428D01*
X113556142Y-60833000D02*
X113701285Y-60760428D01*
X113919000Y-60760428D01*
X114136714Y-60833000D01*
X114281857Y-60978142D01*
X114354428Y-61123285D01*
X114427000Y-61413571D01*
X114427000Y-61631285D01*
X114354428Y-61921571D01*
X114281857Y-62066714D01*
X114136714Y-62211857D01*
X113919000Y-62284428D01*
X113773857Y-62284428D01*
X113556142Y-62211857D01*
X113483571Y-62139285D01*
X113483571Y-61631285D01*
X113773857Y-61631285D01*
X112830428Y-62284428D02*
X112830428Y-60760428D01*
X111959571Y-62284428D01*
X111959571Y-60760428D01*
X111233857Y-62284428D02*
X111233857Y-60760428D01*
X110871000Y-60760428D01*
X110653285Y-60833000D01*
X110508142Y-60978142D01*
X110435571Y-61123285D01*
X110363000Y-61413571D01*
X110363000Y-61631285D01*
X110435571Y-61921571D01*
X110508142Y-62066714D01*
X110653285Y-62211857D01*
X110871000Y-62284428D01*
X111233857Y-62284428D01*
X88410142Y-60833000D02*
X88555285Y-60760428D01*
X88773000Y-60760428D01*
X88990714Y-60833000D01*
X89135857Y-60978142D01*
X89208428Y-61123285D01*
X89281000Y-61413571D01*
X89281000Y-61631285D01*
X89208428Y-61921571D01*
X89135857Y-62066714D01*
X88990714Y-62211857D01*
X88773000Y-62284428D01*
X88627857Y-62284428D01*
X88410142Y-62211857D01*
X88337571Y-62139285D01*
X88337571Y-61631285D01*
X88627857Y-61631285D01*
X87684428Y-62284428D02*
X87684428Y-60760428D01*
X86813571Y-62284428D01*
X86813571Y-60760428D01*
X86087857Y-62284428D02*
X86087857Y-60760428D01*
X85725000Y-60760428D01*
X85507285Y-60833000D01*
X85362142Y-60978142D01*
X85289571Y-61123285D01*
X85217000Y-61413571D01*
X85217000Y-61631285D01*
X85289571Y-61921571D01*
X85362142Y-62066714D01*
X85507285Y-62211857D01*
X85725000Y-62284428D01*
X86087857Y-62284428D01*
D10*
X157607000Y-72341619D02*
X157026428Y-72341619D01*
X157316714Y-73357619D02*
X157316714Y-72341619D01*
X156736142Y-72438380D02*
X156687761Y-72390000D01*
X156591000Y-72341619D01*
X156349095Y-72341619D01*
X156252333Y-72390000D01*
X156203952Y-72438380D01*
X156155571Y-72535142D01*
X156155571Y-72631904D01*
X156203952Y-72777047D01*
X156784523Y-73357619D01*
X156155571Y-73357619D01*
X155720142Y-73357619D02*
X155720142Y-72341619D01*
X155236333Y-73357619D02*
X155236333Y-72341619D01*
X154655761Y-73357619D01*
X154655761Y-72341619D01*
X153639761Y-73357619D02*
X154220333Y-73357619D01*
X153930047Y-73357619D02*
X153930047Y-72341619D01*
X154026809Y-72486761D01*
X154123571Y-72583523D01*
X154220333Y-72631904D01*
X151934333Y-69039619D02*
X151353761Y-69039619D01*
X151644047Y-70055619D02*
X151644047Y-69039619D01*
X151063476Y-69136380D02*
X151015095Y-69088000D01*
X150918333Y-69039619D01*
X150676428Y-69039619D01*
X150579666Y-69088000D01*
X150531285Y-69136380D01*
X150482904Y-69233142D01*
X150482904Y-69329904D01*
X150531285Y-69475047D01*
X151111857Y-70055619D01*
X150482904Y-70055619D01*
X149853952Y-69039619D02*
X149660428Y-69039619D01*
X149563666Y-69088000D01*
X149466904Y-69184761D01*
X149418523Y-69378285D01*
X149418523Y-69716952D01*
X149466904Y-69910476D01*
X149563666Y-70007238D01*
X149660428Y-70055619D01*
X149853952Y-70055619D01*
X149950714Y-70007238D01*
X150047476Y-69910476D01*
X150095857Y-69716952D01*
X150095857Y-69378285D01*
X150047476Y-69184761D01*
X149950714Y-69088000D01*
X149853952Y-69039619D01*
X148983095Y-69039619D02*
X148983095Y-69862095D01*
X148934714Y-69958857D01*
X148886333Y-70007238D01*
X148789571Y-70055619D01*
X148596047Y-70055619D01*
X148499285Y-70007238D01*
X148450904Y-69958857D01*
X148402523Y-69862095D01*
X148402523Y-69039619D01*
X148063857Y-69039619D02*
X147483285Y-69039619D01*
X147773571Y-70055619D02*
X147773571Y-69039619D01*
X146612428Y-70055619D02*
X147193000Y-70055619D01*
X146902714Y-70055619D02*
X146902714Y-69039619D01*
X146999476Y-69184761D01*
X147096238Y-69281523D01*
X147193000Y-69329904D01*
X222370952Y-85664523D02*
X222794285Y-85059761D01*
X223096666Y-85664523D02*
X223096666Y-84394523D01*
X222612857Y-84394523D01*
X222491904Y-84455000D01*
X222431428Y-84515476D01*
X222370952Y-84636428D01*
X222370952Y-84817857D01*
X222431428Y-84938809D01*
X222491904Y-84999285D01*
X222612857Y-85059761D01*
X223096666Y-85059761D01*
X221887142Y-85604047D02*
X221705714Y-85664523D01*
X221403333Y-85664523D01*
X221282380Y-85604047D01*
X221221904Y-85543571D01*
X221161428Y-85422619D01*
X221161428Y-85301666D01*
X221221904Y-85180714D01*
X221282380Y-85120238D01*
X221403333Y-85059761D01*
X221645238Y-84999285D01*
X221766190Y-84938809D01*
X221826666Y-84878333D01*
X221887142Y-84757380D01*
X221887142Y-84636428D01*
X221826666Y-84515476D01*
X221766190Y-84455000D01*
X221645238Y-84394523D01*
X221342857Y-84394523D01*
X221161428Y-84455000D01*
X220072857Y-84817857D02*
X220072857Y-85664523D01*
X220375238Y-84334047D02*
X220677619Y-85241190D01*
X219891428Y-85241190D01*
X219226190Y-84938809D02*
X219347142Y-84878333D01*
X219407619Y-84817857D01*
X219468095Y-84696904D01*
X219468095Y-84636428D01*
X219407619Y-84515476D01*
X219347142Y-84455000D01*
X219226190Y-84394523D01*
X218984285Y-84394523D01*
X218863333Y-84455000D01*
X218802857Y-84515476D01*
X218742380Y-84636428D01*
X218742380Y-84696904D01*
X218802857Y-84817857D01*
X218863333Y-84878333D01*
X218984285Y-84938809D01*
X219226190Y-84938809D01*
X219347142Y-84999285D01*
X219407619Y-85059761D01*
X219468095Y-85180714D01*
X219468095Y-85422619D01*
X219407619Y-85543571D01*
X219347142Y-85604047D01*
X219226190Y-85664523D01*
X218984285Y-85664523D01*
X218863333Y-85604047D01*
X218802857Y-85543571D01*
X218742380Y-85422619D01*
X218742380Y-85180714D01*
X218802857Y-85059761D01*
X218863333Y-84999285D01*
X218984285Y-84938809D01*
X217593333Y-84394523D02*
X218198095Y-84394523D01*
X218258571Y-84999285D01*
X218198095Y-84938809D01*
X218077142Y-84878333D01*
X217774761Y-84878333D01*
X217653809Y-84938809D01*
X217593333Y-84999285D01*
X217532857Y-85120238D01*
X217532857Y-85422619D01*
X217593333Y-85543571D01*
X217653809Y-85604047D01*
X217774761Y-85664523D01*
X218077142Y-85664523D01*
X218198095Y-85604047D01*
X218258571Y-85543571D01*
X212725000Y-83185000D02*
X226060000Y-83185000D01*
X212725000Y-69215000D02*
X212725000Y-83185000D01*
X226060000Y-69215000D02*
X212725000Y-69215000D01*
D14*
X195292133Y-93077695D02*
X195563066Y-92690647D01*
X195756590Y-93077695D02*
X195756590Y-92264895D01*
X195446952Y-92264895D01*
X195369542Y-92303600D01*
X195330838Y-92342304D01*
X195292133Y-92419714D01*
X195292133Y-92535828D01*
X195330838Y-92613238D01*
X195369542Y-92651942D01*
X195446952Y-92690647D01*
X195756590Y-92690647D01*
X194982495Y-93038990D02*
X194866380Y-93077695D01*
X194672857Y-93077695D01*
X194595447Y-93038990D01*
X194556742Y-93000285D01*
X194518038Y-92922876D01*
X194518038Y-92845466D01*
X194556742Y-92768057D01*
X194595447Y-92729352D01*
X194672857Y-92690647D01*
X194827676Y-92651942D01*
X194905085Y-92613238D01*
X194943790Y-92574533D01*
X194982495Y-92497123D01*
X194982495Y-92419714D01*
X194943790Y-92342304D01*
X194905085Y-92303600D01*
X194827676Y-92264895D01*
X194634152Y-92264895D01*
X194518038Y-92303600D01*
X193821352Y-92535828D02*
X193821352Y-93077695D01*
X194014876Y-92226190D02*
X194208400Y-92806761D01*
X193705238Y-92806761D01*
X193279485Y-92613238D02*
X193356895Y-92574533D01*
X193395600Y-92535828D01*
X193434304Y-92458419D01*
X193434304Y-92419714D01*
X193395600Y-92342304D01*
X193356895Y-92303600D01*
X193279485Y-92264895D01*
X193124666Y-92264895D01*
X193047257Y-92303600D01*
X193008552Y-92342304D01*
X192969847Y-92419714D01*
X192969847Y-92458419D01*
X193008552Y-92535828D01*
X193047257Y-92574533D01*
X193124666Y-92613238D01*
X193279485Y-92613238D01*
X193356895Y-92651942D01*
X193395600Y-92690647D01*
X193434304Y-92768057D01*
X193434304Y-92922876D01*
X193395600Y-93000285D01*
X193356895Y-93038990D01*
X193279485Y-93077695D01*
X193124666Y-93077695D01*
X193047257Y-93038990D01*
X193008552Y-93000285D01*
X192969847Y-92922876D01*
X192969847Y-92768057D01*
X193008552Y-92690647D01*
X193047257Y-92651942D01*
X193124666Y-92613238D01*
X192234457Y-92264895D02*
X192621504Y-92264895D01*
X192660209Y-92651942D01*
X192621504Y-92613238D01*
X192544095Y-92574533D01*
X192350571Y-92574533D01*
X192273161Y-92613238D01*
X192234457Y-92651942D01*
X192195752Y-92729352D01*
X192195752Y-92922876D01*
X192234457Y-93000285D01*
X192273161Y-93038990D01*
X192350571Y-93077695D01*
X192544095Y-93077695D01*
X192621504Y-93038990D01*
X192660209Y-93000285D01*
X192118342Y-92187485D02*
X191421657Y-93232514D01*
X190841085Y-93077695D02*
X191112019Y-92690647D01*
X191305542Y-93077695D02*
X191305542Y-92264895D01*
X190995904Y-92264895D01*
X190918495Y-92303600D01*
X190879790Y-92342304D01*
X190841085Y-92419714D01*
X190841085Y-92535828D01*
X190879790Y-92613238D01*
X190918495Y-92651942D01*
X190995904Y-92690647D01*
X191305542Y-92690647D01*
X190531447Y-93038990D02*
X190415333Y-93077695D01*
X190221809Y-93077695D01*
X190144400Y-93038990D01*
X190105695Y-93000285D01*
X190066990Y-92922876D01*
X190066990Y-92845466D01*
X190105695Y-92768057D01*
X190144400Y-92729352D01*
X190221809Y-92690647D01*
X190376628Y-92651942D01*
X190454038Y-92613238D01*
X190492742Y-92574533D01*
X190531447Y-92497123D01*
X190531447Y-92419714D01*
X190492742Y-92342304D01*
X190454038Y-92303600D01*
X190376628Y-92264895D01*
X190183104Y-92264895D01*
X190066990Y-92303600D01*
X189757352Y-92342304D02*
X189718647Y-92303600D01*
X189641238Y-92264895D01*
X189447714Y-92264895D01*
X189370304Y-92303600D01*
X189331600Y-92342304D01*
X189292895Y-92419714D01*
X189292895Y-92497123D01*
X189331600Y-92613238D01*
X189796057Y-93077695D01*
X189292895Y-93077695D01*
X189021961Y-92264895D02*
X188518800Y-92264895D01*
X188789733Y-92574533D01*
X188673619Y-92574533D01*
X188596209Y-92613238D01*
X188557504Y-92651942D01*
X188518800Y-92729352D01*
X188518800Y-92922876D01*
X188557504Y-93000285D01*
X188596209Y-93038990D01*
X188673619Y-93077695D01*
X188905847Y-93077695D01*
X188983257Y-93038990D01*
X189021961Y-93000285D01*
X188209161Y-92342304D02*
X188170457Y-92303600D01*
X188093047Y-92264895D01*
X187899523Y-92264895D01*
X187822114Y-92303600D01*
X187783409Y-92342304D01*
X187744704Y-92419714D01*
X187744704Y-92497123D01*
X187783409Y-92613238D01*
X188247866Y-93077695D01*
X187744704Y-93077695D01*
D12*
X133924523Y-93224047D02*
X133743095Y-93284523D01*
X133440714Y-93284523D01*
X133319761Y-93224047D01*
X133259285Y-93163571D01*
X133198809Y-93042619D01*
X133198809Y-92921666D01*
X133259285Y-92800714D01*
X133319761Y-92740238D01*
X133440714Y-92679761D01*
X133682619Y-92619285D01*
X133803571Y-92558809D01*
X133864047Y-92498333D01*
X133924523Y-92377380D01*
X133924523Y-92256428D01*
X133864047Y-92135476D01*
X133803571Y-92075000D01*
X133682619Y-92014523D01*
X133380238Y-92014523D01*
X133198809Y-92075000D01*
X132170714Y-93224047D02*
X132291666Y-93284523D01*
X132533571Y-93284523D01*
X132654523Y-93224047D01*
X132715000Y-93103095D01*
X132715000Y-92619285D01*
X132654523Y-92498333D01*
X132533571Y-92437857D01*
X132291666Y-92437857D01*
X132170714Y-92498333D01*
X132110238Y-92619285D01*
X132110238Y-92740238D01*
X132715000Y-92861190D01*
X131565952Y-93284523D02*
X131565952Y-92437857D01*
X131565952Y-92679761D02*
X131505476Y-92558809D01*
X131445000Y-92498333D01*
X131324047Y-92437857D01*
X131203095Y-92437857D01*
X130779761Y-93284523D02*
X130779761Y-92437857D01*
X130779761Y-92014523D02*
X130840238Y-92075000D01*
X130779761Y-92135476D01*
X130719285Y-92075000D01*
X130779761Y-92014523D01*
X130779761Y-92135476D01*
X129630714Y-93284523D02*
X129630714Y-92619285D01*
X129691190Y-92498333D01*
X129812142Y-92437857D01*
X130054047Y-92437857D01*
X130175000Y-92498333D01*
X129630714Y-93224047D02*
X129751666Y-93284523D01*
X130054047Y-93284523D01*
X130175000Y-93224047D01*
X130235476Y-93103095D01*
X130235476Y-92982142D01*
X130175000Y-92861190D01*
X130054047Y-92800714D01*
X129751666Y-92800714D01*
X129630714Y-92740238D01*
X128844523Y-93284523D02*
X128965476Y-93224047D01*
X129025952Y-93103095D01*
X129025952Y-92014523D01*
X127695476Y-93284523D02*
X128421190Y-93284523D01*
X128058333Y-93284523D02*
X128058333Y-92014523D01*
X128179285Y-92195952D01*
X128300238Y-92316904D01*
X128421190Y-92377380D01*
X144084523Y-93224047D02*
X143903095Y-93284523D01*
X143600714Y-93284523D01*
X143479761Y-93224047D01*
X143419285Y-93163571D01*
X143358809Y-93042619D01*
X143358809Y-92921666D01*
X143419285Y-92800714D01*
X143479761Y-92740238D01*
X143600714Y-92679761D01*
X143842619Y-92619285D01*
X143963571Y-92558809D01*
X144024047Y-92498333D01*
X144084523Y-92377380D01*
X144084523Y-92256428D01*
X144024047Y-92135476D01*
X143963571Y-92075000D01*
X143842619Y-92014523D01*
X143540238Y-92014523D01*
X143358809Y-92075000D01*
X142330714Y-93224047D02*
X142451666Y-93284523D01*
X142693571Y-93284523D01*
X142814523Y-93224047D01*
X142875000Y-93103095D01*
X142875000Y-92619285D01*
X142814523Y-92498333D01*
X142693571Y-92437857D01*
X142451666Y-92437857D01*
X142330714Y-92498333D01*
X142270238Y-92619285D01*
X142270238Y-92740238D01*
X142875000Y-92861190D01*
X141725952Y-93284523D02*
X141725952Y-92437857D01*
X141725952Y-92679761D02*
X141665476Y-92558809D01*
X141605000Y-92498333D01*
X141484047Y-92437857D01*
X141363095Y-92437857D01*
X140939761Y-93284523D02*
X140939761Y-92437857D01*
X140939761Y-92014523D02*
X141000238Y-92075000D01*
X140939761Y-92135476D01*
X140879285Y-92075000D01*
X140939761Y-92014523D01*
X140939761Y-92135476D01*
X139790714Y-93284523D02*
X139790714Y-92619285D01*
X139851190Y-92498333D01*
X139972142Y-92437857D01*
X140214047Y-92437857D01*
X140335000Y-92498333D01*
X139790714Y-93224047D02*
X139911666Y-93284523D01*
X140214047Y-93284523D01*
X140335000Y-93224047D01*
X140395476Y-93103095D01*
X140395476Y-92982142D01*
X140335000Y-92861190D01*
X140214047Y-92800714D01*
X139911666Y-92800714D01*
X139790714Y-92740238D01*
X139004523Y-93284523D02*
X139125476Y-93224047D01*
X139185952Y-93103095D01*
X139185952Y-92014523D01*
X138581190Y-92135476D02*
X138520714Y-92075000D01*
X138399761Y-92014523D01*
X138097380Y-92014523D01*
X137976428Y-92075000D01*
X137915952Y-92135476D01*
X137855476Y-92256428D01*
X137855476Y-92377380D01*
X137915952Y-92558809D01*
X138641666Y-93284523D01*
X137855476Y-93284523D01*
X154244523Y-93224047D02*
X154063095Y-93284523D01*
X153760714Y-93284523D01*
X153639761Y-93224047D01*
X153579285Y-93163571D01*
X153518809Y-93042619D01*
X153518809Y-92921666D01*
X153579285Y-92800714D01*
X153639761Y-92740238D01*
X153760714Y-92679761D01*
X154002619Y-92619285D01*
X154123571Y-92558809D01*
X154184047Y-92498333D01*
X154244523Y-92377380D01*
X154244523Y-92256428D01*
X154184047Y-92135476D01*
X154123571Y-92075000D01*
X154002619Y-92014523D01*
X153700238Y-92014523D01*
X153518809Y-92075000D01*
X152490714Y-93224047D02*
X152611666Y-93284523D01*
X152853571Y-93284523D01*
X152974523Y-93224047D01*
X153035000Y-93103095D01*
X153035000Y-92619285D01*
X152974523Y-92498333D01*
X152853571Y-92437857D01*
X152611666Y-92437857D01*
X152490714Y-92498333D01*
X152430238Y-92619285D01*
X152430238Y-92740238D01*
X153035000Y-92861190D01*
X151885952Y-93284523D02*
X151885952Y-92437857D01*
X151885952Y-92679761D02*
X151825476Y-92558809D01*
X151765000Y-92498333D01*
X151644047Y-92437857D01*
X151523095Y-92437857D01*
X151099761Y-93284523D02*
X151099761Y-92437857D01*
X151099761Y-92014523D02*
X151160238Y-92075000D01*
X151099761Y-92135476D01*
X151039285Y-92075000D01*
X151099761Y-92014523D01*
X151099761Y-92135476D01*
X149950714Y-93284523D02*
X149950714Y-92619285D01*
X150011190Y-92498333D01*
X150132142Y-92437857D01*
X150374047Y-92437857D01*
X150495000Y-92498333D01*
X149950714Y-93224047D02*
X150071666Y-93284523D01*
X150374047Y-93284523D01*
X150495000Y-93224047D01*
X150555476Y-93103095D01*
X150555476Y-92982142D01*
X150495000Y-92861190D01*
X150374047Y-92800714D01*
X150071666Y-92800714D01*
X149950714Y-92740238D01*
X149164523Y-93284523D02*
X149285476Y-93224047D01*
X149345952Y-93103095D01*
X149345952Y-92014523D01*
X148801666Y-92014523D02*
X148015476Y-92014523D01*
X148438809Y-92498333D01*
X148257380Y-92498333D01*
X148136428Y-92558809D01*
X148075952Y-92619285D01*
X148015476Y-92740238D01*
X148015476Y-93042619D01*
X148075952Y-93163571D01*
X148136428Y-93224047D01*
X148257380Y-93284523D01*
X148620238Y-93284523D01*
X148741190Y-93224047D01*
X148801666Y-93163571D01*
X164404523Y-93224047D02*
X164223095Y-93284523D01*
X163920714Y-93284523D01*
X163799761Y-93224047D01*
X163739285Y-93163571D01*
X163678809Y-93042619D01*
X163678809Y-92921666D01*
X163739285Y-92800714D01*
X163799761Y-92740238D01*
X163920714Y-92679761D01*
X164162619Y-92619285D01*
X164283571Y-92558809D01*
X164344047Y-92498333D01*
X164404523Y-92377380D01*
X164404523Y-92256428D01*
X164344047Y-92135476D01*
X164283571Y-92075000D01*
X164162619Y-92014523D01*
X163860238Y-92014523D01*
X163678809Y-92075000D01*
X162650714Y-93224047D02*
X162771666Y-93284523D01*
X163013571Y-93284523D01*
X163134523Y-93224047D01*
X163195000Y-93103095D01*
X163195000Y-92619285D01*
X163134523Y-92498333D01*
X163013571Y-92437857D01*
X162771666Y-92437857D01*
X162650714Y-92498333D01*
X162590238Y-92619285D01*
X162590238Y-92740238D01*
X163195000Y-92861190D01*
X162045952Y-93284523D02*
X162045952Y-92437857D01*
X162045952Y-92679761D02*
X161985476Y-92558809D01*
X161925000Y-92498333D01*
X161804047Y-92437857D01*
X161683095Y-92437857D01*
X161259761Y-93284523D02*
X161259761Y-92437857D01*
X161259761Y-92014523D02*
X161320238Y-92075000D01*
X161259761Y-92135476D01*
X161199285Y-92075000D01*
X161259761Y-92014523D01*
X161259761Y-92135476D01*
X160110714Y-93284523D02*
X160110714Y-92619285D01*
X160171190Y-92498333D01*
X160292142Y-92437857D01*
X160534047Y-92437857D01*
X160655000Y-92498333D01*
X160110714Y-93224047D02*
X160231666Y-93284523D01*
X160534047Y-93284523D01*
X160655000Y-93224047D01*
X160715476Y-93103095D01*
X160715476Y-92982142D01*
X160655000Y-92861190D01*
X160534047Y-92800714D01*
X160231666Y-92800714D01*
X160110714Y-92740238D01*
X159324523Y-93284523D02*
X159445476Y-93224047D01*
X159505952Y-93103095D01*
X159505952Y-92014523D01*
X158296428Y-92437857D02*
X158296428Y-93284523D01*
X158598809Y-91954047D02*
X158901190Y-92861190D01*
X158115000Y-92861190D01*
D10*
X82550000Y-83820000D02*
X82550000Y-93980000D01*
X89535000Y-83820000D02*
X82550000Y-83820000D01*
X89535000Y-93980000D02*
X89535000Y-83820000D01*
X99060000Y-83820000D02*
X99060000Y-93980000D01*
X112395000Y-83820000D02*
X99060000Y-83820000D01*
X112395000Y-93980000D02*
X112395000Y-83820000D01*
X210185000Y-82550000D02*
X210185000Y-93980000D01*
X199390000Y-82550000D02*
X210185000Y-82550000D01*
X199390000Y-93980000D02*
X199390000Y-82550000D01*
X196850000Y-82550000D02*
X196850000Y-93980000D01*
X186690000Y-82550000D02*
X196850000Y-82550000D01*
X186690000Y-93980000D02*
X186690000Y-82550000D01*
X165735000Y-83820000D02*
X165735000Y-93980000D01*
X156845000Y-83820000D02*
X165735000Y-83820000D01*
X156845000Y-93980000D02*
X156845000Y-83820000D01*
X155575000Y-83820000D02*
X155575000Y-93980000D01*
X146685000Y-83820000D02*
X155575000Y-83820000D01*
X146685000Y-93980000D02*
X146685000Y-83820000D01*
X145415000Y-83820000D02*
X145415000Y-93980000D01*
X136525000Y-83820000D02*
X145415000Y-83820000D01*
X136525000Y-93980000D02*
X136525000Y-83820000D01*
X135255000Y-83820000D02*
X135255000Y-93980000D01*
X126365000Y-83820000D02*
X135255000Y-83820000D01*
X126365000Y-84455000D02*
X126365000Y-83820000D01*
X126365000Y-93980000D02*
X126365000Y-83820000D01*
X193675000Y-71120000D02*
X211455000Y-71120000D01*
X211455000Y-71120000D02*
X211455000Y-58420000D01*
X193675000Y-58420000D02*
X193675000Y-71120000D01*
X159385000Y-71120000D02*
X177165000Y-71120000D01*
X177165000Y-71120000D02*
X177165000Y-58420000D01*
X159385000Y-58420000D02*
X159385000Y-71120000D01*
X125095000Y-58420000D02*
X125095000Y-71120000D01*
X125095000Y-71120000D02*
X142875000Y-71120000D01*
X142875000Y-71120000D02*
X142875000Y-58420000D01*
X108585000Y-71120000D02*
X108585000Y-58420000D01*
X90805000Y-71120000D02*
X108585000Y-71120000D01*
X90805000Y-58420000D02*
X90805000Y-71120000D01*
X88265000Y-82550000D02*
X76200000Y-82550000D01*
X88265000Y-69850000D02*
X88265000Y-82550000D01*
X76200000Y-69850000D02*
X88265000Y-69850000D01*
D12*
X208993619Y-92014523D02*
X209598380Y-92014523D01*
X209658857Y-92619285D01*
X209598380Y-92558809D01*
X209477428Y-92498333D01*
X209175047Y-92498333D01*
X209054095Y-92558809D01*
X208993619Y-92619285D01*
X208933142Y-92740238D01*
X208933142Y-93042619D01*
X208993619Y-93163571D01*
X209054095Y-93224047D01*
X209175047Y-93284523D01*
X209477428Y-93284523D01*
X209598380Y-93224047D01*
X209658857Y-93163571D01*
X209054095Y-89474523D02*
X209296000Y-89474523D01*
X209416952Y-89535000D01*
X209477428Y-89595476D01*
X209598380Y-89776904D01*
X209658857Y-90018809D01*
X209658857Y-90502619D01*
X209598380Y-90623571D01*
X209537904Y-90684047D01*
X209416952Y-90744523D01*
X209175047Y-90744523D01*
X209054095Y-90684047D01*
X208993619Y-90623571D01*
X208933142Y-90502619D01*
X208933142Y-90200238D01*
X208993619Y-90079285D01*
X209054095Y-90018809D01*
X209175047Y-89958333D01*
X209416952Y-89958333D01*
X209537904Y-90018809D01*
X209598380Y-90079285D01*
X209658857Y-90200238D01*
X208340476Y-88658095D02*
X208340476Y-87932380D01*
X207070476Y-88295238D02*
X208340476Y-88295238D01*
X207735714Y-87509047D02*
X207735714Y-87085714D01*
X207070476Y-86904285D02*
X207070476Y-87509047D01*
X208340476Y-87509047D01*
X208340476Y-86904285D01*
X207070476Y-85634285D02*
X207675238Y-86057619D01*
X207070476Y-86360000D02*
X208340476Y-86360000D01*
X208340476Y-85876190D01*
X208280000Y-85755238D01*
X208219523Y-85694761D01*
X208098571Y-85634285D01*
X207917142Y-85634285D01*
X207796190Y-85694761D01*
X207735714Y-85755238D01*
X207675238Y-85876190D01*
X207675238Y-86360000D01*
X207070476Y-85090000D02*
X208340476Y-85090000D01*
X207433333Y-84666666D01*
X208340476Y-84243333D01*
X207070476Y-84243333D01*
X204530476Y-88561333D02*
X205800476Y-88561333D01*
X205800476Y-88077523D01*
X205740000Y-87956571D01*
X205679523Y-87896095D01*
X205558571Y-87835619D01*
X205377142Y-87835619D01*
X205256190Y-87896095D01*
X205195714Y-87956571D01*
X205135238Y-88077523D01*
X205135238Y-88561333D01*
X205800476Y-87291333D02*
X204772380Y-87291333D01*
X204651428Y-87230857D01*
X204590952Y-87170380D01*
X204530476Y-87049428D01*
X204530476Y-86807523D01*
X204590952Y-86686571D01*
X204651428Y-86626095D01*
X204772380Y-86565619D01*
X205800476Y-86565619D01*
X205014285Y-85960857D02*
X205014285Y-84993238D01*
X204893333Y-84448952D02*
X204893333Y-83844190D01*
X204530476Y-84569904D02*
X205800476Y-84146571D01*
X204530476Y-83723238D01*
X201990476Y-88621809D02*
X203260476Y-88621809D01*
X203260476Y-88138000D01*
X203200000Y-88017047D01*
X203139523Y-87956571D01*
X203018571Y-87896095D01*
X202837142Y-87896095D01*
X202716190Y-87956571D01*
X202655714Y-88017047D01*
X202595238Y-88138000D01*
X202595238Y-88621809D01*
X201990476Y-87351809D02*
X203260476Y-87351809D01*
X203260476Y-87049428D01*
X203200000Y-86868000D01*
X203079047Y-86747047D01*
X202958095Y-86686571D01*
X202716190Y-86626095D01*
X202534761Y-86626095D01*
X202292857Y-86686571D01*
X202171904Y-86747047D01*
X202050952Y-86868000D01*
X201990476Y-87049428D01*
X201990476Y-87351809D01*
X202474285Y-86081809D02*
X202474285Y-85114190D01*
X202655714Y-84086095D02*
X202595238Y-83904666D01*
X202534761Y-83844190D01*
X202413809Y-83783714D01*
X202232380Y-83783714D01*
X202111428Y-83844190D01*
X202050952Y-83904666D01*
X201990476Y-84025619D01*
X201990476Y-84509428D01*
X203260476Y-84509428D01*
X203260476Y-84086095D01*
X203200000Y-83965142D01*
X203139523Y-83904666D01*
X203018571Y-83844190D01*
X202897619Y-83844190D01*
X202776666Y-83904666D01*
X202716190Y-83965142D01*
X202655714Y-84086095D01*
X202655714Y-84509428D01*
X201022857Y-89595476D02*
X200962380Y-89535000D01*
X200841428Y-89474523D01*
X200539047Y-89474523D01*
X200418095Y-89535000D01*
X200357619Y-89595476D01*
X200297142Y-89716428D01*
X200297142Y-89837380D01*
X200357619Y-90018809D01*
X201083333Y-90744523D01*
X200297142Y-90744523D01*
X200297142Y-93284523D02*
X201022857Y-93284523D01*
X200660000Y-93284523D02*
X200660000Y-92014523D01*
X200780952Y-92195952D01*
X200901904Y-92316904D01*
X201022857Y-92377380D01*
X191195476Y-87877952D02*
X191800238Y-88301285D01*
X191195476Y-88603666D02*
X192465476Y-88603666D01*
X192465476Y-88119857D01*
X192405000Y-87998904D01*
X192344523Y-87938428D01*
X192223571Y-87877952D01*
X192042142Y-87877952D01*
X191921190Y-87938428D01*
X191860714Y-87998904D01*
X191800238Y-88119857D01*
X191800238Y-88603666D01*
X191195476Y-87454619D02*
X192042142Y-86789380D01*
X192042142Y-87454619D02*
X191195476Y-86789380D01*
X191195476Y-86305571D02*
X192465476Y-86305571D01*
X192465476Y-86003190D01*
X192405000Y-85821761D01*
X192284047Y-85700809D01*
X192163095Y-85640333D01*
X191921190Y-85579857D01*
X191739761Y-85579857D01*
X191497857Y-85640333D01*
X191376904Y-85700809D01*
X191255952Y-85821761D01*
X191195476Y-86003190D01*
X191195476Y-86305571D01*
D10*
X188516380Y-87980761D02*
X189000190Y-88319428D01*
X188516380Y-88561333D02*
X189532380Y-88561333D01*
X189532380Y-88174285D01*
X189484000Y-88077523D01*
X189435619Y-88029142D01*
X189338857Y-87980761D01*
X189193714Y-87980761D01*
X189096952Y-88029142D01*
X189048571Y-88077523D01*
X189000190Y-88174285D01*
X189000190Y-88561333D01*
X188564761Y-87593714D02*
X188516380Y-87448571D01*
X188516380Y-87206666D01*
X188564761Y-87109904D01*
X188613142Y-87061523D01*
X188709904Y-87013142D01*
X188806666Y-87013142D01*
X188903428Y-87061523D01*
X188951809Y-87109904D01*
X189000190Y-87206666D01*
X189048571Y-87400190D01*
X189096952Y-87496952D01*
X189145333Y-87545333D01*
X189242095Y-87593714D01*
X189338857Y-87593714D01*
X189435619Y-87545333D01*
X189484000Y-87496952D01*
X189532380Y-87400190D01*
X189532380Y-87158285D01*
X189484000Y-87013142D01*
X189435619Y-86626095D02*
X189484000Y-86577714D01*
X189532380Y-86480952D01*
X189532380Y-86239047D01*
X189484000Y-86142285D01*
X189435619Y-86093904D01*
X189338857Y-86045523D01*
X189242095Y-86045523D01*
X189096952Y-86093904D01*
X188516380Y-86674476D01*
X188516380Y-86045523D01*
X189532380Y-85706857D02*
X189532380Y-85077904D01*
X189145333Y-85416571D01*
X189145333Y-85271428D01*
X189096952Y-85174666D01*
X189048571Y-85126285D01*
X188951809Y-85077904D01*
X188709904Y-85077904D01*
X188613142Y-85126285D01*
X188564761Y-85174666D01*
X188516380Y-85271428D01*
X188516380Y-85561714D01*
X188564761Y-85658476D01*
X188613142Y-85706857D01*
X189435619Y-84690857D02*
X189484000Y-84642476D01*
X189532380Y-84545714D01*
X189532380Y-84303809D01*
X189484000Y-84207047D01*
X189435619Y-84158666D01*
X189338857Y-84110285D01*
X189242095Y-84110285D01*
X189096952Y-84158666D01*
X188516380Y-84739238D01*
X188516380Y-84110285D01*
D12*
X159445476Y-88506904D02*
X159445476Y-87781190D01*
X158175476Y-88144047D02*
X159445476Y-88144047D01*
X158175476Y-87478809D02*
X159022142Y-86813571D01*
X159022142Y-87478809D02*
X158175476Y-86813571D01*
X158175476Y-86329761D02*
X159445476Y-86329761D01*
X159445476Y-86027380D01*
X159385000Y-85845952D01*
X159264047Y-85725000D01*
X159143095Y-85664523D01*
X158901190Y-85604047D01*
X158719761Y-85604047D01*
X158477857Y-85664523D01*
X158356904Y-85725000D01*
X158235952Y-85845952D01*
X158175476Y-86027380D01*
X158175476Y-86329761D01*
X164465000Y-87835619D02*
X164525476Y-87956571D01*
X164525476Y-88138000D01*
X164465000Y-88319428D01*
X164344047Y-88440380D01*
X164223095Y-88500857D01*
X163981190Y-88561333D01*
X163799761Y-88561333D01*
X163557857Y-88500857D01*
X163436904Y-88440380D01*
X163315952Y-88319428D01*
X163255476Y-88138000D01*
X163255476Y-88017047D01*
X163315952Y-87835619D01*
X163376428Y-87775142D01*
X163799761Y-87775142D01*
X163799761Y-88017047D01*
X163255476Y-87230857D02*
X164525476Y-87230857D01*
X163255476Y-86505142D01*
X164525476Y-86505142D01*
X163255476Y-85900380D02*
X164525476Y-85900380D01*
X164525476Y-85598000D01*
X164465000Y-85416571D01*
X164344047Y-85295619D01*
X164223095Y-85235142D01*
X163981190Y-85174666D01*
X163799761Y-85174666D01*
X163557857Y-85235142D01*
X163436904Y-85295619D01*
X163315952Y-85416571D01*
X163255476Y-85598000D01*
X163255476Y-85900380D01*
X160715476Y-87750952D02*
X161320238Y-88174285D01*
X160715476Y-88476666D02*
X161985476Y-88476666D01*
X161985476Y-87992857D01*
X161925000Y-87871904D01*
X161864523Y-87811428D01*
X161743571Y-87750952D01*
X161562142Y-87750952D01*
X161441190Y-87811428D01*
X161380714Y-87871904D01*
X161320238Y-87992857D01*
X161320238Y-88476666D01*
X160715476Y-87327619D02*
X161562142Y-86662380D01*
X161562142Y-87327619D02*
X160715476Y-86662380D01*
X160715476Y-86178571D02*
X161985476Y-86178571D01*
X161985476Y-85876190D01*
X161925000Y-85694761D01*
X161804047Y-85573809D01*
X161683095Y-85513333D01*
X161441190Y-85452857D01*
X161259761Y-85452857D01*
X161017857Y-85513333D01*
X160896904Y-85573809D01*
X160775952Y-85694761D01*
X160715476Y-85876190D01*
X160715476Y-86178571D01*
X150555476Y-87750952D02*
X151160238Y-88174285D01*
X150555476Y-88476666D02*
X151825476Y-88476666D01*
X151825476Y-87992857D01*
X151765000Y-87871904D01*
X151704523Y-87811428D01*
X151583571Y-87750952D01*
X151402142Y-87750952D01*
X151281190Y-87811428D01*
X151220714Y-87871904D01*
X151160238Y-87992857D01*
X151160238Y-88476666D01*
X150555476Y-87327619D02*
X151402142Y-86662380D01*
X151402142Y-87327619D02*
X150555476Y-86662380D01*
X150555476Y-86178571D02*
X151825476Y-86178571D01*
X151825476Y-85876190D01*
X151765000Y-85694761D01*
X151644047Y-85573809D01*
X151523095Y-85513333D01*
X151281190Y-85452857D01*
X151099761Y-85452857D01*
X150857857Y-85513333D01*
X150736904Y-85573809D01*
X150615952Y-85694761D01*
X150555476Y-85876190D01*
X150555476Y-86178571D01*
X149285476Y-88506904D02*
X149285476Y-87781190D01*
X148015476Y-88144047D02*
X149285476Y-88144047D01*
X148015476Y-87478809D02*
X148862142Y-86813571D01*
X148862142Y-87478809D02*
X148015476Y-86813571D01*
X148015476Y-86329761D02*
X149285476Y-86329761D01*
X149285476Y-86027380D01*
X149225000Y-85845952D01*
X149104047Y-85725000D01*
X148983095Y-85664523D01*
X148741190Y-85604047D01*
X148559761Y-85604047D01*
X148317857Y-85664523D01*
X148196904Y-85725000D01*
X148075952Y-85845952D01*
X148015476Y-86027380D01*
X148015476Y-86329761D01*
X154305000Y-87835619D02*
X154365476Y-87956571D01*
X154365476Y-88138000D01*
X154305000Y-88319428D01*
X154184047Y-88440380D01*
X154063095Y-88500857D01*
X153821190Y-88561333D01*
X153639761Y-88561333D01*
X153397857Y-88500857D01*
X153276904Y-88440380D01*
X153155952Y-88319428D01*
X153095476Y-88138000D01*
X153095476Y-88017047D01*
X153155952Y-87835619D01*
X153216428Y-87775142D01*
X153639761Y-87775142D01*
X153639761Y-88017047D01*
X153095476Y-87230857D02*
X154365476Y-87230857D01*
X153095476Y-86505142D01*
X154365476Y-86505142D01*
X153095476Y-85900380D02*
X154365476Y-85900380D01*
X154365476Y-85598000D01*
X154305000Y-85416571D01*
X154184047Y-85295619D01*
X154063095Y-85235142D01*
X153821190Y-85174666D01*
X153639761Y-85174666D01*
X153397857Y-85235142D01*
X153276904Y-85295619D01*
X153155952Y-85416571D01*
X153095476Y-85598000D01*
X153095476Y-85900380D01*
X144145000Y-87835619D02*
X144205476Y-87956571D01*
X144205476Y-88138000D01*
X144145000Y-88319428D01*
X144024047Y-88440380D01*
X143903095Y-88500857D01*
X143661190Y-88561333D01*
X143479761Y-88561333D01*
X143237857Y-88500857D01*
X143116904Y-88440380D01*
X142995952Y-88319428D01*
X142935476Y-88138000D01*
X142935476Y-88017047D01*
X142995952Y-87835619D01*
X143056428Y-87775142D01*
X143479761Y-87775142D01*
X143479761Y-88017047D01*
X142935476Y-87230857D02*
X144205476Y-87230857D01*
X142935476Y-86505142D01*
X144205476Y-86505142D01*
X142935476Y-85900380D02*
X144205476Y-85900380D01*
X144205476Y-85598000D01*
X144145000Y-85416571D01*
X144024047Y-85295619D01*
X143903095Y-85235142D01*
X143661190Y-85174666D01*
X143479761Y-85174666D01*
X143237857Y-85235142D01*
X143116904Y-85295619D01*
X142995952Y-85416571D01*
X142935476Y-85598000D01*
X142935476Y-85900380D01*
X140395476Y-87750952D02*
X141000238Y-88174285D01*
X140395476Y-88476666D02*
X141665476Y-88476666D01*
X141665476Y-87992857D01*
X141605000Y-87871904D01*
X141544523Y-87811428D01*
X141423571Y-87750952D01*
X141242142Y-87750952D01*
X141121190Y-87811428D01*
X141060714Y-87871904D01*
X141000238Y-87992857D01*
X141000238Y-88476666D01*
X140395476Y-87327619D02*
X141242142Y-86662380D01*
X141242142Y-87327619D02*
X140395476Y-86662380D01*
X140395476Y-86178571D02*
X141665476Y-86178571D01*
X141665476Y-85876190D01*
X141605000Y-85694761D01*
X141484047Y-85573809D01*
X141363095Y-85513333D01*
X141121190Y-85452857D01*
X140939761Y-85452857D01*
X140697857Y-85513333D01*
X140576904Y-85573809D01*
X140455952Y-85694761D01*
X140395476Y-85876190D01*
X140395476Y-86178571D01*
X139125476Y-88506904D02*
X139125476Y-87781190D01*
X137855476Y-88144047D02*
X139125476Y-88144047D01*
X137855476Y-87478809D02*
X138702142Y-86813571D01*
X138702142Y-87478809D02*
X137855476Y-86813571D01*
X137855476Y-86329761D02*
X139125476Y-86329761D01*
X139125476Y-86027380D01*
X139065000Y-85845952D01*
X138944047Y-85725000D01*
X138823095Y-85664523D01*
X138581190Y-85604047D01*
X138399761Y-85604047D01*
X138157857Y-85664523D01*
X138036904Y-85725000D01*
X137915952Y-85845952D01*
X137855476Y-86027380D01*
X137855476Y-86329761D01*
X133985000Y-87835619D02*
X134045476Y-87956571D01*
X134045476Y-88138000D01*
X133985000Y-88319428D01*
X133864047Y-88440380D01*
X133743095Y-88500857D01*
X133501190Y-88561333D01*
X133319761Y-88561333D01*
X133077857Y-88500857D01*
X132956904Y-88440380D01*
X132835952Y-88319428D01*
X132775476Y-88138000D01*
X132775476Y-88017047D01*
X132835952Y-87835619D01*
X132896428Y-87775142D01*
X133319761Y-87775142D01*
X133319761Y-88017047D01*
X132775476Y-87230857D02*
X134045476Y-87230857D01*
X132775476Y-86505142D01*
X134045476Y-86505142D01*
X132775476Y-85900380D02*
X134045476Y-85900380D01*
X134045476Y-85598000D01*
X133985000Y-85416571D01*
X133864047Y-85295619D01*
X133743095Y-85235142D01*
X133501190Y-85174666D01*
X133319761Y-85174666D01*
X133077857Y-85235142D01*
X132956904Y-85295619D01*
X132835952Y-85416571D01*
X132775476Y-85598000D01*
X132775476Y-85900380D01*
X130235476Y-87750952D02*
X130840238Y-88174285D01*
X130235476Y-88476666D02*
X131505476Y-88476666D01*
X131505476Y-87992857D01*
X131445000Y-87871904D01*
X131384523Y-87811428D01*
X131263571Y-87750952D01*
X131082142Y-87750952D01*
X130961190Y-87811428D01*
X130900714Y-87871904D01*
X130840238Y-87992857D01*
X130840238Y-88476666D01*
X130235476Y-87327619D02*
X131082142Y-86662380D01*
X131082142Y-87327619D02*
X130235476Y-86662380D01*
X130235476Y-86178571D02*
X131505476Y-86178571D01*
X131505476Y-85876190D01*
X131445000Y-85694761D01*
X131324047Y-85573809D01*
X131203095Y-85513333D01*
X130961190Y-85452857D01*
X130779761Y-85452857D01*
X130537857Y-85513333D01*
X130416904Y-85573809D01*
X130295952Y-85694761D01*
X130235476Y-85876190D01*
X130235476Y-86178571D01*
X128965476Y-88506904D02*
X128965476Y-87781190D01*
X127695476Y-88144047D02*
X128965476Y-88144047D01*
X127695476Y-87478809D02*
X128542142Y-86813571D01*
X128542142Y-87478809D02*
X127695476Y-86813571D01*
X127695476Y-86329761D02*
X128965476Y-86329761D01*
X128965476Y-86027380D01*
X128905000Y-85845952D01*
X128784047Y-85725000D01*
X128663095Y-85664523D01*
X128421190Y-85604047D01*
X128239761Y-85604047D01*
X127997857Y-85664523D01*
X127876904Y-85725000D01*
X127755952Y-85845952D01*
X127695476Y-86027380D01*
X127695476Y-86329761D01*
X109915476Y-91282761D02*
X111185476Y-91282761D01*
X109975952Y-90738476D02*
X109915476Y-90557047D01*
X109915476Y-90254666D01*
X109975952Y-90133714D01*
X110036428Y-90073238D01*
X110157380Y-90012761D01*
X110278333Y-90012761D01*
X110399285Y-90073238D01*
X110459761Y-90133714D01*
X110520238Y-90254666D01*
X110580714Y-90496571D01*
X110641190Y-90617523D01*
X110701666Y-90678000D01*
X110822619Y-90738476D01*
X110943571Y-90738476D01*
X111064523Y-90678000D01*
X111125000Y-90617523D01*
X111185476Y-90496571D01*
X111185476Y-90194190D01*
X111125000Y-90012761D01*
X109915476Y-89468476D02*
X111185476Y-89468476D01*
X111185476Y-88984666D01*
X111125000Y-88863714D01*
X111064523Y-88803238D01*
X110943571Y-88742761D01*
X110762142Y-88742761D01*
X110641190Y-88803238D01*
X110580714Y-88863714D01*
X110520238Y-88984666D01*
X110520238Y-89468476D01*
X107375476Y-91282761D02*
X108645476Y-91282761D01*
X107435952Y-90738476D02*
X107375476Y-90557047D01*
X107375476Y-90254666D01*
X107435952Y-90133714D01*
X107496428Y-90073238D01*
X107617380Y-90012761D01*
X107738333Y-90012761D01*
X107859285Y-90073238D01*
X107919761Y-90133714D01*
X107980238Y-90254666D01*
X108040714Y-90496571D01*
X108101190Y-90617523D01*
X108161666Y-90678000D01*
X108282619Y-90738476D01*
X108403571Y-90738476D01*
X108524523Y-90678000D01*
X108585000Y-90617523D01*
X108645476Y-90496571D01*
X108645476Y-90194190D01*
X108585000Y-90012761D01*
X107375476Y-89468476D02*
X108645476Y-89468476D01*
X108645476Y-88984666D01*
X108585000Y-88863714D01*
X108524523Y-88803238D01*
X108403571Y-88742761D01*
X108222142Y-88742761D01*
X108101190Y-88803238D01*
X108040714Y-88863714D01*
X107980238Y-88984666D01*
X107980238Y-89468476D01*
X103118090Y-88641380D02*
X102433880Y-87957170D01*
X102433880Y-88641380D02*
X103118090Y-87957170D01*
X102647696Y-87059144D02*
X102091775Y-86503224D01*
X102049012Y-87144670D01*
X101920723Y-87016381D01*
X101792434Y-86973618D01*
X101706907Y-86973618D01*
X101578618Y-87016381D01*
X101364802Y-87230197D01*
X101322039Y-87358486D01*
X101322039Y-87444012D01*
X101364802Y-87572302D01*
X101621381Y-87828880D01*
X101749670Y-87871644D01*
X101835197Y-87871644D01*
X101835197Y-86246645D02*
X100637829Y-86845329D01*
X101236513Y-85647961D01*
X101022697Y-85434145D02*
X100466777Y-84878225D01*
X100424014Y-85519672D01*
X100295724Y-85391382D01*
X100167435Y-85348619D01*
X100081909Y-85348619D01*
X99953619Y-85391382D01*
X99739804Y-85605198D01*
X99697040Y-85733487D01*
X99697040Y-85819014D01*
X99739804Y-85947303D01*
X99996382Y-86203882D01*
X100124672Y-86246645D01*
X100210198Y-86246645D01*
X106045000Y-90502619D02*
X106105476Y-90623571D01*
X106105476Y-90805000D01*
X106045000Y-90986428D01*
X105924047Y-91107380D01*
X105803095Y-91167857D01*
X105561190Y-91228333D01*
X105379761Y-91228333D01*
X105137857Y-91167857D01*
X105016904Y-91107380D01*
X104895952Y-90986428D01*
X104835476Y-90805000D01*
X104835476Y-90684047D01*
X104895952Y-90502619D01*
X104956428Y-90442142D01*
X105379761Y-90442142D01*
X105379761Y-90684047D01*
X104835476Y-89897857D02*
X106105476Y-89897857D01*
X104835476Y-89172142D01*
X106105476Y-89172142D01*
X104835476Y-88567380D02*
X106105476Y-88567380D01*
X106105476Y-88265000D01*
X106045000Y-88083571D01*
X105924047Y-87962619D01*
X105803095Y-87902142D01*
X105561190Y-87841666D01*
X105379761Y-87841666D01*
X105137857Y-87902142D01*
X105016904Y-87962619D01*
X104895952Y-88083571D01*
X104835476Y-88265000D01*
X104835476Y-88567380D01*
X101346000Y-92661619D02*
X101406476Y-92782571D01*
X101406476Y-92964000D01*
X101346000Y-93145428D01*
X101225047Y-93266380D01*
X101104095Y-93326857D01*
X100862190Y-93387333D01*
X100680761Y-93387333D01*
X100438857Y-93326857D01*
X100317904Y-93266380D01*
X100196952Y-93145428D01*
X100136476Y-92964000D01*
X100136476Y-92843047D01*
X100196952Y-92661619D01*
X100257428Y-92601142D01*
X100680761Y-92601142D01*
X100680761Y-92843047D01*
X100136476Y-92056857D02*
X101406476Y-92056857D01*
X100136476Y-91331142D01*
X101406476Y-91331142D01*
X100136476Y-90726380D02*
X101406476Y-90726380D01*
X101406476Y-90424000D01*
X101346000Y-90242571D01*
X101225047Y-90121619D01*
X101104095Y-90061142D01*
X100862190Y-90000666D01*
X100680761Y-90000666D01*
X100438857Y-90061142D01*
X100317904Y-90121619D01*
X100196952Y-90242571D01*
X100136476Y-90424000D01*
X100136476Y-90726380D01*
D10*
X87557428Y-91355333D02*
X87557428Y-90581238D01*
X87170380Y-90968285D02*
X87944476Y-90968285D01*
X88186380Y-89613619D02*
X88186380Y-90097428D01*
X87702571Y-90145809D01*
X87750952Y-90097428D01*
X87799333Y-90000666D01*
X87799333Y-89758761D01*
X87750952Y-89662000D01*
X87702571Y-89613619D01*
X87605809Y-89565238D01*
X87363904Y-89565238D01*
X87267142Y-89613619D01*
X87218761Y-89662000D01*
X87170380Y-89758761D01*
X87170380Y-90000666D01*
X87218761Y-90097428D01*
X87267142Y-90145809D01*
X88186380Y-89274952D02*
X87170380Y-88936285D01*
X88186380Y-88597619D01*
X87073619Y-88500857D02*
X87073619Y-87726761D01*
X88186380Y-87484857D02*
X87363904Y-87484857D01*
X87267142Y-87436476D01*
X87218761Y-87388095D01*
X87170380Y-87291333D01*
X87170380Y-87097809D01*
X87218761Y-87001047D01*
X87267142Y-86952666D01*
X87363904Y-86904285D01*
X88186380Y-86904285D01*
X87218761Y-86468857D02*
X87170380Y-86323714D01*
X87170380Y-86081809D01*
X87218761Y-85985047D01*
X87267142Y-85936666D01*
X87363904Y-85888285D01*
X87460666Y-85888285D01*
X87557428Y-85936666D01*
X87605809Y-85985047D01*
X87654190Y-86081809D01*
X87702571Y-86275333D01*
X87750952Y-86372095D01*
X87799333Y-86420476D01*
X87896095Y-86468857D01*
X87992857Y-86468857D01*
X88089619Y-86420476D01*
X88138000Y-86372095D01*
X88186380Y-86275333D01*
X88186380Y-86033428D01*
X88138000Y-85888285D01*
X87702571Y-85114190D02*
X87654190Y-84969047D01*
X87605809Y-84920666D01*
X87509047Y-84872285D01*
X87363904Y-84872285D01*
X87267142Y-84920666D01*
X87218761Y-84969047D01*
X87170380Y-85065809D01*
X87170380Y-85452857D01*
X88186380Y-85452857D01*
X88186380Y-85114190D01*
X88138000Y-85017428D01*
X88089619Y-84969047D01*
X87992857Y-84920666D01*
X87896095Y-84920666D01*
X87799333Y-84969047D01*
X87750952Y-85017428D01*
X87702571Y-85114190D01*
X87702571Y-85452857D01*
X83820000Y-92722095D02*
X83868380Y-92818857D01*
X83868380Y-92964000D01*
X83820000Y-93109142D01*
X83723238Y-93205904D01*
X83626476Y-93254285D01*
X83432952Y-93302666D01*
X83287809Y-93302666D01*
X83094285Y-93254285D01*
X82997523Y-93205904D01*
X82900761Y-93109142D01*
X82852380Y-92964000D01*
X82852380Y-92867238D01*
X82900761Y-92722095D01*
X82949142Y-92673714D01*
X83287809Y-92673714D01*
X83287809Y-92867238D01*
X82852380Y-92238285D02*
X83868380Y-92238285D01*
X82852380Y-91657714D01*
X83868380Y-91657714D01*
X82852380Y-91173904D02*
X83868380Y-91173904D01*
X83868380Y-90932000D01*
X83820000Y-90786857D01*
X83723238Y-90690095D01*
X83626476Y-90641714D01*
X83432952Y-90593333D01*
X83287809Y-90593333D01*
X83094285Y-90641714D01*
X82997523Y-90690095D01*
X82900761Y-90786857D01*
X82852380Y-90932000D01*
X82852380Y-91173904D01*
D15*
X83175928Y-88319428D02*
X83720214Y-88700428D01*
X83175928Y-88972571D02*
X84318928Y-88972571D01*
X84318928Y-88537142D01*
X84264500Y-88428285D01*
X84210071Y-88373857D01*
X84101214Y-88319428D01*
X83937928Y-88319428D01*
X83829071Y-88373857D01*
X83774642Y-88428285D01*
X83720214Y-88537142D01*
X83720214Y-88972571D01*
X83230357Y-87884000D02*
X83175928Y-87720714D01*
X83175928Y-87448571D01*
X83230357Y-87339714D01*
X83284785Y-87285285D01*
X83393642Y-87230857D01*
X83502500Y-87230857D01*
X83611357Y-87285285D01*
X83665785Y-87339714D01*
X83720214Y-87448571D01*
X83774642Y-87666285D01*
X83829071Y-87775142D01*
X83883500Y-87829571D01*
X83992357Y-87884000D01*
X84101214Y-87884000D01*
X84210071Y-87829571D01*
X84264500Y-87775142D01*
X84318928Y-87666285D01*
X84318928Y-87394142D01*
X84264500Y-87230857D01*
X84318928Y-86904285D02*
X84318928Y-86251142D01*
X83175928Y-86577714D02*
X84318928Y-86577714D01*
X83937928Y-85924571D02*
X83937928Y-85108142D01*
X84427785Y-85598000D02*
X82958214Y-85924571D01*
X83448071Y-85217000D02*
X83448071Y-86033428D01*
X82958214Y-85543571D02*
X84427785Y-85217000D01*
D16*
X87630000Y-74845333D02*
X87630000Y-76284666D01*
X87545333Y-76454000D01*
X87460666Y-76538666D01*
X87291333Y-76623333D01*
X86952666Y-76623333D01*
X86783333Y-76538666D01*
X86698666Y-76454000D01*
X86614000Y-76284666D01*
X86614000Y-74845333D01*
X85852000Y-76538666D02*
X85598000Y-76623333D01*
X85174666Y-76623333D01*
X85005333Y-76538666D01*
X84920666Y-76454000D01*
X84836000Y-76284666D01*
X84836000Y-76115333D01*
X84920666Y-75946000D01*
X85005333Y-75861333D01*
X85174666Y-75776666D01*
X85513333Y-75692000D01*
X85682666Y-75607333D01*
X85767333Y-75522666D01*
X85852000Y-75353333D01*
X85852000Y-75184000D01*
X85767333Y-75014666D01*
X85682666Y-74930000D01*
X85513333Y-74845333D01*
X85090000Y-74845333D01*
X84836000Y-74930000D01*
X83481333Y-75692000D02*
X83227333Y-75776666D01*
X83142666Y-75861333D01*
X83058000Y-76030666D01*
X83058000Y-76284666D01*
X83142666Y-76454000D01*
X83227333Y-76538666D01*
X83396666Y-76623333D01*
X84074000Y-76623333D01*
X84074000Y-74845333D01*
X83481333Y-74845333D01*
X83312000Y-74930000D01*
X83227333Y-75014666D01*
X83142666Y-75184000D01*
X83142666Y-75353333D01*
X83227333Y-75522666D01*
X83312000Y-75607333D01*
X83481333Y-75692000D01*
X84074000Y-75692000D01*
X82296000Y-75946000D02*
X80941333Y-75946000D01*
X79078666Y-76454000D02*
X79163333Y-76538666D01*
X79417333Y-76623333D01*
X79586666Y-76623333D01*
X79840666Y-76538666D01*
X80010000Y-76369333D01*
X80094666Y-76200000D01*
X80179333Y-75861333D01*
X80179333Y-75607333D01*
X80094666Y-75268666D01*
X80010000Y-75099333D01*
X79840666Y-74930000D01*
X79586666Y-74845333D01*
X79417333Y-74845333D01*
X79163333Y-74930000D01*
X79078666Y-75014666D01*
X77385333Y-76623333D02*
X78401333Y-76623333D01*
X77893333Y-76623333D02*
X77893333Y-74845333D01*
X78062666Y-75099333D01*
X78232000Y-75268666D01*
X78401333Y-75353333D01*
D17*
X220548200Y-81716638D02*
X220869933Y-81257019D01*
X221099742Y-81716638D02*
X221099742Y-80751438D01*
X220732047Y-80751438D01*
X220640123Y-80797400D01*
X220594161Y-80843361D01*
X220548200Y-80935285D01*
X220548200Y-81073171D01*
X220594161Y-81165095D01*
X220640123Y-81211057D01*
X220732047Y-81257019D01*
X221099742Y-81257019D01*
X220180504Y-81670676D02*
X220042619Y-81716638D01*
X219812809Y-81716638D01*
X219720885Y-81670676D01*
X219674923Y-81624714D01*
X219628961Y-81532790D01*
X219628961Y-81440866D01*
X219674923Y-81348942D01*
X219720885Y-81302980D01*
X219812809Y-81257019D01*
X219996657Y-81211057D01*
X220088580Y-81165095D01*
X220134542Y-81119133D01*
X220180504Y-81027209D01*
X220180504Y-80935285D01*
X220134542Y-80843361D01*
X220088580Y-80797400D01*
X219996657Y-80751438D01*
X219766847Y-80751438D01*
X219628961Y-80797400D01*
X218801647Y-81073171D02*
X218801647Y-81716638D01*
X219031457Y-80705476D02*
X219261266Y-81394904D01*
X218663761Y-81394904D01*
X218158180Y-81165095D02*
X218250104Y-81119133D01*
X218296066Y-81073171D01*
X218342028Y-80981247D01*
X218342028Y-80935285D01*
X218296066Y-80843361D01*
X218250104Y-80797400D01*
X218158180Y-80751438D01*
X217974333Y-80751438D01*
X217882409Y-80797400D01*
X217836447Y-80843361D01*
X217790485Y-80935285D01*
X217790485Y-80981247D01*
X217836447Y-81073171D01*
X217882409Y-81119133D01*
X217974333Y-81165095D01*
X218158180Y-81165095D01*
X218250104Y-81211057D01*
X218296066Y-81257019D01*
X218342028Y-81348942D01*
X218342028Y-81532790D01*
X218296066Y-81624714D01*
X218250104Y-81670676D01*
X218158180Y-81716638D01*
X217974333Y-81716638D01*
X217882409Y-81670676D01*
X217836447Y-81624714D01*
X217790485Y-81532790D01*
X217790485Y-81348942D01*
X217836447Y-81257019D01*
X217882409Y-81211057D01*
X217974333Y-81165095D01*
X216917209Y-80751438D02*
X217376828Y-80751438D01*
X217422790Y-81211057D01*
X217376828Y-81165095D01*
X217284904Y-81119133D01*
X217055095Y-81119133D01*
X216963171Y-81165095D01*
X216917209Y-81211057D01*
X216871247Y-81302980D01*
X216871247Y-81532790D01*
X216917209Y-81624714D01*
X216963171Y-81670676D01*
X217055095Y-81716638D01*
X217284904Y-81716638D01*
X217376828Y-81670676D01*
X217422790Y-81624714D01*
X216687400Y-81808561D02*
X215952009Y-81808561D01*
X215216619Y-80797400D02*
X215308542Y-80751438D01*
X215446428Y-80751438D01*
X215584314Y-80797400D01*
X215676238Y-80889323D01*
X215722200Y-80981247D01*
X215768161Y-81165095D01*
X215768161Y-81302980D01*
X215722200Y-81486828D01*
X215676238Y-81578752D01*
X215584314Y-81670676D01*
X215446428Y-81716638D01*
X215354504Y-81716638D01*
X215216619Y-81670676D01*
X215170657Y-81624714D01*
X215170657Y-81302980D01*
X215354504Y-81302980D01*
X214757000Y-81716638D02*
X214757000Y-80751438D01*
X214205457Y-81716638D01*
X214205457Y-80751438D01*
X213745838Y-81716638D02*
X213745838Y-80751438D01*
X213516028Y-80751438D01*
X213378142Y-80797400D01*
X213286219Y-80889323D01*
X213240257Y-80981247D01*
X213194295Y-81165095D01*
X213194295Y-81302980D01*
X213240257Y-81486828D01*
X213286219Y-81578752D01*
X213378142Y-81670676D01*
X213516028Y-81716638D01*
X213745838Y-81716638D01*
D18*
X220351047Y-77155523D02*
X220774380Y-76550761D01*
X221076761Y-77155523D02*
X221076761Y-75885523D01*
X220592952Y-75885523D01*
X220472000Y-75946000D01*
X220411523Y-76006476D01*
X220351047Y-76127428D01*
X220351047Y-76308857D01*
X220411523Y-76429809D01*
X220472000Y-76490285D01*
X220592952Y-76550761D01*
X221076761Y-76550761D01*
X219867238Y-77095047D02*
X219685809Y-77155523D01*
X219383428Y-77155523D01*
X219262476Y-77095047D01*
X219202000Y-77034571D01*
X219141523Y-76913619D01*
X219141523Y-76792666D01*
X219202000Y-76671714D01*
X219262476Y-76611238D01*
X219383428Y-76550761D01*
X219625333Y-76490285D01*
X219746285Y-76429809D01*
X219806761Y-76369333D01*
X219867238Y-76248380D01*
X219867238Y-76127428D01*
X219806761Y-76006476D01*
X219746285Y-75946000D01*
X219625333Y-75885523D01*
X219322952Y-75885523D01*
X219141523Y-75946000D01*
X218052952Y-76308857D02*
X218052952Y-77155523D01*
X218355333Y-75825047D02*
X218657714Y-76732190D01*
X217871523Y-76732190D01*
X217206285Y-76429809D02*
X217327238Y-76369333D01*
X217387714Y-76308857D01*
X217448190Y-76187904D01*
X217448190Y-76127428D01*
X217387714Y-76006476D01*
X217327238Y-75946000D01*
X217206285Y-75885523D01*
X216964380Y-75885523D01*
X216843428Y-75946000D01*
X216782952Y-76006476D01*
X216722476Y-76127428D01*
X216722476Y-76187904D01*
X216782952Y-76308857D01*
X216843428Y-76369333D01*
X216964380Y-76429809D01*
X217206285Y-76429809D01*
X217327238Y-76490285D01*
X217387714Y-76550761D01*
X217448190Y-76671714D01*
X217448190Y-76913619D01*
X217387714Y-77034571D01*
X217327238Y-77095047D01*
X217206285Y-77155523D01*
X216964380Y-77155523D01*
X216843428Y-77095047D01*
X216782952Y-77034571D01*
X216722476Y-76913619D01*
X216722476Y-76671714D01*
X216782952Y-76550761D01*
X216843428Y-76490285D01*
X216964380Y-76429809D01*
X215573428Y-75885523D02*
X216178190Y-75885523D01*
X216238666Y-76490285D01*
X216178190Y-76429809D01*
X216057238Y-76369333D01*
X215754857Y-76369333D01*
X215633904Y-76429809D01*
X215573428Y-76490285D01*
X215512952Y-76611238D01*
X215512952Y-76913619D01*
X215573428Y-77034571D01*
X215633904Y-77095047D01*
X215754857Y-77155523D01*
X216057238Y-77155523D01*
X216178190Y-77095047D01*
X216238666Y-77034571D01*
X215271047Y-77276476D02*
X214303428Y-77276476D01*
X214061523Y-76792666D02*
X213456761Y-76792666D01*
X214182476Y-77155523D02*
X213759142Y-75885523D01*
X213335809Y-77155523D01*
X220314761Y-71821523D02*
X220738095Y-71216761D01*
X221040476Y-71821523D02*
X221040476Y-70551523D01*
X220556666Y-70551523D01*
X220435714Y-70612000D01*
X220375238Y-70672476D01*
X220314761Y-70793428D01*
X220314761Y-70974857D01*
X220375238Y-71095809D01*
X220435714Y-71156285D01*
X220556666Y-71216761D01*
X221040476Y-71216761D01*
X219830952Y-71761047D02*
X219649523Y-71821523D01*
X219347142Y-71821523D01*
X219226190Y-71761047D01*
X219165714Y-71700571D01*
X219105238Y-71579619D01*
X219105238Y-71458666D01*
X219165714Y-71337714D01*
X219226190Y-71277238D01*
X219347142Y-71216761D01*
X219589047Y-71156285D01*
X219710000Y-71095809D01*
X219770476Y-71035333D01*
X219830952Y-70914380D01*
X219830952Y-70793428D01*
X219770476Y-70672476D01*
X219710000Y-70612000D01*
X219589047Y-70551523D01*
X219286666Y-70551523D01*
X219105238Y-70612000D01*
X218016666Y-70974857D02*
X218016666Y-71821523D01*
X218319047Y-70491047D02*
X218621428Y-71398190D01*
X217835238Y-71398190D01*
X217170000Y-71095809D02*
X217290952Y-71035333D01*
X217351428Y-70974857D01*
X217411904Y-70853904D01*
X217411904Y-70793428D01*
X217351428Y-70672476D01*
X217290952Y-70612000D01*
X217170000Y-70551523D01*
X216928095Y-70551523D01*
X216807142Y-70612000D01*
X216746666Y-70672476D01*
X216686190Y-70793428D01*
X216686190Y-70853904D01*
X216746666Y-70974857D01*
X216807142Y-71035333D01*
X216928095Y-71095809D01*
X217170000Y-71095809D01*
X217290952Y-71156285D01*
X217351428Y-71216761D01*
X217411904Y-71337714D01*
X217411904Y-71579619D01*
X217351428Y-71700571D01*
X217290952Y-71761047D01*
X217170000Y-71821523D01*
X216928095Y-71821523D01*
X216807142Y-71761047D01*
X216746666Y-71700571D01*
X216686190Y-71579619D01*
X216686190Y-71337714D01*
X216746666Y-71216761D01*
X216807142Y-71156285D01*
X216928095Y-71095809D01*
X215537142Y-70551523D02*
X216141904Y-70551523D01*
X216202380Y-71156285D01*
X216141904Y-71095809D01*
X216020952Y-71035333D01*
X215718571Y-71035333D01*
X215597619Y-71095809D01*
X215537142Y-71156285D01*
X215476666Y-71277238D01*
X215476666Y-71579619D01*
X215537142Y-71700571D01*
X215597619Y-71761047D01*
X215718571Y-71821523D01*
X216020952Y-71821523D01*
X216141904Y-71761047D01*
X216202380Y-71700571D01*
X215234761Y-71942476D02*
X214267142Y-71942476D01*
X213541428Y-71156285D02*
X213360000Y-71216761D01*
X213299523Y-71277238D01*
X213239047Y-71398190D01*
X213239047Y-71579619D01*
X213299523Y-71700571D01*
X213360000Y-71761047D01*
X213480952Y-71821523D01*
X213964761Y-71821523D01*
X213964761Y-70551523D01*
X213541428Y-70551523D01*
X213420476Y-70612000D01*
X213360000Y-70672476D01*
X213299523Y-70793428D01*
X213299523Y-70914380D01*
X213360000Y-71035333D01*
X213420476Y-71095809D01*
X213541428Y-71156285D01*
X213964761Y-71156285D01*
D12*
X198742904Y-63185523D02*
X198501000Y-63185523D01*
X198380047Y-63125047D01*
X198319571Y-63064571D01*
X198198619Y-62883142D01*
X198138142Y-62641238D01*
X198138142Y-62157428D01*
X198198619Y-62036476D01*
X198259095Y-61976000D01*
X198380047Y-61915523D01*
X198621952Y-61915523D01*
X198742904Y-61976000D01*
X198803380Y-62036476D01*
X198863857Y-62157428D01*
X198863857Y-62459809D01*
X198803380Y-62580761D01*
X198742904Y-62641238D01*
X198621952Y-62701714D01*
X198380047Y-62701714D01*
X198259095Y-62641238D01*
X198198619Y-62580761D01*
X198138142Y-62459809D01*
X194896619Y-66614523D02*
X195501380Y-66614523D01*
X195561857Y-67219285D01*
X195501380Y-67158809D01*
X195380428Y-67098333D01*
X195078047Y-67098333D01*
X194957095Y-67158809D01*
X194896619Y-67219285D01*
X194836142Y-67340238D01*
X194836142Y-67642619D01*
X194896619Y-67763571D01*
X194957095Y-67824047D01*
X195078047Y-67884523D01*
X195380428Y-67884523D01*
X195501380Y-67824047D01*
X195561857Y-67763571D01*
X209441142Y-67757523D02*
X210166857Y-67757523D01*
X209804000Y-67757523D02*
X209804000Y-66487523D01*
X209924952Y-66668952D01*
X210045904Y-66789904D01*
X210166857Y-66850380D01*
X205721857Y-69021476D02*
X205661380Y-68961000D01*
X205540428Y-68900523D01*
X205238047Y-68900523D01*
X205117095Y-68961000D01*
X205056619Y-69021476D01*
X204996142Y-69142428D01*
X204996142Y-69263380D01*
X205056619Y-69444809D01*
X205782333Y-70170523D01*
X204996142Y-70170523D01*
X206417333Y-61002333D02*
X207010000Y-60155666D01*
X207433333Y-61002333D02*
X207433333Y-59224333D01*
X206756000Y-59224333D01*
X206586666Y-59309000D01*
X206502000Y-59393666D01*
X206417333Y-59563000D01*
X206417333Y-59817000D01*
X206502000Y-59986333D01*
X206586666Y-60071000D01*
X206756000Y-60155666D01*
X207433333Y-60155666D01*
X205740000Y-60917666D02*
X205486000Y-61002333D01*
X205062666Y-61002333D01*
X204893333Y-60917666D01*
X204808666Y-60833000D01*
X204724000Y-60663666D01*
X204724000Y-60494333D01*
X204808666Y-60325000D01*
X204893333Y-60240333D01*
X205062666Y-60155666D01*
X205401333Y-60071000D01*
X205570666Y-59986333D01*
X205655333Y-59901666D01*
X205740000Y-59732333D01*
X205740000Y-59563000D01*
X205655333Y-59393666D01*
X205570666Y-59309000D01*
X205401333Y-59224333D01*
X204978000Y-59224333D01*
X204724000Y-59309000D01*
X204046666Y-59393666D02*
X203962000Y-59309000D01*
X203792666Y-59224333D01*
X203369333Y-59224333D01*
X203200000Y-59309000D01*
X203115333Y-59393666D01*
X203030666Y-59563000D01*
X203030666Y-59732333D01*
X203115333Y-59986333D01*
X204131333Y-61002333D01*
X203030666Y-61002333D01*
X202438000Y-59224333D02*
X201337333Y-59224333D01*
X201930000Y-59901666D01*
X201676000Y-59901666D01*
X201506666Y-59986333D01*
X201422000Y-60071000D01*
X201337333Y-60240333D01*
X201337333Y-60663666D01*
X201422000Y-60833000D01*
X201506666Y-60917666D01*
X201676000Y-61002333D01*
X202184000Y-61002333D01*
X202353333Y-60917666D01*
X202438000Y-60833000D01*
X200660000Y-59393666D02*
X200575333Y-59309000D01*
X200406000Y-59224333D01*
X199982666Y-59224333D01*
X199813333Y-59309000D01*
X199728666Y-59393666D01*
X199644000Y-59563000D01*
X199644000Y-59732333D01*
X199728666Y-59986333D01*
X200744666Y-61002333D01*
X199644000Y-61002333D01*
X199305333Y-61171666D02*
X197950666Y-61171666D01*
X196765333Y-59817000D02*
X196765333Y-61002333D01*
X197188666Y-59139666D02*
X197612000Y-60409666D01*
X196511333Y-60409666D01*
X196837904Y-65344523D02*
X196596000Y-65344523D01*
X196475047Y-65284047D01*
X196414571Y-65223571D01*
X196293619Y-65042142D01*
X196233142Y-64800238D01*
X196233142Y-64316428D01*
X196293619Y-64195476D01*
X196354095Y-64135000D01*
X196475047Y-64074523D01*
X196716952Y-64074523D01*
X196837904Y-64135000D01*
X196898380Y-64195476D01*
X196958857Y-64316428D01*
X196958857Y-64618809D01*
X196898380Y-64739761D01*
X196837904Y-64800238D01*
X196716952Y-64860714D01*
X196475047Y-64860714D01*
X196354095Y-64800238D01*
X196293619Y-64739761D01*
X196233142Y-64618809D01*
X199529095Y-69323857D02*
X199529095Y-70170523D01*
X199831476Y-68840047D02*
X200133857Y-69747190D01*
X199347666Y-69747190D01*
X204258333Y-61915523D02*
X203411666Y-61915523D01*
X203955952Y-63185523D01*
X208292095Y-64074523D02*
X208534000Y-64074523D01*
X208654952Y-64135000D01*
X208715428Y-64195476D01*
X208836380Y-64376904D01*
X208896857Y-64618809D01*
X208896857Y-65102619D01*
X208836380Y-65223571D01*
X208775904Y-65284047D01*
X208654952Y-65344523D01*
X208413047Y-65344523D01*
X208292095Y-65284047D01*
X208231619Y-65223571D01*
X208171142Y-65102619D01*
X208171142Y-64800238D01*
X208231619Y-64679285D01*
X208292095Y-64618809D01*
X208413047Y-64558333D01*
X208654952Y-64558333D01*
X208775904Y-64618809D01*
X208836380Y-64679285D01*
X208896857Y-64800238D01*
X202861333Y-68900523D02*
X202075142Y-68900523D01*
X202498476Y-69384333D01*
X202317047Y-69384333D01*
X202196095Y-69444809D01*
X202135619Y-69505285D01*
X202075142Y-69626238D01*
X202075142Y-69928619D01*
X202135619Y-70049571D01*
X202196095Y-70110047D01*
X202317047Y-70170523D01*
X202679904Y-70170523D01*
X202800857Y-70110047D01*
X202861333Y-70049571D01*
X196801619Y-68900523D02*
X197406380Y-68900523D01*
X197466857Y-69505285D01*
X197406380Y-69444809D01*
X197285428Y-69384333D01*
X196983047Y-69384333D01*
X196862095Y-69444809D01*
X196801619Y-69505285D01*
X196741142Y-69626238D01*
X196741142Y-69928619D01*
X196801619Y-70049571D01*
X196862095Y-70110047D01*
X196983047Y-70170523D01*
X197285428Y-70170523D01*
X197406380Y-70110047D01*
X197466857Y-70049571D01*
X206387095Y-61915523D02*
X206629000Y-61915523D01*
X206749952Y-61976000D01*
X206810428Y-62036476D01*
X206931380Y-62217904D01*
X206991857Y-62459809D01*
X206991857Y-62943619D01*
X206931380Y-63064571D01*
X206870904Y-63125047D01*
X206749952Y-63185523D01*
X206508047Y-63185523D01*
X206387095Y-63125047D01*
X206326619Y-63064571D01*
X206266142Y-62943619D01*
X206266142Y-62641238D01*
X206326619Y-62520285D01*
X206387095Y-62459809D01*
X206508047Y-62399333D01*
X206749952Y-62399333D01*
X206870904Y-62459809D01*
X206931380Y-62520285D01*
X206991857Y-62641238D01*
X201288952Y-62459809D02*
X201409904Y-62399333D01*
X201470380Y-62338857D01*
X201530857Y-62217904D01*
X201530857Y-62157428D01*
X201470380Y-62036476D01*
X201409904Y-61976000D01*
X201288952Y-61915523D01*
X201047047Y-61915523D01*
X200926095Y-61976000D01*
X200865619Y-62036476D01*
X200805142Y-62157428D01*
X200805142Y-62217904D01*
X200865619Y-62338857D01*
X200926095Y-62399333D01*
X201047047Y-62459809D01*
X201288952Y-62459809D01*
X201409904Y-62520285D01*
X201470380Y-62580761D01*
X201530857Y-62701714D01*
X201530857Y-62943619D01*
X201470380Y-63064571D01*
X201409904Y-63125047D01*
X201288952Y-63185523D01*
X201047047Y-63185523D01*
X200926095Y-63125047D01*
X200865619Y-63064571D01*
X200805142Y-62943619D01*
X200805142Y-62701714D01*
X200865619Y-62580761D01*
X200926095Y-62520285D01*
X201047047Y-62459809D01*
X207790142Y-70170523D02*
X208515857Y-70170523D01*
X208153000Y-70170523D02*
X208153000Y-68900523D01*
X208273952Y-69081952D01*
X208394904Y-69202904D01*
X208515857Y-69263380D01*
X171431857Y-69021476D02*
X171371380Y-68961000D01*
X171250428Y-68900523D01*
X170948047Y-68900523D01*
X170827095Y-68961000D01*
X170766619Y-69021476D01*
X170706142Y-69142428D01*
X170706142Y-69263380D01*
X170766619Y-69444809D01*
X171492333Y-70170523D01*
X170706142Y-70170523D01*
X166998952Y-62459809D02*
X167119904Y-62399333D01*
X167180380Y-62338857D01*
X167240857Y-62217904D01*
X167240857Y-62157428D01*
X167180380Y-62036476D01*
X167119904Y-61976000D01*
X166998952Y-61915523D01*
X166757047Y-61915523D01*
X166636095Y-61976000D01*
X166575619Y-62036476D01*
X166515142Y-62157428D01*
X166515142Y-62217904D01*
X166575619Y-62338857D01*
X166636095Y-62399333D01*
X166757047Y-62459809D01*
X166998952Y-62459809D01*
X167119904Y-62520285D01*
X167180380Y-62580761D01*
X167240857Y-62701714D01*
X167240857Y-62943619D01*
X167180380Y-63064571D01*
X167119904Y-63125047D01*
X166998952Y-63185523D01*
X166757047Y-63185523D01*
X166636095Y-63125047D01*
X166575619Y-63064571D01*
X166515142Y-62943619D01*
X166515142Y-62701714D01*
X166575619Y-62580761D01*
X166636095Y-62520285D01*
X166757047Y-62459809D01*
X174002095Y-64074523D02*
X174244000Y-64074523D01*
X174364952Y-64135000D01*
X174425428Y-64195476D01*
X174546380Y-64376904D01*
X174606857Y-64618809D01*
X174606857Y-65102619D01*
X174546380Y-65223571D01*
X174485904Y-65284047D01*
X174364952Y-65344523D01*
X174123047Y-65344523D01*
X174002095Y-65284047D01*
X173941619Y-65223571D01*
X173881142Y-65102619D01*
X173881142Y-64800238D01*
X173941619Y-64679285D01*
X174002095Y-64618809D01*
X174123047Y-64558333D01*
X174364952Y-64558333D01*
X174485904Y-64618809D01*
X174546380Y-64679285D01*
X174606857Y-64800238D01*
X160606619Y-66614523D02*
X161211380Y-66614523D01*
X161271857Y-67219285D01*
X161211380Y-67158809D01*
X161090428Y-67098333D01*
X160788047Y-67098333D01*
X160667095Y-67158809D01*
X160606619Y-67219285D01*
X160546142Y-67340238D01*
X160546142Y-67642619D01*
X160606619Y-67763571D01*
X160667095Y-67824047D01*
X160788047Y-67884523D01*
X161090428Y-67884523D01*
X161211380Y-67824047D01*
X161271857Y-67763571D01*
X172097095Y-61915523D02*
X172339000Y-61915523D01*
X172459952Y-61976000D01*
X172520428Y-62036476D01*
X172641380Y-62217904D01*
X172701857Y-62459809D01*
X172701857Y-62943619D01*
X172641380Y-63064571D01*
X172580904Y-63125047D01*
X172459952Y-63185523D01*
X172218047Y-63185523D01*
X172097095Y-63125047D01*
X172036619Y-63064571D01*
X171976142Y-62943619D01*
X171976142Y-62641238D01*
X172036619Y-62520285D01*
X172097095Y-62459809D01*
X172218047Y-62399333D01*
X172459952Y-62399333D01*
X172580904Y-62459809D01*
X172641380Y-62520285D01*
X172701857Y-62641238D01*
X169968333Y-61915523D02*
X169121666Y-61915523D01*
X169665952Y-63185523D01*
X173016333Y-61002333D02*
X173609000Y-60155666D01*
X174032333Y-61002333D02*
X174032333Y-59224333D01*
X173355000Y-59224333D01*
X173185666Y-59309000D01*
X173101000Y-59393666D01*
X173016333Y-59563000D01*
X173016333Y-59817000D01*
X173101000Y-59986333D01*
X173185666Y-60071000D01*
X173355000Y-60155666D01*
X174032333Y-60155666D01*
X172339000Y-60917666D02*
X172085000Y-61002333D01*
X171661666Y-61002333D01*
X171492333Y-60917666D01*
X171407666Y-60833000D01*
X171323000Y-60663666D01*
X171323000Y-60494333D01*
X171407666Y-60325000D01*
X171492333Y-60240333D01*
X171661666Y-60155666D01*
X172000333Y-60071000D01*
X172169666Y-59986333D01*
X172254333Y-59901666D01*
X172339000Y-59732333D01*
X172339000Y-59563000D01*
X172254333Y-59393666D01*
X172169666Y-59309000D01*
X172000333Y-59224333D01*
X171577000Y-59224333D01*
X171323000Y-59309000D01*
X170645666Y-59393666D02*
X170561000Y-59309000D01*
X170391666Y-59224333D01*
X169968333Y-59224333D01*
X169799000Y-59309000D01*
X169714333Y-59393666D01*
X169629666Y-59563000D01*
X169629666Y-59732333D01*
X169714333Y-59986333D01*
X170730333Y-61002333D01*
X169629666Y-61002333D01*
X169037000Y-59224333D02*
X167936333Y-59224333D01*
X168529000Y-59901666D01*
X168275000Y-59901666D01*
X168105666Y-59986333D01*
X168021000Y-60071000D01*
X167936333Y-60240333D01*
X167936333Y-60663666D01*
X168021000Y-60833000D01*
X168105666Y-60917666D01*
X168275000Y-61002333D01*
X168783000Y-61002333D01*
X168952333Y-60917666D01*
X169037000Y-60833000D01*
X167259000Y-59393666D02*
X167174333Y-59309000D01*
X167005000Y-59224333D01*
X166581666Y-59224333D01*
X166412333Y-59309000D01*
X166327666Y-59393666D01*
X166243000Y-59563000D01*
X166243000Y-59732333D01*
X166327666Y-59986333D01*
X167343666Y-61002333D01*
X166243000Y-61002333D01*
X165904333Y-61171666D02*
X164549666Y-61171666D01*
X164295666Y-59224333D02*
X163195000Y-59224333D01*
X163787666Y-59901666D01*
X163533666Y-59901666D01*
X163364333Y-59986333D01*
X163279666Y-60071000D01*
X163195000Y-60240333D01*
X163195000Y-60663666D01*
X163279666Y-60833000D01*
X163364333Y-60917666D01*
X163533666Y-61002333D01*
X164041666Y-61002333D01*
X164211000Y-60917666D01*
X164295666Y-60833000D01*
X162511619Y-68900523D02*
X163116380Y-68900523D01*
X163176857Y-69505285D01*
X163116380Y-69444809D01*
X162995428Y-69384333D01*
X162693047Y-69384333D01*
X162572095Y-69444809D01*
X162511619Y-69505285D01*
X162451142Y-69626238D01*
X162451142Y-69928619D01*
X162511619Y-70049571D01*
X162572095Y-70110047D01*
X162693047Y-70170523D01*
X162995428Y-70170523D01*
X163116380Y-70110047D01*
X163176857Y-70049571D01*
X164452904Y-63185523D02*
X164211000Y-63185523D01*
X164090047Y-63125047D01*
X164029571Y-63064571D01*
X163908619Y-62883142D01*
X163848142Y-62641238D01*
X163848142Y-62157428D01*
X163908619Y-62036476D01*
X163969095Y-61976000D01*
X164090047Y-61915523D01*
X164331952Y-61915523D01*
X164452904Y-61976000D01*
X164513380Y-62036476D01*
X164573857Y-62157428D01*
X164573857Y-62459809D01*
X164513380Y-62580761D01*
X164452904Y-62641238D01*
X164331952Y-62701714D01*
X164090047Y-62701714D01*
X163969095Y-62641238D01*
X163908619Y-62580761D01*
X163848142Y-62459809D01*
X165239095Y-69323857D02*
X165239095Y-70170523D01*
X165541476Y-68840047D02*
X165843857Y-69747190D01*
X165057666Y-69747190D01*
X168571333Y-68900523D02*
X167785142Y-68900523D01*
X168208476Y-69384333D01*
X168027047Y-69384333D01*
X167906095Y-69444809D01*
X167845619Y-69505285D01*
X167785142Y-69626238D01*
X167785142Y-69928619D01*
X167845619Y-70049571D01*
X167906095Y-70110047D01*
X168027047Y-70170523D01*
X168389904Y-70170523D01*
X168510857Y-70110047D01*
X168571333Y-70049571D01*
X175151142Y-67757523D02*
X175876857Y-67757523D01*
X175514000Y-67757523D02*
X175514000Y-66487523D01*
X175634952Y-66668952D01*
X175755904Y-66789904D01*
X175876857Y-66850380D01*
X173500142Y-70170523D02*
X174225857Y-70170523D01*
X173863000Y-70170523D02*
X173863000Y-68900523D01*
X173983952Y-69081952D01*
X174104904Y-69202904D01*
X174225857Y-69263380D01*
X162547904Y-65344523D02*
X162306000Y-65344523D01*
X162185047Y-65284047D01*
X162124571Y-65223571D01*
X162003619Y-65042142D01*
X161943142Y-64800238D01*
X161943142Y-64316428D01*
X162003619Y-64195476D01*
X162064095Y-64135000D01*
X162185047Y-64074523D01*
X162426952Y-64074523D01*
X162547904Y-64135000D01*
X162608380Y-64195476D01*
X162668857Y-64316428D01*
X162668857Y-64618809D01*
X162608380Y-64739761D01*
X162547904Y-64800238D01*
X162426952Y-64860714D01*
X162185047Y-64860714D01*
X162064095Y-64800238D01*
X162003619Y-64739761D01*
X161943142Y-64618809D01*
X128221619Y-68900523D02*
X128826380Y-68900523D01*
X128886857Y-69505285D01*
X128826380Y-69444809D01*
X128705428Y-69384333D01*
X128403047Y-69384333D01*
X128282095Y-69444809D01*
X128221619Y-69505285D01*
X128161142Y-69626238D01*
X128161142Y-69928619D01*
X128221619Y-70049571D01*
X128282095Y-70110047D01*
X128403047Y-70170523D01*
X128705428Y-70170523D01*
X128826380Y-70110047D01*
X128886857Y-70049571D01*
X140861142Y-67757523D02*
X141586857Y-67757523D01*
X141224000Y-67757523D02*
X141224000Y-66487523D01*
X141344952Y-66668952D01*
X141465904Y-66789904D01*
X141586857Y-66850380D01*
X137807095Y-61915523D02*
X138049000Y-61915523D01*
X138169952Y-61976000D01*
X138230428Y-62036476D01*
X138351380Y-62217904D01*
X138411857Y-62459809D01*
X138411857Y-62943619D01*
X138351380Y-63064571D01*
X138290904Y-63125047D01*
X138169952Y-63185523D01*
X137928047Y-63185523D01*
X137807095Y-63125047D01*
X137746619Y-63064571D01*
X137686142Y-62943619D01*
X137686142Y-62641238D01*
X137746619Y-62520285D01*
X137807095Y-62459809D01*
X137928047Y-62399333D01*
X138169952Y-62399333D01*
X138290904Y-62459809D01*
X138351380Y-62520285D01*
X138411857Y-62641238D01*
X126316619Y-66614523D02*
X126921380Y-66614523D01*
X126981857Y-67219285D01*
X126921380Y-67158809D01*
X126800428Y-67098333D01*
X126498047Y-67098333D01*
X126377095Y-67158809D01*
X126316619Y-67219285D01*
X126256142Y-67340238D01*
X126256142Y-67642619D01*
X126316619Y-67763571D01*
X126377095Y-67824047D01*
X126498047Y-67884523D01*
X126800428Y-67884523D01*
X126921380Y-67824047D01*
X126981857Y-67763571D01*
X139210142Y-70170523D02*
X139935857Y-70170523D01*
X139573000Y-70170523D02*
X139573000Y-68900523D01*
X139693952Y-69081952D01*
X139814904Y-69202904D01*
X139935857Y-69263380D01*
X139712095Y-64074523D02*
X139954000Y-64074523D01*
X140074952Y-64135000D01*
X140135428Y-64195476D01*
X140256380Y-64376904D01*
X140316857Y-64618809D01*
X140316857Y-65102619D01*
X140256380Y-65223571D01*
X140195904Y-65284047D01*
X140074952Y-65344523D01*
X139833047Y-65344523D01*
X139712095Y-65284047D01*
X139651619Y-65223571D01*
X139591142Y-65102619D01*
X139591142Y-64800238D01*
X139651619Y-64679285D01*
X139712095Y-64618809D01*
X139833047Y-64558333D01*
X140074952Y-64558333D01*
X140195904Y-64618809D01*
X140256380Y-64679285D01*
X140316857Y-64800238D01*
X128257904Y-65344523D02*
X128016000Y-65344523D01*
X127895047Y-65284047D01*
X127834571Y-65223571D01*
X127713619Y-65042142D01*
X127653142Y-64800238D01*
X127653142Y-64316428D01*
X127713619Y-64195476D01*
X127774095Y-64135000D01*
X127895047Y-64074523D01*
X128136952Y-64074523D01*
X128257904Y-64135000D01*
X128318380Y-64195476D01*
X128378857Y-64316428D01*
X128378857Y-64618809D01*
X128318380Y-64739761D01*
X128257904Y-64800238D01*
X128136952Y-64860714D01*
X127895047Y-64860714D01*
X127774095Y-64800238D01*
X127713619Y-64739761D01*
X127653142Y-64618809D01*
X130949095Y-69323857D02*
X130949095Y-70170523D01*
X131251476Y-68840047D02*
X131553857Y-69747190D01*
X130767666Y-69747190D01*
X135678333Y-61915523D02*
X134831666Y-61915523D01*
X135375952Y-63185523D01*
X132708952Y-62459809D02*
X132829904Y-62399333D01*
X132890380Y-62338857D01*
X132950857Y-62217904D01*
X132950857Y-62157428D01*
X132890380Y-62036476D01*
X132829904Y-61976000D01*
X132708952Y-61915523D01*
X132467047Y-61915523D01*
X132346095Y-61976000D01*
X132285619Y-62036476D01*
X132225142Y-62157428D01*
X132225142Y-62217904D01*
X132285619Y-62338857D01*
X132346095Y-62399333D01*
X132467047Y-62459809D01*
X132708952Y-62459809D01*
X132829904Y-62520285D01*
X132890380Y-62580761D01*
X132950857Y-62701714D01*
X132950857Y-62943619D01*
X132890380Y-63064571D01*
X132829904Y-63125047D01*
X132708952Y-63185523D01*
X132467047Y-63185523D01*
X132346095Y-63125047D01*
X132285619Y-63064571D01*
X132225142Y-62943619D01*
X132225142Y-62701714D01*
X132285619Y-62580761D01*
X132346095Y-62520285D01*
X132467047Y-62459809D01*
X137141857Y-69021476D02*
X137081380Y-68961000D01*
X136960428Y-68900523D01*
X136658047Y-68900523D01*
X136537095Y-68961000D01*
X136476619Y-69021476D01*
X136416142Y-69142428D01*
X136416142Y-69263380D01*
X136476619Y-69444809D01*
X137202333Y-70170523D01*
X136416142Y-70170523D01*
X134281333Y-68900523D02*
X133495142Y-68900523D01*
X133918476Y-69384333D01*
X133737047Y-69384333D01*
X133616095Y-69444809D01*
X133555619Y-69505285D01*
X133495142Y-69626238D01*
X133495142Y-69928619D01*
X133555619Y-70049571D01*
X133616095Y-70110047D01*
X133737047Y-70170523D01*
X134099904Y-70170523D01*
X134220857Y-70110047D01*
X134281333Y-70049571D01*
X137710333Y-61002333D02*
X138303000Y-60155666D01*
X138726333Y-61002333D02*
X138726333Y-59224333D01*
X138049000Y-59224333D01*
X137879666Y-59309000D01*
X137795000Y-59393666D01*
X137710333Y-59563000D01*
X137710333Y-59817000D01*
X137795000Y-59986333D01*
X137879666Y-60071000D01*
X138049000Y-60155666D01*
X138726333Y-60155666D01*
X137033000Y-60917666D02*
X136779000Y-61002333D01*
X136355666Y-61002333D01*
X136186333Y-60917666D01*
X136101666Y-60833000D01*
X136017000Y-60663666D01*
X136017000Y-60494333D01*
X136101666Y-60325000D01*
X136186333Y-60240333D01*
X136355666Y-60155666D01*
X136694333Y-60071000D01*
X136863666Y-59986333D01*
X136948333Y-59901666D01*
X137033000Y-59732333D01*
X137033000Y-59563000D01*
X136948333Y-59393666D01*
X136863666Y-59309000D01*
X136694333Y-59224333D01*
X136271000Y-59224333D01*
X136017000Y-59309000D01*
X135339666Y-59393666D02*
X135255000Y-59309000D01*
X135085666Y-59224333D01*
X134662333Y-59224333D01*
X134493000Y-59309000D01*
X134408333Y-59393666D01*
X134323666Y-59563000D01*
X134323666Y-59732333D01*
X134408333Y-59986333D01*
X135424333Y-61002333D01*
X134323666Y-61002333D01*
X133731000Y-59224333D02*
X132630333Y-59224333D01*
X133223000Y-59901666D01*
X132969000Y-59901666D01*
X132799666Y-59986333D01*
X132715000Y-60071000D01*
X132630333Y-60240333D01*
X132630333Y-60663666D01*
X132715000Y-60833000D01*
X132799666Y-60917666D01*
X132969000Y-61002333D01*
X133477000Y-61002333D01*
X133646333Y-60917666D01*
X133731000Y-60833000D01*
X131953000Y-59393666D02*
X131868333Y-59309000D01*
X131699000Y-59224333D01*
X131275666Y-59224333D01*
X131106333Y-59309000D01*
X131021666Y-59393666D01*
X130937000Y-59563000D01*
X130937000Y-59732333D01*
X131021666Y-59986333D01*
X132037666Y-61002333D01*
X130937000Y-61002333D01*
X130598333Y-61171666D02*
X129243666Y-61171666D01*
X128905000Y-59393666D02*
X128820333Y-59309000D01*
X128651000Y-59224333D01*
X128227666Y-59224333D01*
X128058333Y-59309000D01*
X127973666Y-59393666D01*
X127889000Y-59563000D01*
X127889000Y-59732333D01*
X127973666Y-59986333D01*
X128989666Y-61002333D01*
X127889000Y-61002333D01*
X130162904Y-63185523D02*
X129921000Y-63185523D01*
X129800047Y-63125047D01*
X129739571Y-63064571D01*
X129618619Y-62883142D01*
X129558142Y-62641238D01*
X129558142Y-62157428D01*
X129618619Y-62036476D01*
X129679095Y-61976000D01*
X129800047Y-61915523D01*
X130041952Y-61915523D01*
X130162904Y-61976000D01*
X130223380Y-62036476D01*
X130283857Y-62157428D01*
X130283857Y-62459809D01*
X130223380Y-62580761D01*
X130162904Y-62641238D01*
X130041952Y-62701714D01*
X129800047Y-62701714D01*
X129679095Y-62641238D01*
X129618619Y-62580761D01*
X129558142Y-62459809D01*
X93967904Y-65344523D02*
X93726000Y-65344523D01*
X93605047Y-65284047D01*
X93544571Y-65223571D01*
X93423619Y-65042142D01*
X93363142Y-64800238D01*
X93363142Y-64316428D01*
X93423619Y-64195476D01*
X93484095Y-64135000D01*
X93605047Y-64074523D01*
X93846952Y-64074523D01*
X93967904Y-64135000D01*
X94028380Y-64195476D01*
X94088857Y-64316428D01*
X94088857Y-64618809D01*
X94028380Y-64739761D01*
X93967904Y-64800238D01*
X93846952Y-64860714D01*
X93605047Y-64860714D01*
X93484095Y-64800238D01*
X93423619Y-64739761D01*
X93363142Y-64618809D01*
X95872904Y-63185523D02*
X95631000Y-63185523D01*
X95510047Y-63125047D01*
X95449571Y-63064571D01*
X95328619Y-62883142D01*
X95268142Y-62641238D01*
X95268142Y-62157428D01*
X95328619Y-62036476D01*
X95389095Y-61976000D01*
X95510047Y-61915523D01*
X95751952Y-61915523D01*
X95872904Y-61976000D01*
X95933380Y-62036476D01*
X95993857Y-62157428D01*
X95993857Y-62459809D01*
X95933380Y-62580761D01*
X95872904Y-62641238D01*
X95751952Y-62701714D01*
X95510047Y-62701714D01*
X95389095Y-62641238D01*
X95328619Y-62580761D01*
X95268142Y-62459809D01*
X98418952Y-62459809D02*
X98539904Y-62399333D01*
X98600380Y-62338857D01*
X98660857Y-62217904D01*
X98660857Y-62157428D01*
X98600380Y-62036476D01*
X98539904Y-61976000D01*
X98418952Y-61915523D01*
X98177047Y-61915523D01*
X98056095Y-61976000D01*
X97995619Y-62036476D01*
X97935142Y-62157428D01*
X97935142Y-62217904D01*
X97995619Y-62338857D01*
X98056095Y-62399333D01*
X98177047Y-62459809D01*
X98418952Y-62459809D01*
X98539904Y-62520285D01*
X98600380Y-62580761D01*
X98660857Y-62701714D01*
X98660857Y-62943619D01*
X98600380Y-63064571D01*
X98539904Y-63125047D01*
X98418952Y-63185523D01*
X98177047Y-63185523D01*
X98056095Y-63125047D01*
X97995619Y-63064571D01*
X97935142Y-62943619D01*
X97935142Y-62701714D01*
X97995619Y-62580761D01*
X98056095Y-62520285D01*
X98177047Y-62459809D01*
X101388333Y-61915523D02*
X100541666Y-61915523D01*
X101085952Y-63185523D01*
X103517095Y-61915523D02*
X103759000Y-61915523D01*
X103879952Y-61976000D01*
X103940428Y-62036476D01*
X104061380Y-62217904D01*
X104121857Y-62459809D01*
X104121857Y-62943619D01*
X104061380Y-63064571D01*
X104000904Y-63125047D01*
X103879952Y-63185523D01*
X103638047Y-63185523D01*
X103517095Y-63125047D01*
X103456619Y-63064571D01*
X103396142Y-62943619D01*
X103396142Y-62641238D01*
X103456619Y-62520285D01*
X103517095Y-62459809D01*
X103638047Y-62399333D01*
X103879952Y-62399333D01*
X104000904Y-62459809D01*
X104061380Y-62520285D01*
X104121857Y-62641238D01*
X105422095Y-64074523D02*
X105664000Y-64074523D01*
X105784952Y-64135000D01*
X105845428Y-64195476D01*
X105966380Y-64376904D01*
X106026857Y-64618809D01*
X106026857Y-65102619D01*
X105966380Y-65223571D01*
X105905904Y-65284047D01*
X105784952Y-65344523D01*
X105543047Y-65344523D01*
X105422095Y-65284047D01*
X105361619Y-65223571D01*
X105301142Y-65102619D01*
X105301142Y-64800238D01*
X105361619Y-64679285D01*
X105422095Y-64618809D01*
X105543047Y-64558333D01*
X105784952Y-64558333D01*
X105905904Y-64618809D01*
X105966380Y-64679285D01*
X106026857Y-64800238D01*
X106571142Y-67757523D02*
X107296857Y-67757523D01*
X106934000Y-67757523D02*
X106934000Y-66487523D01*
X107054952Y-66668952D01*
X107175904Y-66789904D01*
X107296857Y-66850380D01*
X92026619Y-66614523D02*
X92631380Y-66614523D01*
X92691857Y-67219285D01*
X92631380Y-67158809D01*
X92510428Y-67098333D01*
X92208047Y-67098333D01*
X92087095Y-67158809D01*
X92026619Y-67219285D01*
X91966142Y-67340238D01*
X91966142Y-67642619D01*
X92026619Y-67763571D01*
X92087095Y-67824047D01*
X92208047Y-67884523D01*
X92510428Y-67884523D01*
X92631380Y-67824047D01*
X92691857Y-67763571D01*
X93931619Y-68900523D02*
X94536380Y-68900523D01*
X94596857Y-69505285D01*
X94536380Y-69444809D01*
X94415428Y-69384333D01*
X94113047Y-69384333D01*
X93992095Y-69444809D01*
X93931619Y-69505285D01*
X93871142Y-69626238D01*
X93871142Y-69928619D01*
X93931619Y-70049571D01*
X93992095Y-70110047D01*
X94113047Y-70170523D01*
X94415428Y-70170523D01*
X94536380Y-70110047D01*
X94596857Y-70049571D01*
X96659095Y-69323857D02*
X96659095Y-70170523D01*
X96961476Y-68840047D02*
X97263857Y-69747190D01*
X96477666Y-69747190D01*
X99991333Y-68900523D02*
X99205142Y-68900523D01*
X99628476Y-69384333D01*
X99447047Y-69384333D01*
X99326095Y-69444809D01*
X99265619Y-69505285D01*
X99205142Y-69626238D01*
X99205142Y-69928619D01*
X99265619Y-70049571D01*
X99326095Y-70110047D01*
X99447047Y-70170523D01*
X99809904Y-70170523D01*
X99930857Y-70110047D01*
X99991333Y-70049571D01*
X102851857Y-69021476D02*
X102791380Y-68961000D01*
X102670428Y-68900523D01*
X102368047Y-68900523D01*
X102247095Y-68961000D01*
X102186619Y-69021476D01*
X102126142Y-69142428D01*
X102126142Y-69263380D01*
X102186619Y-69444809D01*
X102912333Y-70170523D01*
X102126142Y-70170523D01*
X104920142Y-70170523D02*
X105645857Y-70170523D01*
X105283000Y-70170523D02*
X105283000Y-68900523D01*
X105403952Y-69081952D01*
X105524904Y-69202904D01*
X105645857Y-69263380D01*
X104944333Y-61002333D02*
X105537000Y-60155666D01*
X105960333Y-61002333D02*
X105960333Y-59224333D01*
X105283000Y-59224333D01*
X105113666Y-59309000D01*
X105029000Y-59393666D01*
X104944333Y-59563000D01*
X104944333Y-59817000D01*
X105029000Y-59986333D01*
X105113666Y-60071000D01*
X105283000Y-60155666D01*
X105960333Y-60155666D01*
X104267000Y-60917666D02*
X104013000Y-61002333D01*
X103589666Y-61002333D01*
X103420333Y-60917666D01*
X103335666Y-60833000D01*
X103251000Y-60663666D01*
X103251000Y-60494333D01*
X103335666Y-60325000D01*
X103420333Y-60240333D01*
X103589666Y-60155666D01*
X103928333Y-60071000D01*
X104097666Y-59986333D01*
X104182333Y-59901666D01*
X104267000Y-59732333D01*
X104267000Y-59563000D01*
X104182333Y-59393666D01*
X104097666Y-59309000D01*
X103928333Y-59224333D01*
X103505000Y-59224333D01*
X103251000Y-59309000D01*
X102573666Y-59393666D02*
X102489000Y-59309000D01*
X102319666Y-59224333D01*
X101896333Y-59224333D01*
X101727000Y-59309000D01*
X101642333Y-59393666D01*
X101557666Y-59563000D01*
X101557666Y-59732333D01*
X101642333Y-59986333D01*
X102658333Y-61002333D01*
X101557666Y-61002333D01*
X100965000Y-59224333D02*
X99864333Y-59224333D01*
X100457000Y-59901666D01*
X100203000Y-59901666D01*
X100033666Y-59986333D01*
X99949000Y-60071000D01*
X99864333Y-60240333D01*
X99864333Y-60663666D01*
X99949000Y-60833000D01*
X100033666Y-60917666D01*
X100203000Y-61002333D01*
X100711000Y-61002333D01*
X100880333Y-60917666D01*
X100965000Y-60833000D01*
X99187000Y-59393666D02*
X99102333Y-59309000D01*
X98933000Y-59224333D01*
X98509666Y-59224333D01*
X98340333Y-59309000D01*
X98255666Y-59393666D01*
X98171000Y-59563000D01*
X98171000Y-59732333D01*
X98255666Y-59986333D01*
X99271666Y-61002333D01*
X98171000Y-61002333D01*
X97832333Y-61171666D02*
X96477666Y-61171666D01*
X95123000Y-61002333D02*
X96139000Y-61002333D01*
X95631000Y-61002333D02*
X95631000Y-59224333D01*
X95800333Y-59478333D01*
X95969666Y-59647666D01*
X96139000Y-59732333D01*
D19*
X122143761Y-84588047D02*
X122990428Y-83378523D01*
X123595190Y-84588047D02*
X123595190Y-82048047D01*
X122627571Y-82048047D01*
X122385666Y-82169000D01*
X122264714Y-82289952D01*
X122143761Y-82531857D01*
X122143761Y-82894714D01*
X122264714Y-83136619D01*
X122385666Y-83257571D01*
X122627571Y-83378523D01*
X123595190Y-83378523D01*
X120087571Y-84467095D02*
X120329476Y-84588047D01*
X120813285Y-84588047D01*
X121055190Y-84467095D01*
X121176142Y-84225190D01*
X121176142Y-83257571D01*
X121055190Y-83015666D01*
X120813285Y-82894714D01*
X120329476Y-82894714D01*
X120087571Y-83015666D01*
X119966619Y-83257571D01*
X119966619Y-83499476D01*
X121176142Y-83741380D01*
X119119952Y-82894714D02*
X118515190Y-84588047D01*
X117910428Y-82894714D01*
X116942809Y-84346142D02*
X116821857Y-84467095D01*
X116942809Y-84588047D01*
X117063761Y-84467095D01*
X116942809Y-84346142D01*
X116942809Y-84588047D01*
X114886619Y-83257571D02*
X114523761Y-83378523D01*
X114402809Y-83499476D01*
X114281857Y-83741380D01*
X114281857Y-84104238D01*
X114402809Y-84346142D01*
X114523761Y-84467095D01*
X114765666Y-84588047D01*
X115733285Y-84588047D01*
X115733285Y-82048047D01*
X114886619Y-82048047D01*
X114644714Y-82169000D01*
X114523761Y-82289952D01*
X114402809Y-82531857D01*
X114402809Y-82773761D01*
X114523761Y-83015666D01*
X114644714Y-83136619D01*
X114886619Y-83257571D01*
X115733285Y-83257571D01*
D12*
X208724500Y-80133976D02*
X208724500Y-78736976D01*
X208125785Y-80133976D02*
X208125785Y-79402214D01*
X208192309Y-79269166D01*
X208325357Y-79202642D01*
X208524928Y-79202642D01*
X208657976Y-79269166D01*
X208724500Y-79335690D01*
X207660119Y-79202642D02*
X207127928Y-79202642D01*
X207460547Y-78736976D02*
X207460547Y-79934404D01*
X207394023Y-80067452D01*
X207260976Y-80133976D01*
X207127928Y-80133976D01*
X206861833Y-79202642D02*
X206329642Y-79202642D01*
X206662261Y-78736976D02*
X206662261Y-79934404D01*
X206595738Y-80067452D01*
X206462690Y-80133976D01*
X206329642Y-80133976D01*
X205863976Y-79202642D02*
X205863976Y-80599642D01*
X205863976Y-79269166D02*
X205730928Y-79202642D01*
X205464833Y-79202642D01*
X205331785Y-79269166D01*
X205265261Y-79335690D01*
X205198738Y-79468738D01*
X205198738Y-79867880D01*
X205265261Y-80000928D01*
X205331785Y-80067452D01*
X205464833Y-80133976D01*
X205730928Y-80133976D01*
X205863976Y-80067452D01*
X204666547Y-80067452D02*
X204533500Y-80133976D01*
X204267404Y-80133976D01*
X204134357Y-80067452D01*
X204067833Y-79934404D01*
X204067833Y-79867880D01*
X204134357Y-79734833D01*
X204267404Y-79668309D01*
X204466976Y-79668309D01*
X204600023Y-79601785D01*
X204666547Y-79468738D01*
X204666547Y-79402214D01*
X204600023Y-79269166D01*
X204466976Y-79202642D01*
X204267404Y-79202642D01*
X204134357Y-79269166D01*
X203469119Y-80000928D02*
X203402595Y-80067452D01*
X203469119Y-80133976D01*
X203535642Y-80067452D01*
X203469119Y-80000928D01*
X203469119Y-80133976D01*
X203469119Y-79269166D02*
X203402595Y-79335690D01*
X203469119Y-79402214D01*
X203535642Y-79335690D01*
X203469119Y-79269166D01*
X203469119Y-79402214D01*
X201806023Y-78670452D02*
X203003452Y-80466595D01*
X200342500Y-78670452D02*
X201539928Y-80466595D01*
X200009880Y-79202642D02*
X199743785Y-80133976D01*
X199477690Y-79468738D01*
X199211595Y-80133976D01*
X198945500Y-79202642D01*
X198546357Y-79202642D02*
X198280261Y-80133976D01*
X198014166Y-79468738D01*
X197748071Y-80133976D01*
X197481976Y-79202642D01*
X197082833Y-79202642D02*
X196816738Y-80133976D01*
X196550642Y-79468738D01*
X196284547Y-80133976D01*
X196018452Y-79202642D01*
X195486261Y-80000928D02*
X195419738Y-80067452D01*
X195486261Y-80133976D01*
X195552785Y-80067452D01*
X195486261Y-80000928D01*
X195486261Y-80133976D01*
X194621452Y-80133976D02*
X194754500Y-80067452D01*
X194821023Y-80000928D01*
X194887547Y-79867880D01*
X194887547Y-79468738D01*
X194821023Y-79335690D01*
X194754500Y-79269166D01*
X194621452Y-79202642D01*
X194421880Y-79202642D01*
X194288833Y-79269166D01*
X194222309Y-79335690D01*
X194155785Y-79468738D01*
X194155785Y-79867880D01*
X194222309Y-80000928D01*
X194288833Y-80067452D01*
X194421880Y-80133976D01*
X194621452Y-80133976D01*
X193357500Y-80133976D02*
X193490547Y-80067452D01*
X193557071Y-79934404D01*
X193557071Y-78736976D01*
X192825309Y-80133976D02*
X192825309Y-79202642D01*
X192825309Y-78736976D02*
X192891833Y-78803500D01*
X192825309Y-78870023D01*
X192758785Y-78803500D01*
X192825309Y-78736976D01*
X192825309Y-78870023D01*
X192160071Y-80133976D02*
X192160071Y-79202642D01*
X192160071Y-79335690D02*
X192093547Y-79269166D01*
X191960500Y-79202642D01*
X191760928Y-79202642D01*
X191627880Y-79269166D01*
X191561357Y-79402214D01*
X191561357Y-80133976D01*
X191561357Y-79402214D02*
X191494833Y-79269166D01*
X191361785Y-79202642D01*
X191162214Y-79202642D01*
X191029166Y-79269166D01*
X190962642Y-79402214D01*
X190962642Y-80133976D01*
X189765214Y-80067452D02*
X189898261Y-80133976D01*
X190164357Y-80133976D01*
X190297404Y-80067452D01*
X190363928Y-79934404D01*
X190363928Y-79402214D01*
X190297404Y-79269166D01*
X190164357Y-79202642D01*
X189898261Y-79202642D01*
X189765214Y-79269166D01*
X189698690Y-79402214D01*
X189698690Y-79535261D01*
X190363928Y-79668309D01*
X189233023Y-80133976D02*
X188501261Y-79202642D01*
X189233023Y-79202642D02*
X188501261Y-80133976D01*
X187969071Y-80000928D02*
X187902547Y-80067452D01*
X187969071Y-80133976D01*
X188035595Y-80067452D01*
X187969071Y-80000928D01*
X187969071Y-80133976D01*
X186705119Y-80067452D02*
X186838166Y-80133976D01*
X187104261Y-80133976D01*
X187237309Y-80067452D01*
X187303833Y-80000928D01*
X187370357Y-79867880D01*
X187370357Y-79468738D01*
X187303833Y-79335690D01*
X187237309Y-79269166D01*
X187104261Y-79202642D01*
X186838166Y-79202642D01*
X186705119Y-79269166D01*
X185906833Y-80133976D02*
X186039880Y-80067452D01*
X186106404Y-80000928D01*
X186172928Y-79867880D01*
X186172928Y-79468738D01*
X186106404Y-79335690D01*
X186039880Y-79269166D01*
X185906833Y-79202642D01*
X185707261Y-79202642D01*
X185574214Y-79269166D01*
X185507690Y-79335690D01*
X185441166Y-79468738D01*
X185441166Y-79867880D01*
X185507690Y-80000928D01*
X185574214Y-80067452D01*
X185707261Y-80133976D01*
X185906833Y-80133976D01*
X184842452Y-80133976D02*
X184842452Y-79202642D01*
X184842452Y-79335690D02*
X184775928Y-79269166D01*
X184642880Y-79202642D01*
X184443309Y-79202642D01*
X184310261Y-79269166D01*
X184243738Y-79402214D01*
X184243738Y-80133976D01*
X184243738Y-79402214D02*
X184177214Y-79269166D01*
X184044166Y-79202642D01*
X183844595Y-79202642D01*
X183711547Y-79269166D01*
X183645023Y-79402214D01*
X183645023Y-80133976D01*
X181981928Y-78670452D02*
X183179357Y-80466595D01*
D18*
X189901285Y-75480333D02*
X189961761Y-75419857D01*
X190082714Y-75238428D01*
X190143190Y-75117476D01*
X190203666Y-74936047D01*
X190264142Y-74633666D01*
X190264142Y-74391761D01*
X190203666Y-74089380D01*
X190143190Y-73907952D01*
X190082714Y-73787000D01*
X189961761Y-73605571D01*
X189901285Y-73545095D01*
X188691761Y-74875571D02*
X188752238Y-74936047D01*
X188933666Y-74996523D01*
X189054619Y-74996523D01*
X189236047Y-74936047D01*
X189357000Y-74815095D01*
X189417476Y-74694142D01*
X189477952Y-74452238D01*
X189477952Y-74270809D01*
X189417476Y-74028904D01*
X189357000Y-73907952D01*
X189236047Y-73787000D01*
X189054619Y-73726523D01*
X188933666Y-73726523D01*
X188752238Y-73787000D01*
X188691761Y-73847476D01*
X188268428Y-75480333D02*
X188207952Y-75419857D01*
X188087000Y-75238428D01*
X188026523Y-75117476D01*
X187966047Y-74936047D01*
X187905571Y-74633666D01*
X187905571Y-74391761D01*
X187966047Y-74089380D01*
X188026523Y-73907952D01*
X188087000Y-73787000D01*
X188207952Y-73605571D01*
X188268428Y-73545095D01*
X186393666Y-73847476D02*
X186333190Y-73787000D01*
X186212238Y-73726523D01*
X185909857Y-73726523D01*
X185788904Y-73787000D01*
X185728428Y-73847476D01*
X185667952Y-73968428D01*
X185667952Y-74089380D01*
X185728428Y-74270809D01*
X186454142Y-74996523D01*
X185667952Y-74996523D01*
X184881761Y-73726523D02*
X184760809Y-73726523D01*
X184639857Y-73787000D01*
X184579380Y-73847476D01*
X184518904Y-73968428D01*
X184458428Y-74210333D01*
X184458428Y-74512714D01*
X184518904Y-74754619D01*
X184579380Y-74875571D01*
X184639857Y-74936047D01*
X184760809Y-74996523D01*
X184881761Y-74996523D01*
X185002714Y-74936047D01*
X185063190Y-74875571D01*
X185123666Y-74754619D01*
X185184142Y-74512714D01*
X185184142Y-74210333D01*
X185123666Y-73968428D01*
X185063190Y-73847476D01*
X185002714Y-73787000D01*
X184881761Y-73726523D01*
X183974619Y-73847476D02*
X183914142Y-73787000D01*
X183793190Y-73726523D01*
X183490809Y-73726523D01*
X183369857Y-73787000D01*
X183309380Y-73847476D01*
X183248904Y-73968428D01*
X183248904Y-74089380D01*
X183309380Y-74270809D01*
X184035095Y-74996523D01*
X183248904Y-74996523D01*
X182765095Y-73847476D02*
X182704619Y-73787000D01*
X182583666Y-73726523D01*
X182281285Y-73726523D01*
X182160333Y-73787000D01*
X182099857Y-73847476D01*
X182039380Y-73968428D01*
X182039380Y-74089380D01*
X182099857Y-74270809D01*
X182825571Y-74996523D01*
X182039380Y-74996523D01*
D20*
X156826857Y-75601285D02*
X156826857Y-79302428D01*
X156609142Y-79737857D01*
X156391428Y-79955571D01*
X155956000Y-80173285D01*
X155085142Y-80173285D01*
X154649714Y-79955571D01*
X154432000Y-79737857D01*
X154214285Y-79302428D01*
X154214285Y-75601285D01*
X152254857Y-79955571D02*
X151601714Y-80173285D01*
X150513142Y-80173285D01*
X150077714Y-79955571D01*
X149860000Y-79737857D01*
X149642285Y-79302428D01*
X149642285Y-78867000D01*
X149860000Y-78431571D01*
X150077714Y-78213857D01*
X150513142Y-77996142D01*
X151384000Y-77778428D01*
X151819428Y-77560714D01*
X152037142Y-77343000D01*
X152254857Y-76907571D01*
X152254857Y-76472142D01*
X152037142Y-76036714D01*
X151819428Y-75819000D01*
X151384000Y-75601285D01*
X150295428Y-75601285D01*
X149642285Y-75819000D01*
X146158857Y-77778428D02*
X145505714Y-77996142D01*
X145288000Y-78213857D01*
X145070285Y-78649285D01*
X145070285Y-79302428D01*
X145288000Y-79737857D01*
X145505714Y-79955571D01*
X145941142Y-80173285D01*
X147682857Y-80173285D01*
X147682857Y-75601285D01*
X146158857Y-75601285D01*
X145723428Y-75819000D01*
X145505714Y-76036714D01*
X145288000Y-76472142D01*
X145288000Y-76907571D01*
X145505714Y-77343000D01*
X145723428Y-77560714D01*
X146158857Y-77778428D01*
X147682857Y-77778428D01*
X143110857Y-78431571D02*
X139627428Y-78431571D01*
X135490857Y-77125285D02*
X135490857Y-80173285D01*
X136579428Y-75383571D02*
X137668000Y-78649285D01*
X134837714Y-78649285D01*
X133313714Y-79955571D02*
X132660571Y-80173285D01*
X131572000Y-80173285D01*
X131136571Y-79955571D01*
X130918857Y-79737857D01*
X130701142Y-79302428D01*
X130701142Y-78867000D01*
X130918857Y-78431571D01*
X131136571Y-78213857D01*
X131572000Y-77996142D01*
X132442857Y-77778428D01*
X132878285Y-77560714D01*
X133096000Y-77343000D01*
X133313714Y-76907571D01*
X133313714Y-76472142D01*
X133096000Y-76036714D01*
X132878285Y-75819000D01*
X132442857Y-75601285D01*
X131354285Y-75601285D01*
X130701142Y-75819000D01*
X128741714Y-77778428D02*
X127217714Y-77778428D01*
X126564571Y-80173285D02*
X128741714Y-80173285D01*
X128741714Y-75601285D01*
X126564571Y-75601285D01*
X121992571Y-80173285D02*
X123516571Y-77996142D01*
X124605142Y-80173285D02*
X124605142Y-75601285D01*
X122863428Y-75601285D01*
X122428000Y-75819000D01*
X122210285Y-76036714D01*
X121992571Y-76472142D01*
X121992571Y-77125285D01*
X122210285Y-77560714D01*
X122428000Y-77778428D01*
X122863428Y-77996142D01*
X124605142Y-77996142D01*
X120033142Y-80173285D02*
X120033142Y-75601285D01*
X118073714Y-78867000D02*
X115896571Y-78867000D01*
X118509142Y-80173285D02*
X116985142Y-75601285D01*
X115461142Y-80173285D01*
X111760000Y-80173285D02*
X113937142Y-80173285D01*
X113937142Y-75601285D01*
D10*
%TO.C,Sign_RoHS_1*%
X94996000Y-78867000D02*
X106807000Y-78867000D01*
X106807000Y-81915000D02*
X94996000Y-81915000D01*
X94140020Y-77884020D02*
X94086680Y-77830680D01*
X93367860Y-77830680D02*
X93091000Y-78105000D01*
X99949000Y-72898000D02*
X99082860Y-75013820D01*
X97099120Y-77401420D02*
X97063560Y-77436980D01*
X95194120Y-78105000D02*
X94678500Y-78105000D01*
X99949000Y-72898000D02*
X99087940Y-73517760D01*
X97370900Y-73855580D02*
X95222060Y-73660000D01*
X93172280Y-75176380D02*
X93024960Y-75775820D01*
X92966540Y-76454000D02*
X92966540Y-76835000D01*
X93068140Y-78059280D02*
X93091000Y-78105000D01*
X93726000Y-79375000D02*
X93540580Y-79189580D01*
X98554540Y-74549000D02*
X98272600Y-74896980D01*
X96245680Y-75648820D02*
X95935800Y-75709780D01*
X93380560Y-76979780D02*
X93210380Y-77167740D01*
X92966540Y-76835000D02*
X92969080Y-76832460D01*
X94025720Y-75760580D02*
X94033340Y-75755500D01*
X95300800Y-75252580D02*
X95818960Y-75178920D01*
X97167700Y-74963020D02*
X98554540Y-74549000D01*
X93726000Y-79502000D02*
X93218000Y-78740000D01*
X93091000Y-78277720D02*
X93091000Y-78232000D01*
X93853000Y-79375000D02*
X93362780Y-78884780D01*
X93091000Y-78613000D02*
X92986860Y-78719680D01*
X92336620Y-78747620D02*
X92202000Y-78613000D01*
X92202000Y-78613000D02*
X92499180Y-78193900D01*
X92382340Y-76992480D02*
X92329000Y-76898500D01*
X91607640Y-76253340D02*
X91186000Y-76073000D01*
X91186000Y-76073000D02*
X90170000Y-75692000D01*
X90170000Y-75692000D02*
X90304620Y-76230480D01*
X90484960Y-78292960D02*
X90507820Y-78315820D01*
X91287600Y-78613000D02*
X91643200Y-78613000D01*
X92189300Y-78613000D02*
X92202000Y-78613000D01*
X91109800Y-77421740D02*
X91135200Y-77812900D01*
X99568000Y-73406000D02*
X98554540Y-74043540D01*
D19*
X98554540Y-74043540D02*
X97409000Y-74043540D01*
X97409000Y-74043540D02*
X96393000Y-73914000D01*
X96393000Y-73914000D02*
X94742000Y-73914000D01*
X94742000Y-73914000D02*
X94107000Y-74295000D01*
X94107000Y-74295000D02*
X93599000Y-74803000D01*
X93599000Y-74803000D02*
X93345000Y-75311000D01*
X93345000Y-75311000D02*
X93218000Y-76327000D01*
X93218000Y-76327000D02*
X93726000Y-75692000D01*
X93726000Y-75692000D02*
X94361000Y-75311000D01*
X94361000Y-75311000D02*
X94107000Y-74803000D01*
X94107000Y-74803000D02*
X93726000Y-75311000D01*
X94488000Y-75311000D02*
X95123000Y-74930000D01*
X95123000Y-74930000D02*
X95631000Y-74930000D01*
X95631000Y-74930000D02*
X95758000Y-74930000D01*
X95758000Y-74930000D02*
X96901000Y-74803000D01*
X96901000Y-74803000D02*
X98171000Y-74422000D01*
X98171000Y-74422000D02*
X98679000Y-74295000D01*
X98679000Y-74295000D02*
X94107000Y-74295000D01*
X94107000Y-74295000D02*
X94107000Y-74549000D01*
X94107000Y-74803000D02*
X94107000Y-74549000D01*
X94107000Y-74549000D02*
X99060000Y-74472800D01*
X93980000Y-74930000D02*
X95631000Y-74930000D01*
X99568000Y-73406000D02*
X99060000Y-74295000D01*
X99060000Y-74295000D02*
X98933000Y-74803000D01*
X98933000Y-74803000D02*
X98554540Y-75311000D01*
X98554540Y-75311000D02*
X98554540Y-74930000D01*
X98554540Y-74930000D02*
X98933000Y-74043540D01*
X98425000Y-75438000D02*
X98044000Y-75946000D01*
X98044000Y-75946000D02*
X97790000Y-76327000D01*
X97790000Y-76327000D02*
X96901000Y-77216000D01*
X96901000Y-77216000D02*
X96393000Y-77597000D01*
X96393000Y-77597000D02*
X95504000Y-77851000D01*
X95504000Y-77851000D02*
X94615000Y-77851000D01*
X94615000Y-77851000D02*
X93853000Y-77343000D01*
X93853000Y-77343000D02*
X93472000Y-77470000D01*
X93472000Y-77470000D02*
X93218000Y-77724000D01*
X93218000Y-77724000D02*
X93472000Y-77216000D01*
X93472000Y-77216000D02*
X93980000Y-76708000D01*
X93980000Y-76708000D02*
X94665800Y-76301600D01*
X94665800Y-76301600D02*
X96062800Y-75819000D01*
X96062800Y-75819000D02*
X96672400Y-75819000D01*
X96672400Y-75819000D02*
X97409000Y-75565000D01*
X97409000Y-75565000D02*
X98171000Y-75184000D01*
X98044000Y-75565000D02*
X97282000Y-76200000D01*
X97282000Y-76200000D02*
X97155000Y-76073000D01*
X97155000Y-76073000D02*
X97028000Y-76073000D01*
X97028000Y-76073000D02*
X95885000Y-76200000D01*
X95885000Y-76200000D02*
X94869000Y-76454000D01*
X94869000Y-76454000D02*
X94234000Y-76962000D01*
X94234000Y-76962000D02*
X94107000Y-77089000D01*
X94107000Y-77089000D02*
X94234000Y-77343000D01*
X94234000Y-77343000D02*
X94488000Y-77343000D01*
X94488000Y-77343000D02*
X94869000Y-77470000D01*
X94869000Y-77470000D02*
X95504000Y-77470000D01*
X95504000Y-77470000D02*
X95885000Y-77343000D01*
X95885000Y-77343000D02*
X96393000Y-77216000D01*
X96393000Y-77216000D02*
X97028000Y-76708000D01*
X97028000Y-76708000D02*
X97155000Y-76581000D01*
X97155000Y-76581000D02*
X97028000Y-76454000D01*
X97028000Y-76454000D02*
X96520000Y-76454000D01*
X96520000Y-76454000D02*
X95504000Y-76708000D01*
X95504000Y-76708000D02*
X95250000Y-76708000D01*
X95250000Y-76708000D02*
X94742000Y-76962000D01*
X94742000Y-76962000D02*
X94742000Y-77089000D01*
X94742000Y-77089000D02*
X94869000Y-77216000D01*
X94869000Y-77216000D02*
X95250000Y-77089000D01*
X95250000Y-77089000D02*
X96520000Y-76835000D01*
D10*
X91899740Y-78488540D02*
X91927680Y-78516480D01*
X91516200Y-77419200D02*
X91516200Y-77411580D01*
X92456000Y-77873860D02*
X92456000Y-77851000D01*
X92456000Y-77851000D02*
X92456000Y-77597000D01*
X92456000Y-77597000D02*
X92329000Y-77597000D01*
X92329000Y-77597000D02*
X92202000Y-77597000D01*
X92202000Y-77597000D02*
X92202000Y-78232000D01*
X92329000Y-77597000D02*
X92329000Y-77724000D01*
X92329000Y-77724000D02*
X92329000Y-78105000D01*
X92329000Y-78105000D02*
X92329000Y-78232000D01*
X92329000Y-78232000D02*
X92329000Y-78359000D01*
X92202000Y-77597000D02*
X91821000Y-77597000D01*
X91821000Y-77597000D02*
X91567000Y-77597000D01*
X91567000Y-77597000D02*
X92075000Y-78486000D01*
X91821000Y-77597000D02*
X91821000Y-78105000D01*
X92329000Y-77724000D02*
X91694000Y-77724000D01*
X92456000Y-77851000D02*
X91694000Y-77851000D01*
X92456000Y-77978000D02*
X91694000Y-77978000D01*
X92329000Y-78105000D02*
X91694000Y-78105000D01*
X92329000Y-78232000D02*
X91821000Y-78232000D01*
X91567000Y-77470000D02*
X92456000Y-77470000D01*
X91567000Y-77343000D02*
X92456000Y-77343000D01*
X91567000Y-77216000D02*
X92329000Y-77216000D01*
X91567000Y-77089000D02*
X92329000Y-77089000D01*
X91440000Y-76962000D02*
X92329000Y-76962000D01*
X91440000Y-76835000D02*
X92202000Y-76835000D01*
X91313000Y-76708000D02*
X92075000Y-76708000D01*
X91313000Y-76581000D02*
X91948000Y-76581000D01*
X91186000Y-76454000D02*
X91694000Y-76454000D01*
X90424000Y-76327000D02*
X90551000Y-76327000D01*
X90551000Y-76327000D02*
X90678000Y-76327000D01*
X90678000Y-76327000D02*
X91567000Y-76327000D01*
X91186000Y-76200000D02*
X90424000Y-76200000D01*
X90932000Y-76073000D02*
X90297000Y-76073000D01*
X90805000Y-75946000D02*
X90297000Y-75946000D01*
X90678000Y-76327000D02*
X90678000Y-76835000D01*
X90551000Y-76327000D02*
X90551000Y-76835000D01*
X90932000Y-76835000D02*
X90424000Y-76835000D01*
X90932000Y-76962000D02*
X90424000Y-76962000D01*
X91059000Y-77089000D02*
X90424000Y-77089000D01*
X91059000Y-77216000D02*
X90297000Y-77216000D01*
X91059000Y-77343000D02*
X90297000Y-77343000D01*
X91059000Y-77470000D02*
X90297000Y-77470000D01*
X91059000Y-77597000D02*
X90297000Y-77597000D01*
X91059000Y-77724000D02*
X90297000Y-77724000D01*
X91059000Y-77851000D02*
X90297000Y-77851000D01*
X91135200Y-77978000D02*
X90297000Y-77978000D01*
X91186000Y-78105000D02*
X90424000Y-78105000D01*
X91186000Y-78232000D02*
X90551000Y-78232000D01*
X91313000Y-78359000D02*
X90678000Y-78359000D01*
X91440000Y-78486000D02*
X90932000Y-78486000D01*
X92455556Y-77875371D02*
G75*
G02*
X92202000Y-78486000I-865696J1511D01*
G01*
X91009020Y-76380180D02*
G75*
G02*
X91516200Y-77411580I-991420J-1127920D01*
G01*
X91926340Y-78516046D02*
G75*
G02*
X91516200Y-77419200I1118940J1043506D01*
G01*
X92203788Y-78614791D02*
G75*
G02*
X91899740Y-78488540I752J431051D01*
G01*
X91637340Y-78608613D02*
G75*
G02*
X91135200Y-77812900I709440J1003993D01*
G01*
X90755795Y-76474066D02*
G75*
G02*
X91109800Y-77464920I-1408755J-1061974D01*
G01*
X91288927Y-78614303D02*
G75*
G02*
X91089480Y-78590140I-1327J824263D01*
G01*
X91087497Y-78589453D02*
G75*
G02*
X90507820Y-78315820I205183J1185493D01*
G01*
X90483946Y-78293974D02*
G75*
G02*
X90170000Y-77536040I757934J757934D01*
G01*
X90170283Y-77536487D02*
G75*
G02*
X90241120Y-77167740I992857J447D01*
G01*
X90305148Y-76233136D02*
G75*
G02*
X90241120Y-77167740I-1478808J-368184D01*
G01*
X91607000Y-76254511D02*
G75*
G02*
X92329000Y-76898500I-601340J-1400909D01*
G01*
X92382794Y-76994321D02*
G75*
G02*
X92583000Y-77749400I-1323794J-755079D01*
G01*
X92584874Y-77749901D02*
G75*
G02*
X92499180Y-78193900I-1195674J501D01*
G01*
X92628720Y-78868612D02*
G75*
G02*
X92336620Y-78747620I0J413092D01*
G01*
X92986134Y-78718954D02*
G75*
G02*
X92628720Y-78867000I-357414J357414D01*
G01*
X93359258Y-78884710D02*
G75*
G02*
X93091000Y-78232000I653762J650170D01*
G01*
X93596978Y-79502280D02*
G75*
G02*
X93091000Y-78277720I1228842J1224560D01*
G01*
X97161379Y-74963186D02*
G75*
G02*
X95818960Y-75178920I-1812319J6992786D01*
G01*
X94037130Y-75752934D02*
G75*
G02*
X95300800Y-75252580I2134890J-3545866D01*
G01*
X92970641Y-76830765D02*
G75*
G02*
X94025720Y-75760580I3831299J-2722035D01*
G01*
X93090155Y-78105069D02*
G75*
G02*
X93210380Y-77167740I762845J378529D01*
G01*
X93381473Y-76979156D02*
G75*
G02*
X95935800Y-75709780I3654147J-4148444D01*
G01*
X98272541Y-74898778D02*
G75*
G02*
X96245680Y-75648820I-2631381J3997218D01*
G01*
X93538549Y-79190559D02*
G75*
G02*
X93091000Y-78105000I1086611J1083019D01*
G01*
X92964760Y-76453243D02*
G75*
G02*
X93024960Y-75775820I3049780J70363D01*
G01*
X93171736Y-75172585D02*
G75*
G02*
X95222060Y-73660000I2144304J-760715D01*
G01*
X99085952Y-73515522D02*
G75*
G02*
X97370900Y-73855580I-1268012J1900222D01*
G01*
X97059933Y-77439013D02*
G75*
G02*
X95194120Y-78105000I-1738813J1924813D01*
G01*
X99080464Y-75019447D02*
G75*
G02*
X97099120Y-77401420I-8344044J4925607D01*
G01*
X93367860Y-77828140D02*
G75*
G02*
X94086680Y-77830680I358140J-360680D01*
G01*
X94678500Y-78107066D02*
G75*
G02*
X94140020Y-77884020I0J761526D01*
G01*
X94996000Y-81915000D02*
G75*
G02*
X93472000Y-80391000I0J1524000D01*
G01*
X108331000Y-80391000D02*
G75*
G02*
X106807000Y-81915000I-1524000J0D01*
G01*
X106807000Y-78867000D02*
G75*
G02*
X108331000Y-80391000I0J-1524000D01*
G01*
X93472000Y-80391000D02*
G75*
G02*
X94996000Y-78867000I1524000J0D01*
G01*
D21*
%TO.C,Sign_RecycleBin_1*%
X177292000Y-78105000D02*
G75*
G03*
X177292000Y-78105000I-127000J0D01*
G01*
D10*
X178308000Y-74041000D02*
X178308000Y-74168000D01*
X178308000Y-74168000D02*
X177927000Y-74168000D01*
X177927000Y-74168000D02*
X177927000Y-74041000D01*
X177927000Y-74041000D02*
X178308000Y-74041000D01*
X178181000Y-75565000D02*
X177546000Y-75565000D01*
X178308000Y-75438000D02*
X177419000Y-75438000D01*
X177419000Y-75438000D02*
X177419000Y-75819000D01*
X177419000Y-75819000D02*
X178308000Y-75819000D01*
X178308000Y-75819000D02*
X178308000Y-75438000D01*
X176911000Y-75438000D02*
X176911000Y-75057000D01*
X176911000Y-75057000D02*
X176784000Y-75057000D01*
X176784000Y-75057000D02*
X176784000Y-75438000D01*
X176911000Y-75057000D02*
X176911000Y-75184000D01*
X176911000Y-74930000D02*
X176784000Y-75311000D01*
X176911000Y-75057000D02*
X176911000Y-75184000D01*
X177038000Y-74930000D02*
X177038000Y-75438000D01*
X177038000Y-75438000D02*
X176657000Y-75438000D01*
X176657000Y-75438000D02*
X176657000Y-74930000D01*
X179070000Y-74803000D02*
X179070000Y-74295000D01*
X179070000Y-74295000D02*
X178943000Y-74295000D01*
X178943000Y-74295000D02*
X178943000Y-74803000D01*
X177566609Y-78105000D02*
G75*
G03*
X177566609Y-78105000I-401609J0D01*
G01*
X177165000Y-77597000D02*
X177038000Y-75565000D01*
X179070000Y-78105000D02*
X179070000Y-78486000D01*
X179070000Y-78486000D02*
X178562000Y-78486000D01*
X178562000Y-78486000D02*
X178562000Y-78232000D01*
X179578000Y-74930000D02*
X176657000Y-74930000D01*
X179070000Y-78105000D02*
X179324000Y-75057000D01*
X179070000Y-78105000D02*
X177673000Y-78105000D01*
X180086000Y-78486000D02*
X176022000Y-74549000D01*
X180213000Y-74422000D02*
X176022000Y-78613000D01*
D22*
X180368200Y-79858400D02*
X175948600Y-79858400D01*
X175948600Y-79756800D02*
X180317400Y-79756800D01*
X180368200Y-79553600D02*
X175897800Y-79553600D01*
X180368200Y-79401200D02*
X175948600Y-79401200D01*
X175897800Y-79655200D02*
X180317400Y-79655200D01*
X175897800Y-79502800D02*
X180317400Y-79502800D01*
X180368200Y-79350400D02*
X175897800Y-79350400D01*
X175897800Y-79248800D02*
X180317400Y-79248800D01*
X175847000Y-79960000D02*
X180419000Y-79960000D01*
X180419000Y-79960000D02*
X180419000Y-79198000D01*
X180419000Y-79198000D02*
X175847000Y-79198000D01*
X175847000Y-79198000D02*
X175847000Y-79960000D01*
D10*
X177038000Y-74803000D02*
G75*
G02*
X179324000Y-74803000I1143000J-1143000D01*
G01*
D23*
%TO.C,Sign_PB-Free*%
X111031020Y-73233280D02*
X113464340Y-70812660D01*
D10*
X113994037Y-72069960D02*
G75*
G03*
X113994037Y-72069960I-1802237J0D01*
G01*
D24*
%TO.C,Sign_OSHW_8x8*%
X164571680Y-77901800D02*
X164238940Y-78633320D01*
X164571680Y-77993240D02*
X163390580Y-79006700D01*
X164457380Y-77856080D02*
X163840160Y-78183740D01*
X164137340Y-77436980D02*
X163527740Y-77543660D01*
X163301680Y-76278740D02*
X164023040Y-76426060D01*
X163542980Y-75585320D02*
X164198300Y-75951080D01*
X164411660Y-74716640D02*
X164830760Y-75303380D01*
X164998400Y-74465180D02*
X165219380Y-75150980D01*
X166263320Y-74449940D02*
X166095680Y-75059540D01*
X166697660Y-74709020D02*
X166522400Y-75067160D01*
X167695880Y-75486260D02*
X167238680Y-75775820D01*
X167871140Y-75966320D02*
X167429180Y-76126340D01*
X168196260Y-77210920D02*
X167490140Y-77083920D01*
X167947340Y-77856080D02*
X167383460Y-77376020D01*
X167281860Y-78755240D02*
X166916100Y-77993240D01*
X162491420Y-76702920D02*
X163959540Y-76789280D01*
X163482020Y-74518520D02*
X164594540Y-75585320D01*
X165747700Y-73461880D02*
X165742620Y-74975720D01*
X168008300Y-74437240D02*
X166946580Y-75544680D01*
X168993820Y-76723240D02*
X167576500Y-76662280D01*
X167957500Y-78927960D02*
X167104060Y-77906880D01*
D22*
X166941500Y-77497940D02*
X166634160Y-77764640D01*
X167271700Y-74584560D02*
X166288720Y-74091800D01*
X165092380Y-78089760D02*
X165214300Y-77805280D01*
X164955220Y-77635100D02*
X165209220Y-77800200D01*
X166456360Y-77632560D02*
X166230300Y-77807820D01*
X166824660Y-77518260D02*
X166565580Y-77856080D01*
X167048180Y-77297280D02*
X166954200Y-77467460D01*
X167048180Y-77297280D02*
X166954200Y-77467460D01*
X167185340Y-76443840D02*
X167053260Y-77266800D01*
X166761160Y-75707240D02*
X167180260Y-76438760D01*
X165889940Y-75277980D02*
X166761160Y-75707240D01*
X165074600Y-75445620D02*
X165889940Y-75285600D01*
X164564060Y-75874880D02*
X165074600Y-75445620D01*
X164330380Y-76547980D02*
X164564060Y-75874880D01*
X164335460Y-77053440D02*
X164335460Y-76535280D01*
X164711380Y-77764640D02*
X164335460Y-77053440D01*
X164889180Y-77886560D02*
X164711380Y-77764640D01*
X168160700Y-73865740D02*
X167276780Y-74587100D01*
X167916860Y-75219560D02*
X168518840Y-74310240D01*
X167921940Y-75214480D02*
X168308020Y-76212700D01*
X169451020Y-76481940D02*
X168335960Y-76235560D01*
X169308780Y-76426060D02*
X169308780Y-77076300D01*
X164932360Y-77828140D02*
X164404040Y-79209900D01*
X164541200Y-79507080D02*
X164927280Y-78526640D01*
X164012880Y-79179420D02*
X164541200Y-79507080D01*
X163329620Y-79512160D02*
X164150040Y-78983840D01*
X164193220Y-79207360D02*
X163316920Y-79827120D01*
X163306760Y-79822040D02*
X162623500Y-79131160D01*
X162910520Y-79047340D02*
X163395660Y-79578200D01*
X162877500Y-77411580D02*
X163258500Y-78392020D01*
X162981640Y-77444600D02*
X161858960Y-77233780D01*
X161843720Y-76255880D02*
X161846260Y-77213460D01*
X161927540Y-76997560D02*
X163034980Y-77221080D01*
X163230560Y-75227180D02*
X162864800Y-76095860D01*
X162615880Y-74345800D02*
X163319460Y-75336400D01*
X163314380Y-73647300D02*
X162620960Y-74338180D01*
X164330380Y-74322940D02*
X163319460Y-73649840D01*
X165016180Y-73936860D02*
X164211000Y-74274680D01*
X165232080Y-72847200D02*
X165006020Y-74018140D01*
X166197280Y-72847200D02*
X165232080Y-72847200D01*
X166207440Y-72854820D02*
X166408100Y-73880980D01*
X167195500Y-74249280D02*
X166291260Y-73870820D01*
X168130220Y-73601580D02*
X167159940Y-74317860D01*
X168816020Y-74317860D02*
X168142920Y-73604120D01*
X168795700Y-74353420D02*
X168201340Y-75206860D01*
X168534080Y-76037440D02*
X168198800Y-75204320D01*
X169603420Y-76235560D02*
X168432480Y-76032360D01*
X169600880Y-76238100D02*
X169600880Y-77223620D01*
X169600880Y-77231240D02*
X168529000Y-77426820D01*
X168838880Y-79138780D02*
X168241980Y-78275180D01*
X168109900Y-79834740D02*
X168831260Y-79141320D01*
X167276780Y-79263240D02*
X168102280Y-79827120D01*
X167264080Y-79273400D02*
X166918640Y-79494380D01*
X166880540Y-79476600D02*
X166230300Y-77807820D01*
D25*
X163314380Y-79667100D02*
X162760660Y-79121000D01*
X163380420Y-78226920D02*
X162760660Y-79113380D01*
X164503100Y-79293720D02*
X165077140Y-77853540D01*
X164165280Y-79108300D02*
X164503100Y-79293720D01*
X163329620Y-79674720D02*
X164165280Y-79108300D01*
X162974020Y-77315060D02*
X163380420Y-78226920D01*
X161960560Y-77144880D02*
X162974020Y-77315060D01*
X161960560Y-76309220D02*
X161960560Y-77144880D01*
X163042600Y-76080620D02*
X161960560Y-76309220D01*
X163382960Y-75143360D02*
X163042600Y-76080620D01*
X162765740Y-74353420D02*
X163382960Y-75143360D01*
X163319460Y-73804780D02*
X162765740Y-74350880D01*
X164223700Y-74437240D02*
X163319460Y-73802800D01*
X165138100Y-73992740D02*
X164236400Y-74442320D01*
X165351460Y-72974200D02*
X165138100Y-73992740D01*
X166118540Y-72953880D02*
X165333680Y-72953880D01*
X166110920Y-72966580D02*
X166316660Y-73980040D01*
X167215820Y-74406760D02*
X166370000Y-74000360D01*
X168104820Y-73764140D02*
X167276780Y-74416920D01*
D26*
X168653460Y-74322940D02*
X168153080Y-73789540D01*
D25*
X168643300Y-74345800D02*
X168087040Y-75196700D01*
X168414700Y-76113640D02*
X168066720Y-75247500D01*
X169463720Y-76329540D02*
X168445180Y-76149200D01*
D26*
X169451020Y-76342240D02*
X169456100Y-77129640D01*
D25*
X169461180Y-77119480D02*
X168511220Y-77337920D01*
X168483280Y-77360780D02*
X168125140Y-78244700D01*
X168658540Y-79121000D02*
X168125140Y-78287880D01*
D26*
X168673780Y-79121000D02*
X168109900Y-79659480D01*
D27*
X168097200Y-79659480D02*
X167317420Y-79128620D01*
D25*
X167307260Y-79110840D02*
X166989760Y-79316580D01*
D28*
X166961820Y-79296260D02*
X166410640Y-77873860D01*
D25*
X165066980Y-77851000D02*
G75*
G02*
X164696140Y-75986640I746760J1117600D01*
G01*
X164685980Y-76001880D02*
G75*
G02*
X166611300Y-75803760I1061720J-863600D01*
G01*
X166636700Y-75829160D02*
G75*
G02*
X166560500Y-77683360I-965200J-889000D01*
G01*
D10*
%TO.C,Sign_Antistatic*%
X119634000Y-85852000D02*
X123190000Y-92964000D01*
X123190000Y-92964000D02*
X116078000Y-92964000D01*
X116078000Y-92964000D02*
X117411500Y-90297000D01*
X117411500Y-90297000D02*
X117856000Y-89408000D01*
X117856000Y-89408000D02*
X119634000Y-85852000D01*
X121412000Y-89471500D02*
X116078000Y-92964000D01*
X119037100Y-89408000D02*
X117856000Y-89408000D01*
X117411500Y-90297000D02*
X117729000Y-90297000D01*
X120396000Y-91884500D02*
X120243600Y-91884500D01*
X121348500Y-90487500D02*
X121348500Y-91567000D01*
X120904000Y-91884500D02*
X120904000Y-91757500D01*
X120967500Y-91694000D02*
X120967500Y-90678000D01*
X120967500Y-91694000D02*
X121031000Y-91694000D01*
X121031000Y-91694000D02*
G75*
G02*
X121158000Y-91821000I0J-127000D01*
G01*
X120904000Y-91757500D02*
G75*
G02*
X120967500Y-91694000I63500J0D01*
G01*
X120965071Y-91950545D02*
G75*
G02*
X120904000Y-91884500I2429J63505D01*
G01*
X121348500Y-91567000D02*
G75*
G02*
X120967500Y-91948000I-381000J0D01*
G01*
X121159048Y-90171575D02*
G75*
G02*
X121348500Y-90487500I-168688J-315925D01*
G01*
X121156549Y-90170142D02*
G75*
G02*
X120840500Y-89852500I478971J792622D01*
G01*
X120965935Y-90679845D02*
G75*
G02*
X120269000Y-90233500I153965J1007685D01*
G01*
X120522068Y-91440674D02*
G75*
G02*
X120523000Y-91757500I-316568J-159346D01*
G01*
X120522967Y-91757600D02*
G75*
G02*
X120396000Y-91884500I-190467J63600D01*
G01*
X119194275Y-90996493D02*
G75*
G02*
X119634000Y-91122500I-825195J-3709947D01*
G01*
X119633915Y-91123965D02*
G75*
G02*
X120205500Y-91884500I-284395J-808795D01*
G01*
X119571708Y-90679166D02*
G75*
G02*
X120523000Y-91440000I-285688J-1332334D01*
G01*
X119059461Y-90933576D02*
G75*
G02*
X118237000Y-90487500I147819J1253796D01*
G01*
X117728301Y-90297474D02*
G75*
G02*
X118237000Y-90487500I64199J-604046D01*
G01*
X119252915Y-89346114D02*
G75*
G02*
X119037100Y-89408000I-182795J230214D01*
G01*
X119253721Y-89344678D02*
G75*
G02*
X120840500Y-89852500I466639J-1274902D01*
G01*
D29*
%TO.C,Logo_OLIMEX_TB*%
X197243700Y-73736200D02*
X195872100Y-73736200D01*
X195872100Y-73736200D02*
X195821300Y-73736200D01*
X195821300Y-73736200D02*
X194564000Y-74980800D01*
X198767700Y-73850500D02*
X198666100Y-73850500D01*
X198615300Y-73787000D02*
X198615300Y-73774300D01*
X198615300Y-73774300D02*
X199910700Y-73774300D01*
X199910700Y-73774300D02*
X199936100Y-73774300D01*
X199936100Y-73774300D02*
X200558400Y-74269600D01*
X198615300Y-76796900D02*
X198615300Y-73787000D01*
X202272900Y-73837800D02*
X202349100Y-73837800D01*
X202425300Y-73774300D02*
X201180700Y-73774300D01*
X201180700Y-73774300D02*
X200596500Y-74256900D01*
X202425300Y-76771500D02*
X202425300Y-73787000D01*
X203161900Y-76365100D02*
X203073000Y-76365100D01*
X203504800Y-76365100D02*
X203568300Y-76365100D01*
X203644500Y-76428600D02*
X203034900Y-76428600D01*
X203034900Y-76428600D02*
X203009500Y-76428600D01*
X203009500Y-76428600D02*
X203009500Y-74409300D01*
X203644500Y-74409300D02*
X203644500Y-76428600D01*
X205143100Y-73799700D02*
X205028800Y-73799700D01*
X205270100Y-73723500D02*
X204965300Y-73723500D01*
X204965300Y-73723500D02*
X204965300Y-76758800D01*
X205447900Y-73812400D02*
X205511400Y-73799700D01*
X205562200Y-73723500D02*
X205574900Y-73723500D01*
X205574900Y-73723500D02*
X205587600Y-73723500D01*
X205587600Y-73723500D02*
X205587600Y-76873100D01*
X205282800Y-73723500D02*
X205562200Y-73723500D01*
D30*
X205282800Y-76796900D02*
X205282800Y-74066400D01*
X198945500Y-74079100D02*
X198945500Y-76682600D01*
X207060800Y-74066400D02*
X208064100Y-74066400D01*
X206438500Y-74676000D02*
X206438500Y-76606400D01*
X208661000Y-74714100D02*
X208661000Y-74955400D01*
X208661000Y-76682600D02*
X208076800Y-77254100D01*
X208648300Y-76695300D02*
X208648300Y-75933300D01*
X208089500Y-77254100D02*
X207048100Y-77254100D01*
D27*
X196320659Y-75641200D02*
G75*
G03*
X196320659Y-75641200I-359659J0D01*
G01*
D30*
X196469000Y-75641200D02*
X197688200Y-75641200D01*
D27*
X193386735Y-73901300D02*
G75*
G03*
X193386735Y-73901300I-359435J0D01*
G01*
D30*
X193395600Y-74256900D02*
X194259200Y-75150600D01*
D31*
X194818000Y-75247500D02*
X194259200Y-75247500D01*
D30*
X195935600Y-74066400D02*
X194843400Y-75133200D01*
X197157500Y-74066400D02*
X195935600Y-74066400D01*
X197688200Y-74549000D02*
X197205600Y-74041000D01*
X197688200Y-74574400D02*
X197688200Y-76809600D01*
X197688200Y-76809600D02*
X197256400Y-77241400D01*
X197256400Y-77241400D02*
X195935600Y-77241400D01*
X195935600Y-77241400D02*
X194792600Y-76123800D01*
D31*
X194792600Y-76022200D02*
X194259200Y-76022200D01*
D30*
X193446400Y-76936600D02*
X194284600Y-76123800D01*
D27*
X193445666Y-77292200D02*
G75*
G03*
X193445666Y-77292200I-329466J0D01*
G01*
X199308729Y-77203300D02*
G75*
G03*
X199308729Y-77203300I-363229J0D01*
G01*
D30*
X199847200Y-74091800D02*
X198958200Y-74091800D01*
D27*
X200929318Y-75920600D02*
G75*
G03*
X200929318Y-75920600I-370918J0D01*
G01*
D30*
X200482200Y-74599800D02*
X199847200Y-74091800D01*
X200558400Y-75387200D02*
X200558400Y-74676000D01*
X201269600Y-74091800D02*
X200660000Y-74599800D01*
X202107800Y-74091800D02*
X201269600Y-74091800D01*
X202107800Y-76682600D02*
X202107800Y-74091800D01*
D27*
X202454759Y-77190600D02*
G75*
G03*
X202454759Y-77190600I-359659J0D01*
G01*
X203687818Y-73990200D02*
G75*
G03*
X203687818Y-73990200I-373518J0D01*
G01*
D30*
X203327000Y-74523600D02*
X203327000Y-76123800D01*
D27*
X203693324Y-77216000D02*
G75*
G03*
X203693324Y-77216000I-366324J0D01*
G01*
D30*
X203839800Y-77241400D02*
X204825600Y-77241400D01*
X204825600Y-77241400D02*
X205282800Y-76784200D01*
X206451200Y-76644500D02*
X207010000Y-77228700D01*
X207060800Y-74079100D02*
X206425800Y-74688700D01*
X208661000Y-74663300D02*
X208153000Y-74155300D01*
D27*
X208985747Y-75438000D02*
G75*
G03*
X208985747Y-75438000I-337447J0D01*
G01*
D10*
%TO.C,Sign_CE*%
X121765000Y-69755000D02*
X121765000Y-70255000D01*
X121765000Y-73255000D02*
X121765000Y-73755000D01*
X118265000Y-73255000D02*
X118265000Y-73755000D01*
X118265000Y-69755000D02*
X118265000Y-70255000D01*
X119765000Y-71505000D02*
X118515000Y-71505000D01*
X118515000Y-71505000D02*
X118515000Y-72005000D01*
X118515000Y-72005000D02*
X119765000Y-72005000D01*
X118515000Y-71755000D02*
X119765000Y-71755000D01*
X118265000Y-73755000D02*
G75*
G03*
X118265000Y-69755000I0J2000000D01*
G01*
D32*
X118314980Y-73505000D02*
G75*
G03*
X118315000Y-70005000I-49980J1750000D01*
G01*
D10*
X118265000Y-73255000D02*
G75*
G03*
X118265000Y-70255000I0J1500000D01*
G01*
D32*
X121814980Y-73505000D02*
G75*
G03*
X121815000Y-70005000I-49980J1750000D01*
G01*
D10*
X121765000Y-73755000D02*
G75*
G03*
X121765000Y-69755000I0J2000000D01*
G01*
X121765000Y-73255000D02*
G75*
G03*
X121765000Y-70255000I0J1500000D01*
G01*
%TO.C,Sign_RoHS_1*%
D33*
X106364193Y-81076800D02*
X106448860Y-81161466D01*
X106702860Y-81246133D01*
X106872193Y-81246133D01*
X107126193Y-81161466D01*
X107295526Y-80992133D01*
X107380193Y-80822800D01*
X107464860Y-80484133D01*
X107464860Y-80230133D01*
X107380193Y-79891466D01*
X107295526Y-79722133D01*
X107126193Y-79552800D01*
X106872193Y-79468133D01*
X106702860Y-79468133D01*
X106448860Y-79552800D01*
X106364193Y-79637466D01*
X105348193Y-81246133D02*
X105517526Y-81161466D01*
X105602193Y-81076800D01*
X105686860Y-80907466D01*
X105686860Y-80399466D01*
X105602193Y-80230133D01*
X105517526Y-80145466D01*
X105348193Y-80060800D01*
X105094193Y-80060800D01*
X104924860Y-80145466D01*
X104840193Y-80230133D01*
X104755526Y-80399466D01*
X104755526Y-80907466D01*
X104840193Y-81076800D01*
X104924860Y-81161466D01*
X105094193Y-81246133D01*
X105348193Y-81246133D01*
X103993526Y-81246133D02*
X103993526Y-80060800D01*
X103993526Y-80230133D02*
X103908860Y-80145466D01*
X103739526Y-80060800D01*
X103485526Y-80060800D01*
X103316193Y-80145466D01*
X103231526Y-80314800D01*
X103231526Y-81246133D01*
X103231526Y-80314800D02*
X103146860Y-80145466D01*
X102977526Y-80060800D01*
X102723526Y-80060800D01*
X102554193Y-80145466D01*
X102469526Y-80314800D01*
X102469526Y-81246133D01*
X101622860Y-80060800D02*
X101622860Y-81838800D01*
X101622860Y-80145466D02*
X101453526Y-80060800D01*
X101114860Y-80060800D01*
X100945526Y-80145466D01*
X100860860Y-80230133D01*
X100776193Y-80399466D01*
X100776193Y-80907466D01*
X100860860Y-81076800D01*
X100945526Y-81161466D01*
X101114860Y-81246133D01*
X101453526Y-81246133D01*
X101622860Y-81161466D01*
X99760193Y-81246133D02*
X99929526Y-81161466D01*
X100014193Y-80992133D01*
X100014193Y-79468133D01*
X99082860Y-81246133D02*
X99082860Y-80060800D01*
X99082860Y-79468133D02*
X99167526Y-79552800D01*
X99082860Y-79637466D01*
X98998193Y-79552800D01*
X99082860Y-79468133D01*
X99082860Y-79637466D01*
X97474193Y-81246133D02*
X97474193Y-80314800D01*
X97558860Y-80145466D01*
X97728193Y-80060800D01*
X98066860Y-80060800D01*
X98236193Y-80145466D01*
X97474193Y-81161466D02*
X97643526Y-81246133D01*
X98066860Y-81246133D01*
X98236193Y-81161466D01*
X98320860Y-80992133D01*
X98320860Y-80822800D01*
X98236193Y-80653466D01*
X98066860Y-80568800D01*
X97643526Y-80568800D01*
X97474193Y-80484133D01*
X96627526Y-80060800D02*
X96627526Y-81246133D01*
X96627526Y-80230133D02*
X96542860Y-80145466D01*
X96373526Y-80060800D01*
X96119526Y-80060800D01*
X95950193Y-80145466D01*
X95865526Y-80314800D01*
X95865526Y-81246133D01*
X95272860Y-80060800D02*
X94595526Y-80060800D01*
X95018860Y-79468133D02*
X95018860Y-80992133D01*
X94934193Y-81161466D01*
X94764860Y-81246133D01*
X94595526Y-81246133D01*
D31*
X105785634Y-78141081D02*
X106452300Y-77188700D01*
X106928491Y-78141081D02*
X106928491Y-76141081D01*
X106166586Y-76141081D01*
X105976110Y-76236320D01*
X105880872Y-76331558D01*
X105785634Y-76522034D01*
X105785634Y-76807748D01*
X105880872Y-76998224D01*
X105976110Y-77093462D01*
X106166586Y-77188700D01*
X106928491Y-77188700D01*
X104642777Y-78141081D02*
X104833253Y-78045843D01*
X104928491Y-77950605D01*
X105023729Y-77760129D01*
X105023729Y-77188700D01*
X104928491Y-76998224D01*
X104833253Y-76902986D01*
X104642777Y-76807748D01*
X104357062Y-76807748D01*
X104166586Y-76902986D01*
X104071348Y-76998224D01*
X103976110Y-77188700D01*
X103976110Y-77760129D01*
X104071348Y-77950605D01*
X104166586Y-78045843D01*
X104357062Y-78141081D01*
X104642777Y-78141081D01*
X103118967Y-78141081D02*
X103118967Y-76141081D01*
X103118967Y-77093462D02*
X101976110Y-77093462D01*
X101976110Y-78141081D02*
X101976110Y-76141081D01*
X101118967Y-78045843D02*
X100833253Y-78141081D01*
X100357062Y-78141081D01*
X100166586Y-78045843D01*
X100071348Y-77950605D01*
X99976110Y-77760129D01*
X99976110Y-77569653D01*
X100071348Y-77379177D01*
X100166586Y-77283939D01*
X100357062Y-77188700D01*
X100738015Y-77093462D01*
X100928491Y-76998224D01*
X101023729Y-76902986D01*
X101118967Y-76712510D01*
X101118967Y-76522034D01*
X101023729Y-76331558D01*
X100928491Y-76236320D01*
X100738015Y-76141081D01*
X100261824Y-76141081D01*
X99976110Y-76236320D01*
%TO.C,Sign_PB-Free*%
D10*
X113380068Y-72859327D02*
X113380068Y-71159327D01*
X112808640Y-71159327D01*
X112665782Y-71240280D01*
X112594354Y-71321232D01*
X112522925Y-71483137D01*
X112522925Y-71725994D01*
X112594354Y-71887899D01*
X112665782Y-71968851D01*
X112808640Y-72049803D01*
X113380068Y-72049803D01*
X111880068Y-72859327D02*
X111880068Y-71159327D01*
X111880068Y-71806946D02*
X111737211Y-71725994D01*
X111451497Y-71725994D01*
X111308640Y-71806946D01*
X111237211Y-71887899D01*
X111165782Y-72049803D01*
X111165782Y-72535518D01*
X111237211Y-72697422D01*
X111308640Y-72778375D01*
X111451497Y-72859327D01*
X111737211Y-72859327D01*
X111880068Y-72778375D01*
%TO.C,Sign_OSHW_8x8*%
X170681298Y-81508379D02*
X170786060Y-81455998D01*
X170838440Y-81403617D01*
X170890821Y-81298855D01*
X170890821Y-80984569D01*
X170838440Y-80879807D01*
X170786060Y-80827426D01*
X170681298Y-80775045D01*
X170524155Y-80775045D01*
X170419393Y-80827426D01*
X170367012Y-80879807D01*
X170314631Y-80984569D01*
X170314631Y-81298855D01*
X170367012Y-81403617D01*
X170419393Y-81455998D01*
X170524155Y-81508379D01*
X170681298Y-81508379D01*
X169843202Y-80775045D02*
X169843202Y-81875045D01*
X169843202Y-80827426D02*
X169738440Y-80775045D01*
X169528917Y-80775045D01*
X169424155Y-80827426D01*
X169371774Y-80879807D01*
X169319393Y-80984569D01*
X169319393Y-81298855D01*
X169371774Y-81403617D01*
X169424155Y-81455998D01*
X169528917Y-81508379D01*
X169738440Y-81508379D01*
X169843202Y-81455998D01*
X168428917Y-81455998D02*
X168533679Y-81508379D01*
X168743202Y-81508379D01*
X168847964Y-81455998D01*
X168900345Y-81351236D01*
X168900345Y-80932188D01*
X168847964Y-80827426D01*
X168743202Y-80775045D01*
X168533679Y-80775045D01*
X168428917Y-80827426D01*
X168376536Y-80932188D01*
X168376536Y-81036950D01*
X168900345Y-81141712D01*
X167905107Y-80775045D02*
X167905107Y-81508379D01*
X167905107Y-80879807D02*
X167852726Y-80827426D01*
X167747964Y-80775045D01*
X167590821Y-80775045D01*
X167486060Y-80827426D01*
X167433679Y-80932188D01*
X167433679Y-81508379D01*
D34*
X166365797Y-81554580D02*
X166365797Y-80554580D01*
X165937225Y-81554580D02*
X165937225Y-81030771D01*
X165984844Y-80935533D01*
X166080082Y-80887914D01*
X166222940Y-80887914D01*
X166318178Y-80935533D01*
X166365797Y-80983152D01*
X165032463Y-81554580D02*
X165032463Y-81030771D01*
X165080082Y-80935533D01*
X165175320Y-80887914D01*
X165365797Y-80887914D01*
X165461035Y-80935533D01*
X165032463Y-81506961D02*
X165127701Y-81554580D01*
X165365797Y-81554580D01*
X165461035Y-81506961D01*
X165508654Y-81411723D01*
X165508654Y-81316485D01*
X165461035Y-81221247D01*
X165365797Y-81173628D01*
X165127701Y-81173628D01*
X165032463Y-81126009D01*
X164556273Y-81554580D02*
X164556273Y-80887914D01*
X164556273Y-81078390D02*
X164508654Y-80983152D01*
X164461035Y-80935533D01*
X164365797Y-80887914D01*
X164270559Y-80887914D01*
X163508654Y-81554580D02*
X163508654Y-80554580D01*
X163508654Y-81506961D02*
X163603892Y-81554580D01*
X163794368Y-81554580D01*
X163889606Y-81506961D01*
X163937225Y-81459342D01*
X163984844Y-81364104D01*
X163984844Y-81078390D01*
X163937225Y-80983152D01*
X163889606Y-80935533D01*
X163794368Y-80887914D01*
X163603892Y-80887914D01*
X163508654Y-80935533D01*
X163127701Y-80887914D02*
X162937225Y-81554580D01*
X162746749Y-81078390D01*
X162556273Y-81554580D01*
X162365797Y-80887914D01*
X161556273Y-81554580D02*
X161556273Y-81030771D01*
X161603892Y-80935533D01*
X161699130Y-80887914D01*
X161889606Y-80887914D01*
X161984844Y-80935533D01*
X161556273Y-81506961D02*
X161651511Y-81554580D01*
X161889606Y-81554580D01*
X161984844Y-81506961D01*
X162032463Y-81411723D01*
X162032463Y-81316485D01*
X161984844Y-81221247D01*
X161889606Y-81173628D01*
X161651511Y-81173628D01*
X161556273Y-81126009D01*
X161080082Y-81554580D02*
X161080082Y-80887914D01*
X161080082Y-81078390D02*
X161032463Y-80983152D01*
X160984844Y-80935533D01*
X160889606Y-80887914D01*
X160794368Y-80887914D01*
X160080082Y-81506961D02*
X160175320Y-81554580D01*
X160365797Y-81554580D01*
X160461035Y-81506961D01*
X160508654Y-81411723D01*
X160508654Y-81030771D01*
X160461035Y-80935533D01*
X160365797Y-80887914D01*
X160175320Y-80887914D01*
X160080082Y-80935533D01*
X160032463Y-81030771D01*
X160032463Y-81126009D01*
X160508654Y-81221247D01*
%TD*%
M02*
