%TF.GenerationSoftware,KiCad,Pcbnew,5.1.6-c6e7f7d~87~ubuntu18.04.1*%
%TF.CreationDate,2022-06-17T15:59:17+03:00*%
%TF.ProjectId,USB-4SERIAL_Rev_B,5553422d-3453-4455-9249-414c5f526576,B*%
%TF.SameCoordinates,Original*%
%TF.FileFunction,Soldermask,Top*%
%TF.FilePolarity,Negative*%
%FSLAX46Y46*%
G04 Gerber Fmt 4.6, Leading zero omitted, Abs format (unit mm)*
G04 Created by KiCad (PCBNEW 5.1.6-c6e7f7d~87~ubuntu18.04.1) date 2022-06-17 15:59:17*
%MOMM*%
%LPD*%
G01*
G04 APERTURE LIST*
%ADD10R,2.101600X1.201600*%
%ADD11R,2.301600X1.201600*%
%ADD12C,0.701600*%
%ADD13R,1.251600X0.351600*%
%ADD14O,2.301600X1.301600*%
%ADD15O,2.101600X1.401600*%
%ADD16R,1.251600X0.401600*%
%ADD17R,0.601600X0.651600*%
%ADD18R,1.501600X1.101600*%
%ADD19C,1.879600*%
%ADD20R,1.879600X1.879600*%
%ADD21O,1.879600X1.879600*%
%ADD22C,3.401601*%
%ADD23C,2.641600*%
%ADD24C,1.901600*%
%ADD25R,1.901600X1.901600*%
%ADD26C,5.601600*%
%ADD27C,2.301600*%
%ADD28R,1.117600X1.117600*%
%ADD29C,1.254000*%
%ADD30R,1.371600X1.625600*%
%ADD31R,3.701600X2.301600*%
%ADD32R,1.320800X2.336800*%
%ADD33R,0.901600X0.901600*%
%ADD34C,0.100000*%
%ADD35R,0.651600X0.601600*%
%ADD36R,0.736600X1.701600*%
%ADD37R,4.927600X1.201600*%
%ADD38R,0.751600X1.151600*%
%ADD39R,0.701600X2.301600*%
%ADD40R,1.879600X1.625600*%
%ADD41R,1.101600X1.501600*%
G04 APERTURE END LIST*
D10*
%TO.C,USB-C1*%
X78860000Y-81127600D03*
D11*
X83040000Y-81127600D03*
D10*
X78860000Y-71272400D03*
D11*
X83040000Y-71272400D03*
D12*
X82540000Y-79090000D03*
D13*
X83942000Y-74450000D03*
X83942000Y-74950000D03*
X83942000Y-75450000D03*
X83942000Y-77950000D03*
X83942000Y-76450000D03*
X83942000Y-77450000D03*
X83942000Y-76950000D03*
X83942000Y-75950000D03*
D14*
X83040000Y-80520000D03*
D15*
X78860000Y-80520000D03*
X78860000Y-71880000D03*
D12*
X82540000Y-73310000D03*
D14*
X83040000Y-71880000D03*
D16*
X83942000Y-73925000D03*
X83942000Y-78475000D03*
X83942000Y-73675000D03*
X83942000Y-78725000D03*
X83942000Y-73125000D03*
X83942000Y-79275000D03*
X83942000Y-72875000D03*
X83942000Y-79525000D03*
%TD*%
D17*
%TO.C,C9*%
X88265000Y-84201000D03*
X89281000Y-84201000D03*
%TD*%
D18*
%TO.C,D1*%
X102362000Y-78989000D03*
X102362000Y-75189000D03*
%TD*%
D19*
%TO.C,GPIO_EXT1*%
X179070000Y-90170000D03*
X176530000Y-90170000D03*
X173990000Y-90170000D03*
D20*
X171450000Y-90170000D03*
%TD*%
D19*
%TO.C,JUMPERS1*%
X207645000Y-90170000D03*
D21*
X202565000Y-90170000D03*
D19*
X205105000Y-90170000D03*
X207645000Y-92710000D03*
X205105000Y-92710000D03*
D20*
X202565000Y-92710000D03*
%TD*%
D19*
%TO.C,RS232_4\u005CRS485*%
X194310000Y-90170000D03*
X191770000Y-90170000D03*
D20*
X189230000Y-90170000D03*
%TD*%
D22*
%TO.C,MH1*%
X80010000Y-90170000D03*
%TD*%
%TO.C,MH2*%
X222250000Y-90170000D03*
%TD*%
%TO.C,MH3*%
X222250000Y-62230000D03*
%TD*%
%TO.C,MH4*%
X80010000Y-62230000D03*
%TD*%
D23*
%TO.C,RS485*%
X222885000Y-81200000D03*
X222885000Y-71200000D03*
X222885000Y-76200000D03*
%TD*%
D24*
%TO.C,Serial2*%
X143510000Y-90170000D03*
X140970000Y-90170000D03*
D25*
X138430000Y-90170000D03*
%TD*%
D24*
%TO.C,Serial3*%
X153670000Y-90170000D03*
X151130000Y-90170000D03*
D25*
X148590000Y-90170000D03*
%TD*%
D24*
%TO.C,Serial4*%
X163830000Y-90170000D03*
X161290000Y-90170000D03*
D25*
X158750000Y-90170000D03*
%TD*%
D24*
%TO.C,Serial1*%
X133350000Y-90170000D03*
X130810000Y-90170000D03*
D25*
X128270000Y-90170000D03*
%TD*%
D19*
%TO.C,+5V_USB1*%
X87630000Y-92710000D03*
%TD*%
%TO.C,3.3V1*%
X102870000Y-90170000D03*
%TD*%
D20*
%TO.C,GND1*%
X85090000Y-92710000D03*
%TD*%
%TO.C,GND2*%
X102870000Y-92710000D03*
%TD*%
D19*
%TO.C,T2IN1*%
X155575000Y-71120000D03*
%TD*%
%TO.C,T2OUT1*%
X149225000Y-71120000D03*
%TD*%
%TO.C,ISP1*%
X110490000Y-92710000D03*
%TD*%
%TO.C,RST#1*%
X85090000Y-90170000D03*
%TD*%
D24*
%TO.C,FW_Upgr1*%
X107950000Y-92710000D03*
D25*
X105410000Y-92710000D03*
%TD*%
D26*
%TO.C,RS232_1*%
X112217200Y-66040000D03*
X87172800Y-66040000D03*
D27*
X95580200Y-64770000D03*
X98323400Y-64770000D03*
X101066600Y-64770000D03*
X103809800Y-64770000D03*
X94208600Y-67310000D03*
X96951800Y-67310000D03*
X99695000Y-67310000D03*
X102438200Y-67310000D03*
X105181400Y-67310000D03*
%TD*%
D28*
%TO.C,C13*%
X89027000Y-79121000D03*
X89027000Y-80899000D03*
%TD*%
D17*
%TO.C,C4*%
X122555000Y-81153000D03*
X121539000Y-81153000D03*
%TD*%
%TO.C,C5*%
X112903000Y-91567000D03*
X113919000Y-91567000D03*
%TD*%
%TO.C,C1*%
X119761000Y-91567000D03*
X118745000Y-91567000D03*
%TD*%
D29*
%TO.C,FID1*%
X77470000Y-92710000D03*
%TD*%
%TO.C,FID2*%
X77470000Y-59690000D03*
%TD*%
%TO.C,FID3*%
X224790000Y-59690000D03*
%TD*%
D30*
%TO.C,L1*%
X90932000Y-78613000D03*
X90932000Y-80645000D03*
%TD*%
D31*
%TO.C,VR1*%
X94869000Y-89713000D03*
D32*
X92557600Y-83515200D03*
X94869000Y-83515200D03*
X97180400Y-83515200D03*
%TD*%
D17*
%TO.C,C6*%
X106807000Y-83439000D03*
X107823000Y-83439000D03*
%TD*%
%TO.C,C2*%
X113919000Y-79502000D03*
X112903000Y-79502000D03*
%TD*%
%TO.C,C3*%
X106807000Y-81915000D03*
X107823000Y-81915000D03*
%TD*%
D28*
%TO.C,C10*%
X106426000Y-78613000D03*
X108204000Y-78613000D03*
%TD*%
D17*
%TO.C,C8*%
X122047000Y-91567000D03*
X121031000Y-91567000D03*
%TD*%
D28*
%TO.C,C7*%
X122428000Y-90170000D03*
X120650000Y-90170000D03*
%TD*%
D33*
%TO.C,PWR_LED1*%
X90805000Y-72644000D03*
X90805000Y-71120000D03*
%TD*%
D28*
%TO.C,R3*%
X87503000Y-79121000D03*
X87503000Y-80899000D03*
%TD*%
D34*
%TO.C,U1*%
G36*
X114703812Y-91366722D02*
G01*
X114452365Y-91115275D01*
X115514156Y-90053484D01*
X115765603Y-90304931D01*
X114703812Y-91366722D01*
G37*
G36*
X114350259Y-91013168D02*
G01*
X114098812Y-90761721D01*
X115160603Y-89699930D01*
X115412050Y-89951377D01*
X114350259Y-91013168D01*
G37*
G36*
X113996706Y-90659615D02*
G01*
X113745259Y-90408168D01*
X114807050Y-89346377D01*
X115058497Y-89597824D01*
X113996706Y-90659615D01*
G37*
G36*
X113643152Y-90306062D02*
G01*
X113391705Y-90054615D01*
X114453496Y-88992824D01*
X114704943Y-89244271D01*
X113643152Y-90306062D01*
G37*
G36*
X113289599Y-89952508D02*
G01*
X113038152Y-89701061D01*
X114099943Y-88639270D01*
X114351390Y-88890717D01*
X113289599Y-89952508D01*
G37*
G36*
X112936046Y-89598955D02*
G01*
X112684599Y-89347508D01*
X113746390Y-88285717D01*
X113997837Y-88537164D01*
X112936046Y-89598955D01*
G37*
G36*
X112582492Y-89245401D02*
G01*
X112331045Y-88993954D01*
X113392836Y-87932163D01*
X113644283Y-88183610D01*
X112582492Y-89245401D01*
G37*
G36*
X112228939Y-88891848D02*
G01*
X111977492Y-88640401D01*
X113039283Y-87578610D01*
X113290730Y-87830057D01*
X112228939Y-88891848D01*
G37*
G36*
X111875385Y-88538295D02*
G01*
X111623938Y-88286848D01*
X112685729Y-87225057D01*
X112937176Y-87476504D01*
X111875385Y-88538295D01*
G37*
G36*
X111521832Y-88184741D02*
G01*
X111270385Y-87933294D01*
X112332176Y-86871503D01*
X112583623Y-87122950D01*
X111521832Y-88184741D01*
G37*
G36*
X111168279Y-87831188D02*
G01*
X110916832Y-87579741D01*
X111978623Y-86517950D01*
X112230070Y-86769397D01*
X111168279Y-87831188D01*
G37*
G36*
X110814725Y-87477635D02*
G01*
X110563278Y-87226188D01*
X111625069Y-86164397D01*
X111876516Y-86415844D01*
X110814725Y-87477635D01*
G37*
G36*
X110563278Y-84223812D02*
G01*
X110814725Y-83972365D01*
X111876516Y-85034156D01*
X111625069Y-85285603D01*
X110563278Y-84223812D01*
G37*
G36*
X110916832Y-83870259D02*
G01*
X111168279Y-83618812D01*
X112230070Y-84680603D01*
X111978623Y-84932050D01*
X110916832Y-83870259D01*
G37*
G36*
X111270385Y-83516706D02*
G01*
X111521832Y-83265259D01*
X112583623Y-84327050D01*
X112332176Y-84578497D01*
X111270385Y-83516706D01*
G37*
G36*
X111623938Y-83163152D02*
G01*
X111875385Y-82911705D01*
X112937176Y-83973496D01*
X112685729Y-84224943D01*
X111623938Y-83163152D01*
G37*
G36*
X111977492Y-82809599D02*
G01*
X112228939Y-82558152D01*
X113290730Y-83619943D01*
X113039283Y-83871390D01*
X111977492Y-82809599D01*
G37*
G36*
X112331045Y-82456046D02*
G01*
X112582492Y-82204599D01*
X113644283Y-83266390D01*
X113392836Y-83517837D01*
X112331045Y-82456046D01*
G37*
G36*
X112684599Y-82102492D02*
G01*
X112936046Y-81851045D01*
X113997837Y-82912836D01*
X113746390Y-83164283D01*
X112684599Y-82102492D01*
G37*
G36*
X113038152Y-81748939D02*
G01*
X113289599Y-81497492D01*
X114351390Y-82559283D01*
X114099943Y-82810730D01*
X113038152Y-81748939D01*
G37*
G36*
X113391705Y-81395385D02*
G01*
X113643152Y-81143938D01*
X114704943Y-82205729D01*
X114453496Y-82457176D01*
X113391705Y-81395385D01*
G37*
G36*
X113745259Y-81041832D02*
G01*
X113996706Y-80790385D01*
X115058497Y-81852176D01*
X114807050Y-82103623D01*
X113745259Y-81041832D01*
G37*
G36*
X114098812Y-80688279D02*
G01*
X114350259Y-80436832D01*
X115412050Y-81498623D01*
X115160603Y-81750070D01*
X114098812Y-80688279D01*
G37*
G36*
X114452365Y-80334725D02*
G01*
X114703812Y-80083278D01*
X115765603Y-81145069D01*
X115514156Y-81396516D01*
X114452365Y-80334725D01*
G37*
G36*
X117706188Y-80083278D02*
G01*
X117957635Y-80334725D01*
X116895844Y-81396516D01*
X116644397Y-81145069D01*
X117706188Y-80083278D01*
G37*
G36*
X118059741Y-80436832D02*
G01*
X118311188Y-80688279D01*
X117249397Y-81750070D01*
X116997950Y-81498623D01*
X118059741Y-80436832D01*
G37*
G36*
X118413294Y-80790385D02*
G01*
X118664741Y-81041832D01*
X117602950Y-82103623D01*
X117351503Y-81852176D01*
X118413294Y-80790385D01*
G37*
G36*
X118766848Y-81143938D02*
G01*
X119018295Y-81395385D01*
X117956504Y-82457176D01*
X117705057Y-82205729D01*
X118766848Y-81143938D01*
G37*
G36*
X119120401Y-81497492D02*
G01*
X119371848Y-81748939D01*
X118310057Y-82810730D01*
X118058610Y-82559283D01*
X119120401Y-81497492D01*
G37*
G36*
X119473954Y-81851045D02*
G01*
X119725401Y-82102492D01*
X118663610Y-83164283D01*
X118412163Y-82912836D01*
X119473954Y-81851045D01*
G37*
G36*
X119827508Y-82204599D02*
G01*
X120078955Y-82456046D01*
X119017164Y-83517837D01*
X118765717Y-83266390D01*
X119827508Y-82204599D01*
G37*
G36*
X120181061Y-82558152D02*
G01*
X120432508Y-82809599D01*
X119370717Y-83871390D01*
X119119270Y-83619943D01*
X120181061Y-82558152D01*
G37*
G36*
X120534615Y-82911705D02*
G01*
X120786062Y-83163152D01*
X119724271Y-84224943D01*
X119472824Y-83973496D01*
X120534615Y-82911705D01*
G37*
G36*
X120888168Y-83265259D02*
G01*
X121139615Y-83516706D01*
X120077824Y-84578497D01*
X119826377Y-84327050D01*
X120888168Y-83265259D01*
G37*
G36*
X121241721Y-83618812D02*
G01*
X121493168Y-83870259D01*
X120431377Y-84932050D01*
X120179930Y-84680603D01*
X121241721Y-83618812D01*
G37*
G36*
X121595275Y-83972365D02*
G01*
X121846722Y-84223812D01*
X120784931Y-85285603D01*
X120533484Y-85034156D01*
X121595275Y-83972365D01*
G37*
G36*
X121846722Y-87226188D02*
G01*
X121595275Y-87477635D01*
X120533484Y-86415844D01*
X120784931Y-86164397D01*
X121846722Y-87226188D01*
G37*
G36*
X121493168Y-87579741D02*
G01*
X121241721Y-87831188D01*
X120179930Y-86769397D01*
X120431377Y-86517950D01*
X121493168Y-87579741D01*
G37*
G36*
X121139615Y-87933294D02*
G01*
X120888168Y-88184741D01*
X119826377Y-87122950D01*
X120077824Y-86871503D01*
X121139615Y-87933294D01*
G37*
G36*
X120786062Y-88286848D02*
G01*
X120534615Y-88538295D01*
X119472824Y-87476504D01*
X119724271Y-87225057D01*
X120786062Y-88286848D01*
G37*
G36*
X120432508Y-88640401D02*
G01*
X120181061Y-88891848D01*
X119119270Y-87830057D01*
X119370717Y-87578610D01*
X120432508Y-88640401D01*
G37*
G36*
X120078955Y-88993954D02*
G01*
X119827508Y-89245401D01*
X118765717Y-88183610D01*
X119017164Y-87932163D01*
X120078955Y-88993954D01*
G37*
G36*
X119725401Y-89347508D02*
G01*
X119473954Y-89598955D01*
X118412163Y-88537164D01*
X118663610Y-88285717D01*
X119725401Y-89347508D01*
G37*
G36*
X119371848Y-89701061D02*
G01*
X119120401Y-89952508D01*
X118058610Y-88890717D01*
X118310057Y-88639270D01*
X119371848Y-89701061D01*
G37*
G36*
X119018295Y-90054615D02*
G01*
X118766848Y-90306062D01*
X117705057Y-89244271D01*
X117956504Y-88992824D01*
X119018295Y-90054615D01*
G37*
G36*
X118664741Y-90408168D02*
G01*
X118413294Y-90659615D01*
X117351503Y-89597824D01*
X117602950Y-89346377D01*
X118664741Y-90408168D01*
G37*
G36*
X118311188Y-90761721D02*
G01*
X118059741Y-91013168D01*
X116997950Y-89951377D01*
X117249397Y-89699930D01*
X118311188Y-90761721D01*
G37*
G36*
X117957635Y-91115275D02*
G01*
X117706188Y-91366722D01*
X116644397Y-90304931D01*
X116895844Y-90053484D01*
X117957635Y-91115275D01*
G37*
%TD*%
D28*
%TO.C,C17*%
X96901000Y-80899000D03*
X95123000Y-80899000D03*
%TD*%
%TO.C,C18*%
X132207000Y-84074000D03*
X130429000Y-84074000D03*
%TD*%
%TO.C,C27*%
X198120000Y-84074000D03*
X196342000Y-84074000D03*
%TD*%
%TO.C,C41*%
X190627000Y-78740000D03*
X190627000Y-76962000D03*
%TD*%
D35*
%TO.C,R6*%
X92329000Y-72644000D03*
X92329000Y-71628000D03*
%TD*%
D36*
%TO.C,U6*%
X192405000Y-80651000D03*
X193675000Y-80651000D03*
X194945000Y-80651000D03*
X196215000Y-80651000D03*
X197485000Y-80651000D03*
X198755000Y-80651000D03*
X200025000Y-80651000D03*
X201295000Y-80651000D03*
X201295000Y-75051000D03*
X200025000Y-75051000D03*
X198755000Y-75051000D03*
X197485000Y-75051000D03*
X196215000Y-75051000D03*
X194945000Y-75051000D03*
X193675000Y-75051000D03*
X192405000Y-75051000D03*
%TD*%
D17*
%TO.C,C15*%
X90932000Y-82677000D03*
X89916000Y-82677000D03*
%TD*%
D37*
%TO.C,Q1*%
X111506000Y-76200000D03*
X120904000Y-76200000D03*
%TD*%
D28*
%TO.C,C19*%
X135763000Y-84074000D03*
X133985000Y-84074000D03*
%TD*%
%TO.C,C20*%
X148844000Y-84074000D03*
X147066000Y-84074000D03*
%TD*%
%TO.C,C42*%
X199898000Y-84074000D03*
X201676000Y-84074000D03*
%TD*%
%TO.C,C29*%
X128270000Y-78740000D03*
X128270000Y-76962000D03*
%TD*%
D17*
%TO.C,R7*%
X128016000Y-84074000D03*
X129032000Y-84074000D03*
%TD*%
D36*
%TO.C,U2*%
X130055621Y-80651000D03*
X131325621Y-80651000D03*
X132595621Y-80651000D03*
X133865621Y-80651000D03*
X135135621Y-80651000D03*
X136405621Y-80651000D03*
X137675621Y-80651000D03*
X138945621Y-80651000D03*
X138945621Y-75051000D03*
X137675621Y-75051000D03*
X136405621Y-75051000D03*
X135135621Y-75051000D03*
X133865621Y-75051000D03*
X132595621Y-75051000D03*
X131325621Y-75051000D03*
X130055621Y-75051000D03*
%TD*%
D28*
%TO.C,C21*%
X152400000Y-84074000D03*
X150622000Y-84074000D03*
%TD*%
%TO.C,C22*%
X164084000Y-84091001D03*
X162306000Y-84091001D03*
%TD*%
%TO.C,C23*%
X167640000Y-84091001D03*
X165862000Y-84091001D03*
%TD*%
%TO.C,C24*%
X179324000Y-84074000D03*
X177546000Y-84074000D03*
%TD*%
%TO.C,C25*%
X182880000Y-84074000D03*
X181102000Y-84074000D03*
%TD*%
%TO.C,C26*%
X194564000Y-84074000D03*
X192786000Y-84074000D03*
%TD*%
%TO.C,C30*%
X137541000Y-84074000D03*
X139319000Y-84074000D03*
%TD*%
%TO.C,C32*%
X144907000Y-78740000D03*
X144907000Y-76962000D03*
%TD*%
%TO.C,C33*%
X154178000Y-84074000D03*
X155956000Y-84074000D03*
%TD*%
%TO.C,C35*%
X160147000Y-78740000D03*
X160147000Y-76962000D03*
%TD*%
%TO.C,C36*%
X169418000Y-84074000D03*
X171196000Y-84074000D03*
%TD*%
%TO.C,C38*%
X175387000Y-78740000D03*
X175387000Y-76962000D03*
%TD*%
D17*
%TO.C,R8*%
X144018000Y-84074000D03*
X143002000Y-84074000D03*
%TD*%
%TO.C,R9*%
X159766000Y-84074000D03*
X158750000Y-84074000D03*
%TD*%
D36*
%TO.C,U3*%
X146685000Y-80651000D03*
X147955000Y-80651000D03*
X149225000Y-80651000D03*
X150495000Y-80651000D03*
X151765000Y-80651000D03*
X153035000Y-80651000D03*
X154305000Y-80651000D03*
X155575000Y-80651000D03*
X155575000Y-75051000D03*
X154305000Y-75051000D03*
X153035000Y-75051000D03*
X151765000Y-75051000D03*
X150495000Y-75051000D03*
X149225000Y-75051000D03*
X147955000Y-75051000D03*
X146685000Y-75051000D03*
%TD*%
%TO.C,U4*%
X161925000Y-80651000D03*
X163195000Y-80651000D03*
X164465000Y-80651000D03*
X165735000Y-80651000D03*
X167005000Y-80651000D03*
X168275000Y-80651000D03*
X169545000Y-80651000D03*
X170815000Y-80651000D03*
X170815000Y-75051000D03*
X169545000Y-75051000D03*
X168275000Y-75051000D03*
X167005000Y-75051000D03*
X165735000Y-75051000D03*
X164465000Y-75051000D03*
X163195000Y-75051000D03*
X161925000Y-75051000D03*
%TD*%
%TO.C,U5*%
X177165000Y-80651000D03*
X178435000Y-80651000D03*
X179705000Y-80651000D03*
X180975000Y-80651000D03*
X182245000Y-80651000D03*
X183515000Y-80651000D03*
X184785000Y-80651000D03*
X186055000Y-80651000D03*
X186055000Y-75051000D03*
X184785000Y-75051000D03*
X183515000Y-75051000D03*
X182245000Y-75051000D03*
X180975000Y-75051000D03*
X179705000Y-75051000D03*
X178435000Y-75051000D03*
X177165000Y-75051000D03*
%TD*%
D38*
%TO.C,RST_BUT1*%
X87698000Y-90213000D03*
X87698000Y-86063000D03*
X89848000Y-90213000D03*
X89848000Y-86063000D03*
%TD*%
D28*
%TO.C,C14*%
X92710000Y-79121000D03*
X92710000Y-80899000D03*
%TD*%
D17*
%TO.C,C16*%
X95123000Y-79375000D03*
X96139000Y-79375000D03*
%TD*%
D28*
%TO.C,C39*%
X187198000Y-84074000D03*
X188976000Y-84074000D03*
%TD*%
D39*
%TO.C,U7*%
X206375000Y-76240000D03*
X207645000Y-76240000D03*
X208915000Y-76240000D03*
X210185000Y-76240000D03*
X210185000Y-81240000D03*
X208915000Y-81240000D03*
X207645000Y-81240000D03*
X206375000Y-81240000D03*
%TD*%
D40*
%TO.C,R11*%
X214630000Y-71628000D03*
X214630000Y-74422000D03*
%TD*%
D35*
%TO.C,R13*%
X95631000Y-76962000D03*
X95631000Y-77978000D03*
%TD*%
D40*
%TO.C,R1*%
X99822000Y-85979000D03*
X99822000Y-83185000D03*
%TD*%
D17*
%TO.C,R2*%
X107823000Y-80391000D03*
X106807000Y-80391000D03*
%TD*%
D28*
%TO.C,R4*%
X87503000Y-73279000D03*
X87503000Y-71501000D03*
%TD*%
D35*
%TO.C,R10*%
X186690000Y-89662000D03*
X186690000Y-90678000D03*
%TD*%
D40*
%TO.C,R12*%
X214630000Y-80772000D03*
X214630000Y-77978000D03*
%TD*%
D41*
%TO.C,T1*%
X98739960Y-75346560D03*
X96837500Y-75346560D03*
X97792540Y-77556360D03*
%TD*%
D28*
%TO.C,R14*%
X205486000Y-85979000D03*
X205486000Y-84201000D03*
%TD*%
%TO.C,R15*%
X207010000Y-85979000D03*
X207010000Y-84201000D03*
%TD*%
%TO.C,R16*%
X100330000Y-75184000D03*
X100330000Y-76962000D03*
%TD*%
D26*
%TO.C,RS232_2*%
X146507200Y-66040000D03*
X121462800Y-66040000D03*
D27*
X129870200Y-64770000D03*
X132613400Y-64770000D03*
X135356600Y-64770000D03*
X138099800Y-64770000D03*
X128498600Y-67310000D03*
X131241800Y-67310000D03*
X133985000Y-67310000D03*
X136728200Y-67310000D03*
X139471400Y-67310000D03*
%TD*%
D26*
%TO.C,RS232_3*%
X180797200Y-66040000D03*
X155752800Y-66040000D03*
D27*
X164160200Y-64770000D03*
X166903400Y-64770000D03*
X169646600Y-64770000D03*
X172389800Y-64770000D03*
X162788600Y-67310000D03*
X165531800Y-67310000D03*
X168275000Y-67310000D03*
X171018200Y-67310000D03*
X173761400Y-67310000D03*
%TD*%
D26*
%TO.C,RS232_4*%
X215087200Y-66040000D03*
X190042800Y-66040000D03*
D27*
X198450200Y-64770000D03*
X201193400Y-64770000D03*
X203936600Y-64770000D03*
X206679800Y-64770000D03*
X197078600Y-67310000D03*
X199821800Y-67310000D03*
X202565000Y-67310000D03*
X205308200Y-67310000D03*
X208051400Y-67310000D03*
%TD*%
D17*
%TO.C,C11*%
X111506000Y-73025000D03*
X112522000Y-73025000D03*
%TD*%
%TO.C,C12*%
X119888000Y-73025000D03*
X120904000Y-73025000D03*
%TD*%
D35*
%TO.C,C28*%
X128270000Y-74549000D03*
X128270000Y-75565000D03*
%TD*%
%TO.C,C31*%
X144907000Y-75565000D03*
X144907000Y-74549000D03*
%TD*%
%TO.C,C34*%
X160147000Y-74549000D03*
X160147000Y-75565000D03*
%TD*%
%TO.C,C37*%
X175387000Y-75565000D03*
X175387000Y-74549000D03*
%TD*%
%TO.C,C40*%
X190627000Y-74549000D03*
X190627000Y-75565000D03*
%TD*%
%TO.C,C43*%
X204978000Y-76454000D03*
X204978000Y-75438000D03*
%TD*%
D41*
%TO.C,TVS1*%
X207330000Y-73490000D03*
X209230000Y-73490000D03*
X208280000Y-71290000D03*
%TD*%
D20*
%TO.C,GPIO11\u005CRTS3*%
X212090000Y-90170000D03*
D19*
X214630000Y-90170000D03*
X217170000Y-90170000D03*
%TD*%
M02*
